<?xml version="1.0" encoding="utf-8" standalone="no"?>
<!DOCTYPE svg PUBLIC "-//W3C//DTD SVG 1.1//EN"
  "http://www.w3.org/Graphics/SVG/1.1/DTD/svg11.dtd">
<svg xmlns:xlink="http://www.w3.org/1999/xlink" width="460.8pt" height="345.6pt" viewBox="0 0 460.8 345.6" xmlns="http://www.w3.org/2000/svg" version="1.1">
 <metadata>
  <rdf:RDF xmlns:dc="http://purl.org/dc/elements/1.1/" xmlns:cc="http://creativecommons.org/ns#" xmlns:rdf="http://www.w3.org/1999/02/22-rdf-syntax-ns#">
   <cc:Work>
    <dc:type rdf:resource="http://purl.org/dc/dcmitype/StillImage"/>
    <dc:date>2025-05-27T14:31:06.578568</dc:date>
    <dc:format>image/svg+xml</dc:format>
    <dc:creator>
     <cc:Agent>
      <dc:title>Matplotlib v3.10.3, https://matplotlib.org/</dc:title>
     </cc:Agent>
    </dc:creator>
   </cc:Work>
  </rdf:RDF>
 </metadata>
 <defs>
  <style type="text/css">*{stroke-linejoin: round; stroke-linecap: butt}</style>
 </defs>
 <g id="figure_1">
  <g id="patch_1">
   <path d="M 0 345.6 
L 460.8 345.6 
L 460.8 0 
L 0 0 
z
" style="fill: #ffffff"/>
  </g>
  <g id="axes_1">
   <g id="patch_2">
    <path d="M 57.6 307.584 
L 414.72 307.584 
L 414.72 41.472 
L 57.6 41.472 
z
" style="fill: #ffffff"/>
   </g>
   <g id="matplotlib.axis_1">
    <g id="xtick_1">
     <g id="line2d_1">
      <path d="M 60.229572 307.584 
L 60.229572 41.472 
" clip-path="url(#p1300697fb6)" style="fill: none; stroke: #dedede; stroke-width: 0.8; stroke-linecap: square"/>
     </g>
     <g id="text_1">
      <!-- 2000 -->
      <g style="fill: #333333" transform="translate(49.629647 320.913498) scale(0.0833 -0.0833)">
       <defs>
        <path id="DejaVuSans-32" d="M 1228 531 
L 3431 531 
L 3431 0 
L 469 0 
L 469 531 
Q 828 903 1448 1529 
Q 2069 2156 2228 2338 
Q 2531 2678 2651 2914 
Q 2772 3150 2772 3378 
Q 2772 3750 2511 3984 
Q 2250 4219 1831 4219 
Q 1534 4219 1204 4116 
Q 875 4013 500 3803 
L 500 4441 
Q 881 4594 1212 4672 
Q 1544 4750 1819 4750 
Q 2544 4750 2975 4387 
Q 3406 4025 3406 3419 
Q 3406 3131 3298 2873 
Q 3191 2616 2906 2266 
Q 2828 2175 2409 1742 
Q 1991 1309 1228 531 
z
" transform="scale(0.015625)"/>
        <path id="DejaVuSans-30" d="M 2034 4250 
Q 1547 4250 1301 3770 
Q 1056 3291 1056 2328 
Q 1056 1369 1301 889 
Q 1547 409 2034 409 
Q 2525 409 2770 889 
Q 3016 1369 3016 2328 
Q 3016 3291 2770 3770 
Q 2525 4250 2034 4250 
z
M 2034 4750 
Q 2819 4750 3233 4129 
Q 3647 3509 3647 2328 
Q 3647 1150 3233 529 
Q 2819 -91 2034 -91 
Q 1250 -91 836 529 
Q 422 1150 422 2328 
Q 422 3509 836 4129 
Q 1250 4750 2034 4750 
z
" transform="scale(0.015625)"/>
       </defs>
       <use xlink:href="#DejaVuSans-32"/>
       <use xlink:href="#DejaVuSans-30" transform="translate(63.623047 0)"/>
       <use xlink:href="#DejaVuSans-30" transform="translate(127.246094 0)"/>
       <use xlink:href="#DejaVuSans-30" transform="translate(190.869141 0)"/>
      </g>
     </g>
    </g>
    <g id="xtick_2">
     <g id="line2d_2">
      <path d="M 114.530693 307.584 
L 114.530693 41.472 
" clip-path="url(#p1300697fb6)" style="fill: none; stroke: #dedede; stroke-width: 0.8; stroke-linecap: square"/>
     </g>
     <g id="text_2">
      <!-- 2004 -->
      <g style="fill: #333333" transform="translate(103.930768 320.913498) scale(0.0833 -0.0833)">
       <defs>
        <path id="DejaVuSans-34" d="M 2419 4116 
L 825 1625 
L 2419 1625 
L 2419 4116 
z
M 2253 4666 
L 3047 4666 
L 3047 1625 
L 3713 1625 
L 3713 1100 
L 3047 1100 
L 3047 0 
L 2419 0 
L 2419 1100 
L 313 1100 
L 313 1709 
L 2253 4666 
z
" transform="scale(0.015625)"/>
       </defs>
       <use xlink:href="#DejaVuSans-32"/>
       <use xlink:href="#DejaVuSans-30" transform="translate(63.623047 0)"/>
       <use xlink:href="#DejaVuSans-30" transform="translate(127.246094 0)"/>
       <use xlink:href="#DejaVuSans-34" transform="translate(190.869141 0)"/>
      </g>
     </g>
    </g>
    <g id="xtick_3">
     <g id="line2d_3">
      <path d="M 168.831813 307.584 
L 168.831813 41.472 
" clip-path="url(#p1300697fb6)" style="fill: none; stroke: #dedede; stroke-width: 0.8; stroke-linecap: square"/>
     </g>
     <g id="text_3">
      <!-- 2008 -->
      <g style="fill: #333333" transform="translate(158.231888 320.913498) scale(0.0833 -0.0833)">
       <defs>
        <path id="DejaVuSans-38" d="M 2034 2216 
Q 1584 2216 1326 1975 
Q 1069 1734 1069 1313 
Q 1069 891 1326 650 
Q 1584 409 2034 409 
Q 2484 409 2743 651 
Q 3003 894 3003 1313 
Q 3003 1734 2745 1975 
Q 2488 2216 2034 2216 
z
M 1403 2484 
Q 997 2584 770 2862 
Q 544 3141 544 3541 
Q 544 4100 942 4425 
Q 1341 4750 2034 4750 
Q 2731 4750 3128 4425 
Q 3525 4100 3525 3541 
Q 3525 3141 3298 2862 
Q 3072 2584 2669 2484 
Q 3125 2378 3379 2068 
Q 3634 1759 3634 1313 
Q 3634 634 3220 271 
Q 2806 -91 2034 -91 
Q 1263 -91 848 271 
Q 434 634 434 1313 
Q 434 1759 690 2068 
Q 947 2378 1403 2484 
z
M 1172 3481 
Q 1172 3119 1398 2916 
Q 1625 2713 2034 2713 
Q 2441 2713 2670 2916 
Q 2900 3119 2900 3481 
Q 2900 3844 2670 4047 
Q 2441 4250 2034 4250 
Q 1625 4250 1398 4047 
Q 1172 3844 1172 3481 
z
" transform="scale(0.015625)"/>
       </defs>
       <use xlink:href="#DejaVuSans-32"/>
       <use xlink:href="#DejaVuSans-30" transform="translate(63.623047 0)"/>
       <use xlink:href="#DejaVuSans-30" transform="translate(127.246094 0)"/>
       <use xlink:href="#DejaVuSans-38" transform="translate(190.869141 0)"/>
      </g>
     </g>
    </g>
    <g id="xtick_4">
     <g id="line2d_4">
      <path d="M 223.132934 307.584 
L 223.132934 41.472 
" clip-path="url(#p1300697fb6)" style="fill: none; stroke: #dedede; stroke-width: 0.8; stroke-linecap: square"/>
     </g>
     <g id="text_4">
      <!-- 2012 -->
      <g style="fill: #333333" transform="translate(212.533009 320.913498) scale(0.0833 -0.0833)">
       <defs>
        <path id="DejaVuSans-31" d="M 794 531 
L 1825 531 
L 1825 4091 
L 703 3866 
L 703 4441 
L 1819 4666 
L 2450 4666 
L 2450 531 
L 3481 531 
L 3481 0 
L 794 0 
L 794 531 
z
" transform="scale(0.015625)"/>
       </defs>
       <use xlink:href="#DejaVuSans-32"/>
       <use xlink:href="#DejaVuSans-30" transform="translate(63.623047 0)"/>
       <use xlink:href="#DejaVuSans-31" transform="translate(127.246094 0)"/>
       <use xlink:href="#DejaVuSans-32" transform="translate(190.869141 0)"/>
      </g>
     </g>
    </g>
    <g id="xtick_5">
     <g id="line2d_5">
      <path d="M 277.434055 307.584 
L 277.434055 41.472 
" clip-path="url(#p1300697fb6)" style="fill: none; stroke: #dedede; stroke-width: 0.8; stroke-linecap: square"/>
     </g>
     <g id="text_5">
      <!-- 2016 -->
      <g style="fill: #333333" transform="translate(266.83413 320.913498) scale(0.0833 -0.0833)">
       <defs>
        <path id="DejaVuSans-36" d="M 2113 2584 
Q 1688 2584 1439 2293 
Q 1191 2003 1191 1497 
Q 1191 994 1439 701 
Q 1688 409 2113 409 
Q 2538 409 2786 701 
Q 3034 994 3034 1497 
Q 3034 2003 2786 2293 
Q 2538 2584 2113 2584 
z
M 3366 4563 
L 3366 3988 
Q 3128 4100 2886 4159 
Q 2644 4219 2406 4219 
Q 1781 4219 1451 3797 
Q 1122 3375 1075 2522 
Q 1259 2794 1537 2939 
Q 1816 3084 2150 3084 
Q 2853 3084 3261 2657 
Q 3669 2231 3669 1497 
Q 3669 778 3244 343 
Q 2819 -91 2113 -91 
Q 1303 -91 875 529 
Q 447 1150 447 2328 
Q 447 3434 972 4092 
Q 1497 4750 2381 4750 
Q 2619 4750 2861 4703 
Q 3103 4656 3366 4563 
z
" transform="scale(0.015625)"/>
       </defs>
       <use xlink:href="#DejaVuSans-32"/>
       <use xlink:href="#DejaVuSans-30" transform="translate(63.623047 0)"/>
       <use xlink:href="#DejaVuSans-31" transform="translate(127.246094 0)"/>
       <use xlink:href="#DejaVuSans-36" transform="translate(190.869141 0)"/>
      </g>
     </g>
    </g>
    <g id="xtick_6">
     <g id="line2d_6">
      <path d="M 331.735176 307.584 
L 331.735176 41.472 
" clip-path="url(#p1300697fb6)" style="fill: none; stroke: #dedede; stroke-width: 0.8; stroke-linecap: square"/>
     </g>
     <g id="text_6">
      <!-- 2020 -->
      <g style="fill: #333333" transform="translate(321.135251 320.913498) scale(0.0833 -0.0833)">
       <use xlink:href="#DejaVuSans-32"/>
       <use xlink:href="#DejaVuSans-30" transform="translate(63.623047 0)"/>
       <use xlink:href="#DejaVuSans-32" transform="translate(127.246094 0)"/>
       <use xlink:href="#DejaVuSans-30" transform="translate(190.869141 0)"/>
      </g>
     </g>
    </g>
    <g id="xtick_7">
     <g id="line2d_7">
      <path d="M 386.036297 307.584 
L 386.036297 41.472 
" clip-path="url(#p1300697fb6)" style="fill: none; stroke: #dedede; stroke-width: 0.8; stroke-linecap: square"/>
     </g>
     <g id="text_7">
      <!-- 2024 -->
      <g style="fill: #333333" transform="translate(375.436372 320.913498) scale(0.0833 -0.0833)">
       <use xlink:href="#DejaVuSans-32"/>
       <use xlink:href="#DejaVuSans-30" transform="translate(63.623047 0)"/>
       <use xlink:href="#DejaVuSans-32" transform="translate(127.246094 0)"/>
       <use xlink:href="#DejaVuSans-34" transform="translate(190.869141 0)"/>
      </g>
     </g>
    </g>
    <g id="text_8">
     <!-- Dates -->
     <g style="fill: #333333" transform="translate(219.877969 334.244316) scale(0.1 -0.1)">
      <defs>
       <path id="DejaVuSans-Bold-44" d="M 1791 3756 
L 1791 909 
L 2222 909 
Q 2959 909 3348 1275 
Q 3738 1641 3738 2338 
Q 3738 3031 3350 3393 
Q 2963 3756 2222 3756 
L 1791 3756 
z
M 588 4666 
L 1856 4666 
Q 2919 4666 3439 4514 
Q 3959 4363 4331 4000 
Q 4659 3684 4818 3271 
Q 4978 2859 4978 2338 
Q 4978 1809 4818 1395 
Q 4659 981 4331 666 
Q 3956 303 3431 151 
Q 2906 0 1856 0 
L 588 0 
L 588 4666 
z
" transform="scale(0.015625)"/>
       <path id="DejaVuSans-Bold-61" d="M 2106 1575 
Q 1756 1575 1579 1456 
Q 1403 1338 1403 1106 
Q 1403 894 1545 773 
Q 1688 653 1941 653 
Q 2256 653 2472 879 
Q 2688 1106 2688 1447 
L 2688 1575 
L 2106 1575 
z
M 3816 1997 
L 3816 0 
L 2688 0 
L 2688 519 
Q 2463 200 2181 54 
Q 1900 -91 1497 -91 
Q 953 -91 614 226 
Q 275 544 275 1050 
Q 275 1666 698 1953 
Q 1122 2241 2028 2241 
L 2688 2241 
L 2688 2328 
Q 2688 2594 2478 2717 
Q 2269 2841 1825 2841 
Q 1466 2841 1156 2769 
Q 847 2697 581 2553 
L 581 3406 
Q 941 3494 1303 3539 
Q 1666 3584 2028 3584 
Q 2975 3584 3395 3211 
Q 3816 2838 3816 1997 
z
" transform="scale(0.015625)"/>
       <path id="DejaVuSans-Bold-74" d="M 1759 4494 
L 1759 3500 
L 2913 3500 
L 2913 2700 
L 1759 2700 
L 1759 1216 
Q 1759 972 1856 886 
Q 1953 800 2241 800 
L 2816 800 
L 2816 0 
L 1856 0 
Q 1194 0 917 276 
Q 641 553 641 1216 
L 641 2700 
L 84 2700 
L 84 3500 
L 641 3500 
L 641 4494 
L 1759 4494 
z
" transform="scale(0.015625)"/>
       <path id="DejaVuSans-Bold-65" d="M 4031 1759 
L 4031 1441 
L 1416 1441 
Q 1456 1047 1700 850 
Q 1944 653 2381 653 
Q 2734 653 3104 758 
Q 3475 863 3866 1075 
L 3866 213 
Q 3469 63 3072 -14 
Q 2675 -91 2278 -91 
Q 1328 -91 801 392 
Q 275 875 275 1747 
Q 275 2603 792 3093 
Q 1309 3584 2216 3584 
Q 3041 3584 3536 3087 
Q 4031 2591 4031 1759 
z
M 2881 2131 
Q 2881 2450 2695 2645 
Q 2509 2841 2209 2841 
Q 1884 2841 1681 2658 
Q 1478 2475 1428 2131 
L 2881 2131 
z
" transform="scale(0.015625)"/>
       <path id="DejaVuSans-Bold-73" d="M 3272 3391 
L 3272 2541 
Q 2913 2691 2578 2766 
Q 2244 2841 1947 2841 
Q 1628 2841 1473 2761 
Q 1319 2681 1319 2516 
Q 1319 2381 1436 2309 
Q 1553 2238 1856 2203 
L 2053 2175 
Q 2913 2066 3209 1816 
Q 3506 1566 3506 1031 
Q 3506 472 3093 190 
Q 2681 -91 1863 -91 
Q 1516 -91 1145 -36 
Q 775 19 384 128 
L 384 978 
Q 719 816 1070 734 
Q 1422 653 1784 653 
Q 2113 653 2278 743 
Q 2444 834 2444 1013 
Q 2444 1163 2330 1236 
Q 2216 1309 1875 1350 
L 1678 1375 
Q 931 1469 631 1722 
Q 331 1975 331 2491 
Q 331 3047 712 3315 
Q 1094 3584 1881 3584 
Q 2191 3584 2531 3537 
Q 2872 3491 3272 3391 
z
" transform="scale(0.015625)"/>
      </defs>
      <use xlink:href="#DejaVuSans-Bold-44"/>
      <use xlink:href="#DejaVuSans-Bold-61" transform="translate(83.007812 0)"/>
      <use xlink:href="#DejaVuSans-Bold-74" transform="translate(150.488281 0)"/>
      <use xlink:href="#DejaVuSans-Bold-65" transform="translate(198.291016 0)"/>
      <use xlink:href="#DejaVuSans-Bold-73" transform="translate(266.113281 0)"/>
     </g>
    </g>
   </g>
   <g id="matplotlib.axis_2">
    <g id="ytick_1">
     <g id="line2d_8">
      <path d="M 57.6 272.253466 
L 414.72 272.253466 
" clip-path="url(#p1300697fb6)" style="fill: none; stroke: #dedede; stroke-width: 0.8; stroke-linecap: square"/>
     </g>
     <g id="line2d_9">
      <defs>
       <path id="m0a137d7ca4" d="M 0 0 
L -3.5 0 
" style="stroke: #333333; stroke-width: 0.8"/>
      </defs>
      <g>
       <use xlink:href="#m0a137d7ca4" x="57.6" y="272.253466" style="fill: #333333; stroke: #333333; stroke-width: 0.8"/>
      </g>
     </g>
     <g id="text_9">
      <!-- −0.2 -->
      <g style="fill: #333333" transform="translate(30.372417 275.418215) scale(0.0833 -0.0833)">
       <defs>
        <path id="DejaVuSans-2212" d="M 678 2272 
L 4684 2272 
L 4684 1741 
L 678 1741 
L 678 2272 
z
" transform="scale(0.015625)"/>
        <path id="DejaVuSans-2e" d="M 684 794 
L 1344 794 
L 1344 0 
L 684 0 
L 684 794 
z
" transform="scale(0.015625)"/>
       </defs>
       <use xlink:href="#DejaVuSans-2212"/>
       <use xlink:href="#DejaVuSans-30" transform="translate(83.789062 0)"/>
       <use xlink:href="#DejaVuSans-2e" transform="translate(147.412109 0)"/>
       <use xlink:href="#DejaVuSans-32" transform="translate(179.199219 0)"/>
      </g>
     </g>
    </g>
    <g id="ytick_2">
     <g id="line2d_10">
      <path d="M 57.6 213.172474 
L 414.72 213.172474 
" clip-path="url(#p1300697fb6)" style="fill: none; stroke: #dedede; stroke-width: 0.8; stroke-linecap: square"/>
     </g>
     <g id="line2d_11">
      <g>
       <use xlink:href="#m0a137d7ca4" x="57.6" y="213.172474" style="fill: #333333; stroke: #333333; stroke-width: 0.8"/>
      </g>
     </g>
     <g id="text_10">
      <!-- −0.1 -->
      <g style="fill: #333333" transform="translate(30.372417 216.337223) scale(0.0833 -0.0833)">
       <use xlink:href="#DejaVuSans-2212"/>
       <use xlink:href="#DejaVuSans-30" transform="translate(83.789062 0)"/>
       <use xlink:href="#DejaVuSans-2e" transform="translate(147.412109 0)"/>
       <use xlink:href="#DejaVuSans-31" transform="translate(179.199219 0)"/>
      </g>
     </g>
    </g>
    <g id="ytick_3">
     <g id="line2d_12">
      <path d="M 57.6 154.091482 
L 414.72 154.091482 
" clip-path="url(#p1300697fb6)" style="fill: none; stroke: #dedede; stroke-width: 0.8; stroke-linecap: square"/>
     </g>
     <g id="line2d_13">
      <g>
       <use xlink:href="#m0a137d7ca4" x="57.6" y="154.091482" style="fill: #333333; stroke: #333333; stroke-width: 0.8"/>
      </g>
     </g>
     <g id="text_11">
      <!-- 0.0 -->
      <g style="fill: #333333" transform="translate(37.352697 157.256232) scale(0.0833 -0.0833)">
       <use xlink:href="#DejaVuSans-30"/>
       <use xlink:href="#DejaVuSans-2e" transform="translate(63.623047 0)"/>
       <use xlink:href="#DejaVuSans-30" transform="translate(95.410156 0)"/>
      </g>
     </g>
    </g>
    <g id="ytick_4">
     <g id="line2d_14">
      <path d="M 57.6 95.010491 
L 414.72 95.010491 
" clip-path="url(#p1300697fb6)" style="fill: none; stroke: #dedede; stroke-width: 0.8; stroke-linecap: square"/>
     </g>
     <g id="line2d_15">
      <g>
       <use xlink:href="#m0a137d7ca4" x="57.6" y="95.010491" style="fill: #333333; stroke: #333333; stroke-width: 0.8"/>
      </g>
     </g>
     <g id="text_12">
      <!-- 0.1 -->
      <g style="fill: #333333" transform="translate(37.352697 98.17524) scale(0.0833 -0.0833)">
       <use xlink:href="#DejaVuSans-30"/>
       <use xlink:href="#DejaVuSans-2e" transform="translate(63.623047 0)"/>
       <use xlink:href="#DejaVuSans-31" transform="translate(95.410156 0)"/>
      </g>
     </g>
    </g>
   </g>
   <g id="line2d_16">
    <path d="M 73.832727 91.658579 
L 74.984907 61.335135 
L 76.025586 73.672458 
L 77.177766 66.979385 
L 78.292778 124.098237 
L 79.444958 160.652092 
L 80.559971 144.984959 
L 81.712151 168.78907 
L 82.864331 179.374062 
L 83.979343 153.383941 
L 85.131523 155.125923 
L 86.246536 136.36733 
L 87.398716 94.0809 
L 88.550896 63.639294 
L 89.591574 61.147288 
L 90.743754 53.568 
L 91.858767 85.51835 
L 93.010947 130.284463 
L 94.125959 143.803339 
L 95.278139 117.56585 
L 96.430319 152.255887 
L 97.545332 103.401422 
L 98.697512 161.093103 
L 99.812524 109.190074 
L 100.964704 79.901462 
L 102.116884 54.422659 
L 103.157563 64.455823 
L 104.309742 112.589911 
L 105.424755 137.686865 
L 106.576935 145.822764 
L 107.691948 145.280364 
L 108.844128 166.012263 
L 109.996307 173.643206 
L 111.11132 167.386136 
L 112.2635 152.526359 
L 115.682872 79.532081 
L 116.760718 117.687797 
L 117.912898 123.165408 
L 119.027911 136.918812 
L 120.180091 126.56236 
L 121.295103 138.426969 
L 122.447283 140.371113 
L 124.714476 101.865317 
L 125.866656 137.166184 
L 126.981668 128.627721 
L 129.286028 69.783717 
L 130.326707 61.088207 
L 131.478886 100.241983 
L 132.593899 200.194554 
L 133.746079 183.280112 
L 134.861092 134.232218 
L 136.013272 147.106346 
L 137.165451 157.455014 
L 138.280464 175.480232 
L 139.432644 178.994644 
L 140.547657 118.052223 
L 141.699837 79.842381 
L 142.852016 65.588967 
L 143.892695 57.484266 
L 145.044875 62.075663 
L 146.159888 91.071963 
L 147.312067 132.056893 
L 148.42708 143.980582 
L 149.57926 148.347047 
L 150.73144 119.64318 
L 151.846453 153.32486 
L 152.998632 145.200316 
L 154.113645 156.159463 
L 155.265825 129.943061 
L 156.418005 83.313264 
L 157.458683 78.339856 
L 158.610863 108.454241 
L 159.725876 124.511804 
L 160.878056 171.345752 
L 161.993069 153.728946 
L 163.145248 188.876607 
L 164.297428 171.752614 
L 165.412441 175.598394 
L 166.564621 160.265969 
L 167.679634 147.592719 
L 168.831813 110.328172 
L 169.983993 93.357033 
L 171.061839 112.016022 
L 172.214019 127.064754 
L 173.329032 165.573093 
L 174.481211 145.822764 
L 175.596224 106.168747 
L 176.748404 141.552733 
L 177.900584 118.107074 
L 179.015597 123.370797 
L 180.167776 135.216511 
L 181.282789 148.419853 
L 182.434969 208.284456 
L 183.587149 210.337396 
L 184.627827 206.841013 
L 185.780007 189.749686 
L 186.89502 175.4987 
L 188.0472 134.420132 
L 189.162213 151.070301 
L 191.466572 101.446234 
L 192.581585 163.191386 
L 193.733765 172.850221 
L 194.848778 98.850901 
L 196.000957 73.048067 
L 197.153137 126.442388 
L 198.193816 161.289569 
L 199.345996 167.476152 
L 200.461008 161.910072 
L 201.613188 162.956251 
L 202.728201 147.820846 
L 203.880381 157.800005 
L 205.032561 177.365309 
L 206.147574 178.375201 
L 207.299753 143.132482 
L 208.414766 135.303873 
L 209.566946 222.463894 
L 210.719126 202.715948 
L 211.759804 193.665952 
L 212.911984 180.060403 
L 214.026997 143.417721 
L 215.179177 226.409236 
L 216.29419 245.481726 
L 217.446369 199.983833 
L 218.598549 242.827047 
L 219.713562 132.173865 
L 220.865742 178.699239 
L 221.980755 146.647423 
L 223.132934 181.166281 
L 224.285114 154.860345 
L 225.36296 149.709694 
L 226.51514 129.664317 
L 227.630152 157.951645 
L 229.897345 152.015597 
L 231.049525 163.412699 
L 232.201705 156.982367 
L 233.316717 155.6881 
L 234.468897 174.859857 
L 235.58391 180.618993 
L 236.73609 195.700205 
L 237.88827 234.206117 
L 238.928948 208.849767 
L 240.081128 197.016648 
L 241.196141 149.562145 
L 242.348321 142.336985 
L 243.463334 157.56921 
L 244.615513 182.259536 
L 245.767693 166.080839 
L 246.882706 192.318315 
L 248.034886 223.069063 
L 249.149899 246.55338 
L 250.302078 295.488 
L 251.454258 276.980755 
L 252.494937 270.353079 
L 253.647117 212.554948 
L 254.762129 148.794092 
L 255.914309 138.142235 
L 257.029322 122.947749 
L 258.181502 142.084461 
L 259.333682 122.597229 
L 260.448694 138.022883 
L 261.600874 144.609507 
L 262.715887 165.198854 
L 263.868067 263.997831 
L 265.020247 247.322097 
L 266.060925 250.206461 
L 267.213105 205.52431 
L 268.328118 215.496531 
L 269.480298 179.617091 
L 270.59531 179.429177 
L 271.74749 192.894114 
L 272.89967 123.719768 
L 274.014683 162.009766 
L 275.166863 152.939926 
L 276.281875 134.594901 
L 277.434055 163.560146 
L 278.586235 170.221403 
L 279.664081 196.620002 
L 280.816261 191.522115 
L 281.931273 289.111447 
L 283.083453 145.350116 
L 284.198466 162.827418 
L 285.350646 149.17418 
L 286.502826 162.417818 
L 287.617838 162.777819 
L 288.770018 169.660729 
L 289.885031 143.338887 
L 291.037211 175.258182 
L 292.189391 199.052927 
L 293.230069 180.549972 
L 294.382249 194.712489 
L 295.497262 167.581847 
L 296.649442 182.216654 
L 297.764454 187.877759 
L 298.916634 166.012263 
L 300.068814 182.387193 
L 301.183827 171.16732 
L 302.336007 145.495721 
L 303.451019 128.56864 
L 304.603199 141.463855 
L 305.755379 170.04416 
L 306.796058 135.589337 
L 307.948237 136.813117 
L 309.06325 141.290806 
L 310.21543 171.22759 
L 311.330443 162.827418 
L 312.482623 162.171999 
L 313.634803 134.826995 
L 314.749815 132.764675 
L 315.901995 100.889573 
L 317.017008 187.945036 
L 318.169188 175.73083 
L 319.321368 215.418361 
L 320.362046 213.22176 
L 321.514226 208.301117 
L 322.629239 164.80504 
L 323.781419 142.63239 
L 324.896431 168.735517 
L 326.048611 138.303278 
L 327.200791 127.087385 
L 328.315804 136.191373 
L 329.467984 186.202525 
L 330.582996 134.122253 
L 331.735176 198.417931 
L 332.887356 206.851618 
L 333.965202 186.162666 
L 335.117381 196.484919 
L 336.232394 161.79191 
L 337.384574 149.958433 
L 338.499587 129.860225 
L 339.651767 174.933493 
L 340.803947 150.247133 
L 341.918959 194.858797 
L 343.071139 155.599453 
L 344.186152 174.710894 
L 345.338332 215.787742 
L 346.490512 183.987274 
L 347.53119 201.523724 
L 348.68337 190.931306 
L 349.798383 195.586237 
L 350.950563 185.229785 
L 353.217755 194.075734 
L 354.369935 211.691365 
L 355.484948 254.412437 
L 356.637128 264.307596 
L 357.75214 249.093862 
L 358.90432 224.472648 
L 360.0565 211.637178 
L 361.097179 182.086078 
L 362.249358 193.708112 
L 363.364371 162.796287 
L 364.516551 161.951874 
L 365.631564 180.433554 
L 366.783744 135.526471 
L 367.935923 136.304019 
L 370.203116 68.985837 
L 371.318129 119.352005 
L 372.470309 179.098446 
L 373.622488 192.140451 
L 374.663167 206.722851 
L 375.815347 203.338314 
L 376.93036 161.082938 
L 378.082539 156.043775 
L 379.197552 122.179696 
L 380.349732 123.769354 
L 381.501912 114.9167 
L 382.616925 123.961607 
L 383.769104 156.1303 
L 384.884117 87.211945 
L 386.036297 141.463855 
L 387.188477 106.88658 
L 388.266323 114.497423 
L 389.418502 80.745256 
L 390.533515 123.271103 
L 391.685695 111.02406 
L 392.800708 117.512298 
L 393.952888 115.734339 
L 395.105067 162.53598 
L 396.22008 113.97692 
L 397.37226 124.227447 
L 398.487273 137.903436 
L 398.487273 137.903436 
" clip-path="url(#p1300697fb6)" style="fill: none; stroke: #000000; stroke-width: 2; stroke-linecap: square"/>
   </g>
   <g id="legend_1">
    <g id="line2d_17">
     <path d="M 352.923125 54.570438 
L 362.923125 54.570438 
L 372.923125 54.570438 
" style="fill: none; stroke: #000000; stroke-width: 2; stroke-linecap: square"/>
    </g>
    <g id="text_13">
     <!-- NDVI -->
     <g transform="translate(380.923125 58.070438) scale(0.1 -0.1)">
      <defs>
       <path id="DejaVuSans-4e" d="M 628 4666 
L 1478 4666 
L 3547 763 
L 3547 4666 
L 4159 4666 
L 4159 0 
L 3309 0 
L 1241 3903 
L 1241 0 
L 628 0 
L 628 4666 
z
" transform="scale(0.015625)"/>
       <path id="DejaVuSans-44" d="M 1259 4147 
L 1259 519 
L 2022 519 
Q 2988 519 3436 956 
Q 3884 1394 3884 2338 
Q 3884 3275 3436 3711 
Q 2988 4147 2022 4147 
L 1259 4147 
z
M 628 4666 
L 1925 4666 
Q 3281 4666 3915 4102 
Q 4550 3538 4550 2338 
Q 4550 1131 3912 565 
Q 3275 0 1925 0 
L 628 0 
L 628 4666 
z
" transform="scale(0.015625)"/>
       <path id="DejaVuSans-56" d="M 1831 0 
L 50 4666 
L 709 4666 
L 2188 738 
L 3669 4666 
L 4325 4666 
L 2547 0 
L 1831 0 
z
" transform="scale(0.015625)"/>
       <path id="DejaVuSans-49" d="M 628 4666 
L 1259 4666 
L 1259 0 
L 628 0 
L 628 4666 
z
" transform="scale(0.015625)"/>
      </defs>
      <use xlink:href="#DejaVuSans-4e"/>
      <use xlink:href="#DejaVuSans-44" transform="translate(74.804688 0)"/>
      <use xlink:href="#DejaVuSans-56" transform="translate(150.056641 0)"/>
      <use xlink:href="#DejaVuSans-49" transform="translate(218.464844 0)"/>
     </g>
    </g>
   </g>
  </g>
 </g>
 <defs>
  <clipPath id="p1300697fb6">
   <rect x="57.6" y="41.472" width="357.12" height="266.112"/>
  </clipPath>
 </defs>
</svg>
