<?xml version="1.0" encoding="utf-8" standalone="no"?>
<!DOCTYPE svg PUBLIC "-//W3C//DTD SVG 1.1//EN"
  "http://www.w3.org/Graphics/SVG/1.1/DTD/svg11.dtd">
<svg xmlns:xlink="http://www.w3.org/1999/xlink" width="460.8pt" height="345.6pt" viewBox="0 0 460.8 345.6" xmlns="http://www.w3.org/2000/svg" version="1.1">
 <metadata>
  <rdf:RDF xmlns:dc="http://purl.org/dc/elements/1.1/" xmlns:cc="http://creativecommons.org/ns#" xmlns:rdf="http://www.w3.org/1999/02/22-rdf-syntax-ns#">
   <cc:Work>
    <dc:type rdf:resource="http://purl.org/dc/dcmitype/StillImage"/>
    <dc:date>2025-05-27T13:59:04.677347</dc:date>
    <dc:format>image/svg+xml</dc:format>
    <dc:creator>
     <cc:Agent>
      <dc:title>Matplotlib v3.10.3, https://matplotlib.org/</dc:title>
     </cc:Agent>
    </dc:creator>
   </cc:Work>
  </rdf:RDF>
 </metadata>
 <defs>
  <style type="text/css">*{stroke-linejoin: round; stroke-linecap: butt}</style>
 </defs>
 <g id="figure_1">
  <g id="patch_1">
   <path d="M 0 345.6 
L 460.8 345.6 
L 460.8 0 
L 0 0 
z
" style="fill: #ffffff"/>
  </g>
  <g id="axes_1">
   <g id="patch_2">
    <path d="M 57.6 307.584 
L 414.72 307.584 
L 414.72 41.472 
L 57.6 41.472 
z
" style="fill: #ffffff"/>
   </g>
   <g id="matplotlib.axis_1">
    <g id="xtick_1">
     <g id="line2d_1">
      <path d="M 60.229572 307.584 
L 60.229572 41.472 
" clip-path="url(#p7d7ad72043)" style="fill: none; stroke: #dedede; stroke-width: 0.8; stroke-linecap: square"/>
     </g>
     <g id="text_1">
      <!-- 2000 -->
      <g style="fill: #333333" transform="translate(49.629647 320.913498) scale(0.0833 -0.0833)">
       <defs>
        <path id="DejaVuSans-32" d="M 1228 531 
L 3431 531 
L 3431 0 
L 469 0 
L 469 531 
Q 828 903 1448 1529 
Q 2069 2156 2228 2338 
Q 2531 2678 2651 2914 
Q 2772 3150 2772 3378 
Q 2772 3750 2511 3984 
Q 2250 4219 1831 4219 
Q 1534 4219 1204 4116 
Q 875 4013 500 3803 
L 500 4441 
Q 881 4594 1212 4672 
Q 1544 4750 1819 4750 
Q 2544 4750 2975 4387 
Q 3406 4025 3406 3419 
Q 3406 3131 3298 2873 
Q 3191 2616 2906 2266 
Q 2828 2175 2409 1742 
Q 1991 1309 1228 531 
z
" transform="scale(0.015625)"/>
        <path id="DejaVuSans-30" d="M 2034 4250 
Q 1547 4250 1301 3770 
Q 1056 3291 1056 2328 
Q 1056 1369 1301 889 
Q 1547 409 2034 409 
Q 2525 409 2770 889 
Q 3016 1369 3016 2328 
Q 3016 3291 2770 3770 
Q 2525 4250 2034 4250 
z
M 2034 4750 
Q 2819 4750 3233 4129 
Q 3647 3509 3647 2328 
Q 3647 1150 3233 529 
Q 2819 -91 2034 -91 
Q 1250 -91 836 529 
Q 422 1150 422 2328 
Q 422 3509 836 4129 
Q 1250 4750 2034 4750 
z
" transform="scale(0.015625)"/>
       </defs>
       <use xlink:href="#DejaVuSans-32"/>
       <use xlink:href="#DejaVuSans-30" transform="translate(63.623047 0)"/>
       <use xlink:href="#DejaVuSans-30" transform="translate(127.246094 0)"/>
       <use xlink:href="#DejaVuSans-30" transform="translate(190.869141 0)"/>
      </g>
     </g>
    </g>
    <g id="xtick_2">
     <g id="line2d_2">
      <path d="M 114.530693 307.584 
L 114.530693 41.472 
" clip-path="url(#p7d7ad72043)" style="fill: none; stroke: #dedede; stroke-width: 0.8; stroke-linecap: square"/>
     </g>
     <g id="text_2">
      <!-- 2004 -->
      <g style="fill: #333333" transform="translate(103.930768 320.913498) scale(0.0833 -0.0833)">
       <defs>
        <path id="DejaVuSans-34" d="M 2419 4116 
L 825 1625 
L 2419 1625 
L 2419 4116 
z
M 2253 4666 
L 3047 4666 
L 3047 1625 
L 3713 1625 
L 3713 1100 
L 3047 1100 
L 3047 0 
L 2419 0 
L 2419 1100 
L 313 1100 
L 313 1709 
L 2253 4666 
z
" transform="scale(0.015625)"/>
       </defs>
       <use xlink:href="#DejaVuSans-32"/>
       <use xlink:href="#DejaVuSans-30" transform="translate(63.623047 0)"/>
       <use xlink:href="#DejaVuSans-30" transform="translate(127.246094 0)"/>
       <use xlink:href="#DejaVuSans-34" transform="translate(190.869141 0)"/>
      </g>
     </g>
    </g>
    <g id="xtick_3">
     <g id="line2d_3">
      <path d="M 168.831813 307.584 
L 168.831813 41.472 
" clip-path="url(#p7d7ad72043)" style="fill: none; stroke: #dedede; stroke-width: 0.8; stroke-linecap: square"/>
     </g>
     <g id="text_3">
      <!-- 2008 -->
      <g style="fill: #333333" transform="translate(158.231888 320.913498) scale(0.0833 -0.0833)">
       <defs>
        <path id="DejaVuSans-38" d="M 2034 2216 
Q 1584 2216 1326 1975 
Q 1069 1734 1069 1313 
Q 1069 891 1326 650 
Q 1584 409 2034 409 
Q 2484 409 2743 651 
Q 3003 894 3003 1313 
Q 3003 1734 2745 1975 
Q 2488 2216 2034 2216 
z
M 1403 2484 
Q 997 2584 770 2862 
Q 544 3141 544 3541 
Q 544 4100 942 4425 
Q 1341 4750 2034 4750 
Q 2731 4750 3128 4425 
Q 3525 4100 3525 3541 
Q 3525 3141 3298 2862 
Q 3072 2584 2669 2484 
Q 3125 2378 3379 2068 
Q 3634 1759 3634 1313 
Q 3634 634 3220 271 
Q 2806 -91 2034 -91 
Q 1263 -91 848 271 
Q 434 634 434 1313 
Q 434 1759 690 2068 
Q 947 2378 1403 2484 
z
M 1172 3481 
Q 1172 3119 1398 2916 
Q 1625 2713 2034 2713 
Q 2441 2713 2670 2916 
Q 2900 3119 2900 3481 
Q 2900 3844 2670 4047 
Q 2441 4250 2034 4250 
Q 1625 4250 1398 4047 
Q 1172 3844 1172 3481 
z
" transform="scale(0.015625)"/>
       </defs>
       <use xlink:href="#DejaVuSans-32"/>
       <use xlink:href="#DejaVuSans-30" transform="translate(63.623047 0)"/>
       <use xlink:href="#DejaVuSans-30" transform="translate(127.246094 0)"/>
       <use xlink:href="#DejaVuSans-38" transform="translate(190.869141 0)"/>
      </g>
     </g>
    </g>
    <g id="xtick_4">
     <g id="line2d_4">
      <path d="M 223.132934 307.584 
L 223.132934 41.472 
" clip-path="url(#p7d7ad72043)" style="fill: none; stroke: #dedede; stroke-width: 0.8; stroke-linecap: square"/>
     </g>
     <g id="text_4">
      <!-- 2012 -->
      <g style="fill: #333333" transform="translate(212.533009 320.913498) scale(0.0833 -0.0833)">
       <defs>
        <path id="DejaVuSans-31" d="M 794 531 
L 1825 531 
L 1825 4091 
L 703 3866 
L 703 4441 
L 1819 4666 
L 2450 4666 
L 2450 531 
L 3481 531 
L 3481 0 
L 794 0 
L 794 531 
z
" transform="scale(0.015625)"/>
       </defs>
       <use xlink:href="#DejaVuSans-32"/>
       <use xlink:href="#DejaVuSans-30" transform="translate(63.623047 0)"/>
       <use xlink:href="#DejaVuSans-31" transform="translate(127.246094 0)"/>
       <use xlink:href="#DejaVuSans-32" transform="translate(190.869141 0)"/>
      </g>
     </g>
    </g>
    <g id="xtick_5">
     <g id="line2d_5">
      <path d="M 277.434055 307.584 
L 277.434055 41.472 
" clip-path="url(#p7d7ad72043)" style="fill: none; stroke: #dedede; stroke-width: 0.8; stroke-linecap: square"/>
     </g>
     <g id="text_5">
      <!-- 2016 -->
      <g style="fill: #333333" transform="translate(266.83413 320.913498) scale(0.0833 -0.0833)">
       <defs>
        <path id="DejaVuSans-36" d="M 2113 2584 
Q 1688 2584 1439 2293 
Q 1191 2003 1191 1497 
Q 1191 994 1439 701 
Q 1688 409 2113 409 
Q 2538 409 2786 701 
Q 3034 994 3034 1497 
Q 3034 2003 2786 2293 
Q 2538 2584 2113 2584 
z
M 3366 4563 
L 3366 3988 
Q 3128 4100 2886 4159 
Q 2644 4219 2406 4219 
Q 1781 4219 1451 3797 
Q 1122 3375 1075 2522 
Q 1259 2794 1537 2939 
Q 1816 3084 2150 3084 
Q 2853 3084 3261 2657 
Q 3669 2231 3669 1497 
Q 3669 778 3244 343 
Q 2819 -91 2113 -91 
Q 1303 -91 875 529 
Q 447 1150 447 2328 
Q 447 3434 972 4092 
Q 1497 4750 2381 4750 
Q 2619 4750 2861 4703 
Q 3103 4656 3366 4563 
z
" transform="scale(0.015625)"/>
       </defs>
       <use xlink:href="#DejaVuSans-32"/>
       <use xlink:href="#DejaVuSans-30" transform="translate(63.623047 0)"/>
       <use xlink:href="#DejaVuSans-31" transform="translate(127.246094 0)"/>
       <use xlink:href="#DejaVuSans-36" transform="translate(190.869141 0)"/>
      </g>
     </g>
    </g>
    <g id="xtick_6">
     <g id="line2d_6">
      <path d="M 331.735176 307.584 
L 331.735176 41.472 
" clip-path="url(#p7d7ad72043)" style="fill: none; stroke: #dedede; stroke-width: 0.8; stroke-linecap: square"/>
     </g>
     <g id="text_6">
      <!-- 2020 -->
      <g style="fill: #333333" transform="translate(321.135251 320.913498) scale(0.0833 -0.0833)">
       <use xlink:href="#DejaVuSans-32"/>
       <use xlink:href="#DejaVuSans-30" transform="translate(63.623047 0)"/>
       <use xlink:href="#DejaVuSans-32" transform="translate(127.246094 0)"/>
       <use xlink:href="#DejaVuSans-30" transform="translate(190.869141 0)"/>
      </g>
     </g>
    </g>
    <g id="xtick_7">
     <g id="line2d_7">
      <path d="M 386.036297 307.584 
L 386.036297 41.472 
" clip-path="url(#p7d7ad72043)" style="fill: none; stroke: #dedede; stroke-width: 0.8; stroke-linecap: square"/>
     </g>
     <g id="text_7">
      <!-- 2024 -->
      <g style="fill: #333333" transform="translate(375.436372 320.913498) scale(0.0833 -0.0833)">
       <use xlink:href="#DejaVuSans-32"/>
       <use xlink:href="#DejaVuSans-30" transform="translate(63.623047 0)"/>
       <use xlink:href="#DejaVuSans-32" transform="translate(127.246094 0)"/>
       <use xlink:href="#DejaVuSans-34" transform="translate(190.869141 0)"/>
      </g>
     </g>
    </g>
    <g id="text_8">
     <!-- Dates -->
     <g style="fill: #333333" transform="translate(219.877969 334.244316) scale(0.1 -0.1)">
      <defs>
       <path id="DejaVuSans-Bold-44" d="M 1791 3756 
L 1791 909 
L 2222 909 
Q 2959 909 3348 1275 
Q 3738 1641 3738 2338 
Q 3738 3031 3350 3393 
Q 2963 3756 2222 3756 
L 1791 3756 
z
M 588 4666 
L 1856 4666 
Q 2919 4666 3439 4514 
Q 3959 4363 4331 4000 
Q 4659 3684 4818 3271 
Q 4978 2859 4978 2338 
Q 4978 1809 4818 1395 
Q 4659 981 4331 666 
Q 3956 303 3431 151 
Q 2906 0 1856 0 
L 588 0 
L 588 4666 
z
" transform="scale(0.015625)"/>
       <path id="DejaVuSans-Bold-61" d="M 2106 1575 
Q 1756 1575 1579 1456 
Q 1403 1338 1403 1106 
Q 1403 894 1545 773 
Q 1688 653 1941 653 
Q 2256 653 2472 879 
Q 2688 1106 2688 1447 
L 2688 1575 
L 2106 1575 
z
M 3816 1997 
L 3816 0 
L 2688 0 
L 2688 519 
Q 2463 200 2181 54 
Q 1900 -91 1497 -91 
Q 953 -91 614 226 
Q 275 544 275 1050 
Q 275 1666 698 1953 
Q 1122 2241 2028 2241 
L 2688 2241 
L 2688 2328 
Q 2688 2594 2478 2717 
Q 2269 2841 1825 2841 
Q 1466 2841 1156 2769 
Q 847 2697 581 2553 
L 581 3406 
Q 941 3494 1303 3539 
Q 1666 3584 2028 3584 
Q 2975 3584 3395 3211 
Q 3816 2838 3816 1997 
z
" transform="scale(0.015625)"/>
       <path id="DejaVuSans-Bold-74" d="M 1759 4494 
L 1759 3500 
L 2913 3500 
L 2913 2700 
L 1759 2700 
L 1759 1216 
Q 1759 972 1856 886 
Q 1953 800 2241 800 
L 2816 800 
L 2816 0 
L 1856 0 
Q 1194 0 917 276 
Q 641 553 641 1216 
L 641 2700 
L 84 2700 
L 84 3500 
L 641 3500 
L 641 4494 
L 1759 4494 
z
" transform="scale(0.015625)"/>
       <path id="DejaVuSans-Bold-65" d="M 4031 1759 
L 4031 1441 
L 1416 1441 
Q 1456 1047 1700 850 
Q 1944 653 2381 653 
Q 2734 653 3104 758 
Q 3475 863 3866 1075 
L 3866 213 
Q 3469 63 3072 -14 
Q 2675 -91 2278 -91 
Q 1328 -91 801 392 
Q 275 875 275 1747 
Q 275 2603 792 3093 
Q 1309 3584 2216 3584 
Q 3041 3584 3536 3087 
Q 4031 2591 4031 1759 
z
M 2881 2131 
Q 2881 2450 2695 2645 
Q 2509 2841 2209 2841 
Q 1884 2841 1681 2658 
Q 1478 2475 1428 2131 
L 2881 2131 
z
" transform="scale(0.015625)"/>
       <path id="DejaVuSans-Bold-73" d="M 3272 3391 
L 3272 2541 
Q 2913 2691 2578 2766 
Q 2244 2841 1947 2841 
Q 1628 2841 1473 2761 
Q 1319 2681 1319 2516 
Q 1319 2381 1436 2309 
Q 1553 2238 1856 2203 
L 2053 2175 
Q 2913 2066 3209 1816 
Q 3506 1566 3506 1031 
Q 3506 472 3093 190 
Q 2681 -91 1863 -91 
Q 1516 -91 1145 -36 
Q 775 19 384 128 
L 384 978 
Q 719 816 1070 734 
Q 1422 653 1784 653 
Q 2113 653 2278 743 
Q 2444 834 2444 1013 
Q 2444 1163 2330 1236 
Q 2216 1309 1875 1350 
L 1678 1375 
Q 931 1469 631 1722 
Q 331 1975 331 2491 
Q 331 3047 712 3315 
Q 1094 3584 1881 3584 
Q 2191 3584 2531 3537 
Q 2872 3491 3272 3391 
z
" transform="scale(0.015625)"/>
      </defs>
      <use xlink:href="#DejaVuSans-Bold-44"/>
      <use xlink:href="#DejaVuSans-Bold-61" transform="translate(83.007812 0)"/>
      <use xlink:href="#DejaVuSans-Bold-74" transform="translate(150.488281 0)"/>
      <use xlink:href="#DejaVuSans-Bold-65" transform="translate(198.291016 0)"/>
      <use xlink:href="#DejaVuSans-Bold-73" transform="translate(266.113281 0)"/>
     </g>
    </g>
   </g>
   <g id="matplotlib.axis_2">
    <g id="ytick_1">
     <g id="line2d_8">
      <path d="M 57.6 277.587231 
L 414.72 277.587231 
" clip-path="url(#p7d7ad72043)" style="fill: none; stroke: #dedede; stroke-width: 0.8; stroke-linecap: square"/>
     </g>
     <g id="line2d_9">
      <defs>
       <path id="mf7c648a474" d="M 0 0 
L -3.5 0 
" style="stroke: #333333; stroke-width: 0.8"/>
      </defs>
      <g>
       <use xlink:href="#mf7c648a474" x="57.6" y="277.587231" style="fill: #333333; stroke: #333333; stroke-width: 0.8"/>
      </g>
     </g>
     <g id="text_9">
      <!-- −0.10 -->
      <g style="fill: #333333" transform="translate(25.072455 280.75198) scale(0.0833 -0.0833)">
       <defs>
        <path id="DejaVuSans-2212" d="M 678 2272 
L 4684 2272 
L 4684 1741 
L 678 1741 
L 678 2272 
z
" transform="scale(0.015625)"/>
        <path id="DejaVuSans-2e" d="M 684 794 
L 1344 794 
L 1344 0 
L 684 0 
L 684 794 
z
" transform="scale(0.015625)"/>
       </defs>
       <use xlink:href="#DejaVuSans-2212"/>
       <use xlink:href="#DejaVuSans-30" transform="translate(83.789062 0)"/>
       <use xlink:href="#DejaVuSans-2e" transform="translate(147.412109 0)"/>
       <use xlink:href="#DejaVuSans-31" transform="translate(179.199219 0)"/>
       <use xlink:href="#DejaVuSans-30" transform="translate(242.822266 0)"/>
      </g>
     </g>
    </g>
    <g id="ytick_2">
     <g id="line2d_10">
      <path d="M 57.6 235.849797 
L 414.72 235.849797 
" clip-path="url(#p7d7ad72043)" style="fill: none; stroke: #dedede; stroke-width: 0.8; stroke-linecap: square"/>
     </g>
     <g id="line2d_11">
      <g>
       <use xlink:href="#mf7c648a474" x="57.6" y="235.849797" style="fill: #333333; stroke: #333333; stroke-width: 0.8"/>
      </g>
     </g>
     <g id="text_10">
      <!-- −0.05 -->
      <g style="fill: #333333" transform="translate(25.072455 239.014546) scale(0.0833 -0.0833)">
       <defs>
        <path id="DejaVuSans-35" d="M 691 4666 
L 3169 4666 
L 3169 4134 
L 1269 4134 
L 1269 2991 
Q 1406 3038 1543 3061 
Q 1681 3084 1819 3084 
Q 2600 3084 3056 2656 
Q 3513 2228 3513 1497 
Q 3513 744 3044 326 
Q 2575 -91 1722 -91 
Q 1428 -91 1123 -41 
Q 819 9 494 109 
L 494 744 
Q 775 591 1075 516 
Q 1375 441 1709 441 
Q 2250 441 2565 725 
Q 2881 1009 2881 1497 
Q 2881 1984 2565 2268 
Q 2250 2553 1709 2553 
Q 1456 2553 1204 2497 
Q 953 2441 691 2322 
L 691 4666 
z
" transform="scale(0.015625)"/>
       </defs>
       <use xlink:href="#DejaVuSans-2212"/>
       <use xlink:href="#DejaVuSans-30" transform="translate(83.789062 0)"/>
       <use xlink:href="#DejaVuSans-2e" transform="translate(147.412109 0)"/>
       <use xlink:href="#DejaVuSans-30" transform="translate(179.199219 0)"/>
       <use xlink:href="#DejaVuSans-35" transform="translate(242.822266 0)"/>
      </g>
     </g>
    </g>
    <g id="ytick_3">
     <g id="line2d_12">
      <path d="M 57.6 194.112363 
L 414.72 194.112363 
" clip-path="url(#p7d7ad72043)" style="fill: none; stroke: #dedede; stroke-width: 0.8; stroke-linecap: square"/>
     </g>
     <g id="line2d_13">
      <g>
       <use xlink:href="#mf7c648a474" x="57.6" y="194.112363" style="fill: #333333; stroke: #333333; stroke-width: 0.8"/>
      </g>
     </g>
     <g id="text_11">
      <!-- 0.00 -->
      <g style="fill: #333333" transform="translate(32.052734 197.277112) scale(0.0833 -0.0833)">
       <use xlink:href="#DejaVuSans-30"/>
       <use xlink:href="#DejaVuSans-2e" transform="translate(63.623047 0)"/>
       <use xlink:href="#DejaVuSans-30" transform="translate(95.410156 0)"/>
       <use xlink:href="#DejaVuSans-30" transform="translate(159.033203 0)"/>
      </g>
     </g>
    </g>
    <g id="ytick_4">
     <g id="line2d_14">
      <path d="M 57.6 152.374929 
L 414.72 152.374929 
" clip-path="url(#p7d7ad72043)" style="fill: none; stroke: #dedede; stroke-width: 0.8; stroke-linecap: square"/>
     </g>
     <g id="line2d_15">
      <g>
       <use xlink:href="#mf7c648a474" x="57.6" y="152.374929" style="fill: #333333; stroke: #333333; stroke-width: 0.8"/>
      </g>
     </g>
     <g id="text_12">
      <!-- 0.05 -->
      <g style="fill: #333333" transform="translate(32.052734 155.539678) scale(0.0833 -0.0833)">
       <use xlink:href="#DejaVuSans-30"/>
       <use xlink:href="#DejaVuSans-2e" transform="translate(63.623047 0)"/>
       <use xlink:href="#DejaVuSans-30" transform="translate(95.410156 0)"/>
       <use xlink:href="#DejaVuSans-35" transform="translate(159.033203 0)"/>
      </g>
     </g>
    </g>
    <g id="ytick_5">
     <g id="line2d_16">
      <path d="M 57.6 110.637495 
L 414.72 110.637495 
" clip-path="url(#p7d7ad72043)" style="fill: none; stroke: #dedede; stroke-width: 0.8; stroke-linecap: square"/>
     </g>
     <g id="line2d_17">
      <g>
       <use xlink:href="#mf7c648a474" x="57.6" y="110.637495" style="fill: #333333; stroke: #333333; stroke-width: 0.8"/>
      </g>
     </g>
     <g id="text_13">
      <!-- 0.10 -->
      <g style="fill: #333333" transform="translate(32.052734 113.802244) scale(0.0833 -0.0833)">
       <use xlink:href="#DejaVuSans-30"/>
       <use xlink:href="#DejaVuSans-2e" transform="translate(63.623047 0)"/>
       <use xlink:href="#DejaVuSans-31" transform="translate(95.410156 0)"/>
       <use xlink:href="#DejaVuSans-30" transform="translate(159.033203 0)"/>
      </g>
     </g>
    </g>
    <g id="ytick_6">
     <g id="line2d_18">
      <path d="M 57.6 68.900061 
L 414.72 68.900061 
" clip-path="url(#p7d7ad72043)" style="fill: none; stroke: #dedede; stroke-width: 0.8; stroke-linecap: square"/>
     </g>
     <g id="line2d_19">
      <g>
       <use xlink:href="#mf7c648a474" x="57.6" y="68.900061" style="fill: #333333; stroke: #333333; stroke-width: 0.8"/>
      </g>
     </g>
     <g id="text_14">
      <!-- 0.15 -->
      <g style="fill: #333333" transform="translate(32.052734 72.06481) scale(0.0833 -0.0833)">
       <use xlink:href="#DejaVuSans-30"/>
       <use xlink:href="#DejaVuSans-2e" transform="translate(63.623047 0)"/>
       <use xlink:href="#DejaVuSans-31" transform="translate(95.410156 0)"/>
       <use xlink:href="#DejaVuSans-35" transform="translate(159.033203 0)"/>
      </g>
     </g>
    </g>
   </g>
   <g id="line2d_20">
    <path d="M 73.832727 241.452982 
L 74.984907 169.399673 
L 76.025586 129.68798 
L 77.177766 106.256866 
L 78.292778 157.711429 
L 79.444958 159.64275 
L 80.559971 127.119191 
L 81.712151 149.247447 
L 82.864331 192.759276 
L 83.979343 53.568 
L 85.131523 99.997732 
L 87.398716 178.262507 
L 88.550896 212.05533 
L 89.591574 186.868264 
L 90.743754 140.648511 
L 91.858767 202.620908 
L 93.010947 170.744907 
L 94.125959 185.468124 
L 95.278139 138.980038 
L 96.430319 204.028383 
L 97.545332 97.308831 
L 98.697512 221.787564 
L 99.812524 217.005734 
L 100.964704 197.461727 
L 102.116884 202.873095 
L 103.157563 166.416922 
L 104.309742 186.309264 
L 105.424755 190.183152 
L 106.576935 185.102585 
L 107.691948 148.906132 
L 108.844128 154.255939 
L 109.996307 197.350393 
L 111.11132 219.766462 
L 112.2635 222.872737 
L 114.530693 244.541552 
L 115.682872 222.990538 
L 116.760718 210.408177 
L 117.912898 194.239377 
L 119.027911 214.975188 
L 120.180091 184.85216 
L 121.295103 270.27859 
L 122.447283 185.725964 
L 123.599463 156.447708 
L 124.714476 120.598319 
L 125.866656 124.314825 
L 126.981668 98.387946 
L 128.133848 215.826198 
L 129.286028 165.142455 
L 130.326707 174.013135 
L 131.478886 209.515277 
L 132.593899 209.966696 
L 133.746079 197.206441 
L 134.861092 170.025273 
L 136.013272 201.753138 
L 137.165451 224.312776 
L 138.280464 197.562147 
L 139.432644 236.97999 
L 140.547657 235.203255 
L 141.699837 130.014034 
L 142.852016 219.985443 
L 143.892695 147.968976 
L 145.044875 138.478165 
L 146.159888 208.881523 
L 147.312067 212.398866 
L 148.42708 204.500394 
L 149.57926 172.369985 
L 150.73144 135.328566 
L 151.846453 226.945301 
L 152.998632 209.266334 
L 154.113645 213.082415 
L 155.265825 170.833244 
L 156.418005 188.765842 
L 157.458683 218.588714 
L 158.610863 206.927556 
L 159.725876 179.16447 
L 160.878056 203.467056 
L 161.993069 192.313063 
L 163.145248 232.13799 
L 164.297428 216.966987 
L 165.412441 232.705067 
L 168.831813 291.704853 
L 169.983993 192.438736 
L 171.061839 203.563238 
L 172.214019 207.67883 
L 173.329032 205.375578 
L 174.481211 219.49423 
L 175.596224 205.752517 
L 176.748404 219.44981 
L 179.015597 148.645875 
L 180.167776 274.319163 
L 181.282789 182.530613 
L 182.434969 225.592757 
L 183.587149 206.295564 
L 184.627827 240.375655 
L 185.780007 257.429852 
L 188.0472 188.525054 
L 189.162213 183.965576 
L 190.314392 226.795599 
L 191.466572 227.317871 
L 192.581585 250.067839 
L 193.733765 180.467504 
L 194.848778 134.616039 
L 196.000957 249.216145 
L 197.153137 203.624369 
L 198.193816 197.469573 
L 199.345996 222.286932 
L 200.461008 207.128551 
L 201.613188 197.37339 
L 202.728201 215.101702 
L 203.880381 213.773519 
L 205.032561 228.653469 
L 206.147574 218.764764 
L 207.299753 184.808197 
L 208.414766 250.479156 
L 209.566946 237.696613 
L 210.719126 260.971603 
L 211.759804 213.496747 
L 212.911984 177.460928 
L 214.026997 184.757286 
L 215.179177 173.666528 
L 216.29419 189.057543 
L 217.446369 216.110816 
L 218.598549 206.115255 
L 219.713562 189.465085 
L 220.865742 217.029496 
L 221.980755 252.649502 
L 223.132934 279.100148 
L 224.285114 230.252852 
L 225.36296 232.862917 
L 226.51514 245.409471 
L 227.630152 230.918888 
L 228.782332 183.266138 
L 229.897345 205.835992 
L 231.049525 216.110816 
L 232.201705 229.822117 
L 233.316717 181.284548 
L 234.468897 270.729743 
L 235.58391 236.121478 
L 236.73609 254.892436 
L 237.88827 245.445278 
L 238.928948 254.149008 
L 240.081128 220.283535 
L 241.196141 230.584988 
L 242.348321 204.969603 
L 243.463334 188.055845 
L 244.615513 219.199386 
L 245.767693 220.723356 
L 246.882706 197.562147 
L 248.034886 247.915198 
L 249.149899 273.35127 
L 250.302078 211.318555 
L 251.454258 241.188059 
L 252.494937 252.479511 
L 253.647117 230.634419 
L 254.762129 189.849253 
L 255.914309 108.556131 
L 257.029322 142.311617 
L 258.181502 131.049925 
L 259.333682 154.778211 
L 260.448694 199.14817 
L 261.600874 239.651186 
L 262.715887 232.114685 
L 263.868067 134.187777 
L 265.020247 230.336326 
L 266.060925 172.343637 
L 267.213105 179.965174 
L 268.328118 244.859191 
L 269.480298 211.313693 
L 270.59531 228.457681 
L 271.74749 216.69514 
L 272.89967 227.81872 
L 274.014683 272.355629 
L 275.166863 142.15254 
L 276.281875 159.074175 
L 277.434055 208.31346 
L 278.586235 200.034949 
L 279.664081 199.30602 
L 280.816261 184.472817 
L 281.931273 125.239705 
L 283.083453 208.141648 
L 284.198466 171.193922 
L 285.350646 209.683251 
L 286.502826 187.333409 
L 287.617838 186.710414 
L 288.770018 141.761072 
L 289.885031 195.302268 
L 291.037211 209.899482 
L 292.189391 183.840825 
L 293.230069 182.026722 
L 294.382249 209.515277 
L 295.497262 193.021298 
L 296.649442 189.526753 
L 297.764454 181.711755 
L 298.916634 179.214924 
L 300.068814 163.459597 
L 301.183827 145.891204 
L 302.336007 256.01226 
L 303.451019 197.38914 
L 304.603199 188.279491 
L 305.755379 188.431943 
L 306.796058 182.694521 
L 307.948237 185.224091 
L 309.06325 178.329721 
L 311.330443 232.881849 
L 312.482623 205.926882 
L 313.634803 153.359138 
L 314.749815 236.127536 
L 315.901995 232.138448 
L 317.017008 176.603898 
L 318.169188 200.633772 
L 319.321368 171.736969 
L 320.362046 165.248274 
L 321.514226 208.263154 
L 322.629239 198.02979 
L 323.781419 198.375089 
L 324.896431 295.488 
L 326.048611 174.206432 
L 327.200791 185.747387 
L 328.315804 188.713811 
L 329.467984 224.625709 
L 330.582996 215.670136 
L 331.735176 214.991449 
L 332.887356 172.571718 
L 333.965202 208.237831 
L 335.117381 197.244472 
L 336.232394 213.556115 
L 337.384574 184.518261 
L 338.499587 115.43271 
L 339.651767 187.89631 
L 340.803947 218.38606 
L 341.918959 227.946999 
L 343.071139 147.353889 
L 344.186152 128.689323 
L 345.338332 152.134874 
L 346.490512 190.26839 
L 347.53119 124.679488 
L 348.68337 89.311468 
L 349.798383 135.340164 
L 350.950563 175.920349 
L 352.065575 124.948845 
L 353.217755 165.358096 
L 354.369935 183.493565 
L 355.484948 157.327261 
L 356.637128 208.765485 
L 357.75214 151.227538 
L 358.90432 193.454933 
L 360.0565 150.784777 
L 361.097179 147.134227 
L 362.249358 194.489801 
L 363.364371 167.978837 
L 364.516551 156.303755 
L 365.631564 230.043704 
L 366.783744 219.199386 
L 367.935923 214.045367 
L 369.050936 167.59467 
L 370.203116 224.12486 
L 371.318129 221.930751 
L 372.470309 141.032716 
L 373.622488 141.435592 
L 374.663167 167.75252 
L 375.815347 204.506785 
L 376.93036 178.413196 
L 378.082539 198.625513 
L 379.197552 206.169891 
L 380.349732 158.429682 
L 381.501912 188.502057 
L 382.616925 147.727651 
L 383.769104 77.376042 
L 384.884117 86.951889 
L 386.036297 125.756815 
L 387.188477 154.708096 
L 388.266323 141.290987 
L 389.418502 173.704559 
L 390.533515 182.503464 
L 391.685695 171.746606 
L 392.800708 186.887197 
L 393.952888 188.814534 
L 395.105067 174.14438 
L 396.22008 221.26901 
L 397.37226 128.405094 
L 398.487273 136.202061 
L 398.487273 136.202061 
" clip-path="url(#p7d7ad72043)" style="fill: none; stroke: #000000; stroke-width: 2; stroke-linecap: square"/>
   </g>
   <g id="legend_1">
    <g id="line2d_21">
     <path d="M 352.923125 54.570438 
L 362.923125 54.570438 
L 372.923125 54.570438 
" style="fill: none; stroke: #000000; stroke-width: 2; stroke-linecap: square"/>
    </g>
    <g id="text_15">
     <!-- NDVI -->
     <g transform="translate(380.923125 58.070438) scale(0.1 -0.1)">
      <defs>
       <path id="DejaVuSans-4e" d="M 628 4666 
L 1478 4666 
L 3547 763 
L 3547 4666 
L 4159 4666 
L 4159 0 
L 3309 0 
L 1241 3903 
L 1241 0 
L 628 0 
L 628 4666 
z
" transform="scale(0.015625)"/>
       <path id="DejaVuSans-44" d="M 1259 4147 
L 1259 519 
L 2022 519 
Q 2988 519 3436 956 
Q 3884 1394 3884 2338 
Q 3884 3275 3436 3711 
Q 2988 4147 2022 4147 
L 1259 4147 
z
M 628 4666 
L 1925 4666 
Q 3281 4666 3915 4102 
Q 4550 3538 4550 2338 
Q 4550 1131 3912 565 
Q 3275 0 1925 0 
L 628 0 
L 628 4666 
z
" transform="scale(0.015625)"/>
       <path id="DejaVuSans-56" d="M 1831 0 
L 50 4666 
L 709 4666 
L 2188 738 
L 3669 4666 
L 4325 4666 
L 2547 0 
L 1831 0 
z
" transform="scale(0.015625)"/>
       <path id="DejaVuSans-49" d="M 628 4666 
L 1259 4666 
L 1259 0 
L 628 0 
L 628 4666 
z
" transform="scale(0.015625)"/>
      </defs>
      <use xlink:href="#DejaVuSans-4e"/>
      <use xlink:href="#DejaVuSans-44" transform="translate(74.804688 0)"/>
      <use xlink:href="#DejaVuSans-56" transform="translate(150.056641 0)"/>
      <use xlink:href="#DejaVuSans-49" transform="translate(218.464844 0)"/>
     </g>
    </g>
   </g>
  </g>
 </g>
 <defs>
  <clipPath id="p7d7ad72043">
   <rect x="57.6" y="41.472" width="357.12" height="266.112"/>
  </clipPath>
 </defs>
</svg>
