<?xml version="1.0" encoding="utf-8" standalone="no"?>
<!DOCTYPE svg PUBLIC "-//W3C//DTD SVG 1.1//EN"
  "http://www.w3.org/Graphics/SVG/1.1/DTD/svg11.dtd">
<svg xmlns:xlink="http://www.w3.org/1999/xlink" width="460.8pt" height="345.6pt" viewBox="0 0 460.8 345.6" xmlns="http://www.w3.org/2000/svg" version="1.1">
 <metadata>
  <rdf:RDF xmlns:dc="http://purl.org/dc/elements/1.1/" xmlns:cc="http://creativecommons.org/ns#" xmlns:rdf="http://www.w3.org/1999/02/22-rdf-syntax-ns#">
   <cc:Work>
    <dc:type rdf:resource="http://purl.org/dc/dcmitype/StillImage"/>
    <dc:date>2025-05-27T14:29:50.202506</dc:date>
    <dc:format>image/svg+xml</dc:format>
    <dc:creator>
     <cc:Agent>
      <dc:title>Matplotlib v3.10.3, https://matplotlib.org/</dc:title>
     </cc:Agent>
    </dc:creator>
   </cc:Work>
  </rdf:RDF>
 </metadata>
 <defs>
  <style type="text/css">*{stroke-linejoin: round; stroke-linecap: butt}</style>
 </defs>
 <g id="figure_1">
  <g id="patch_1">
   <path d="M 0 345.6 
L 460.8 345.6 
L 460.8 0 
L 0 0 
z
" style="fill: #ffffff"/>
  </g>
  <g id="axes_1">
   <g id="patch_2">
    <path d="M 57.6 307.584 
L 414.72 307.584 
L 414.72 41.472 
L 57.6 41.472 
z
" style="fill: #ffffff"/>
   </g>
   <g id="matplotlib.axis_1">
    <g id="xtick_1">
     <g id="line2d_1">
      <path d="M 60.229572 307.584 
L 60.229572 41.472 
" clip-path="url(#pc32b888112)" style="fill: none; stroke: #dedede; stroke-width: 0.8; stroke-linecap: square"/>
     </g>
     <g id="text_1">
      <!-- 2000 -->
      <g style="fill: #333333" transform="translate(49.629647 320.913498) scale(0.0833 -0.0833)">
       <defs>
        <path id="DejaVuSans-32" d="M 1228 531 
L 3431 531 
L 3431 0 
L 469 0 
L 469 531 
Q 828 903 1448 1529 
Q 2069 2156 2228 2338 
Q 2531 2678 2651 2914 
Q 2772 3150 2772 3378 
Q 2772 3750 2511 3984 
Q 2250 4219 1831 4219 
Q 1534 4219 1204 4116 
Q 875 4013 500 3803 
L 500 4441 
Q 881 4594 1212 4672 
Q 1544 4750 1819 4750 
Q 2544 4750 2975 4387 
Q 3406 4025 3406 3419 
Q 3406 3131 3298 2873 
Q 3191 2616 2906 2266 
Q 2828 2175 2409 1742 
Q 1991 1309 1228 531 
z
" transform="scale(0.015625)"/>
        <path id="DejaVuSans-30" d="M 2034 4250 
Q 1547 4250 1301 3770 
Q 1056 3291 1056 2328 
Q 1056 1369 1301 889 
Q 1547 409 2034 409 
Q 2525 409 2770 889 
Q 3016 1369 3016 2328 
Q 3016 3291 2770 3770 
Q 2525 4250 2034 4250 
z
M 2034 4750 
Q 2819 4750 3233 4129 
Q 3647 3509 3647 2328 
Q 3647 1150 3233 529 
Q 2819 -91 2034 -91 
Q 1250 -91 836 529 
Q 422 1150 422 2328 
Q 422 3509 836 4129 
Q 1250 4750 2034 4750 
z
" transform="scale(0.015625)"/>
       </defs>
       <use xlink:href="#DejaVuSans-32"/>
       <use xlink:href="#DejaVuSans-30" transform="translate(63.623047 0)"/>
       <use xlink:href="#DejaVuSans-30" transform="translate(127.246094 0)"/>
       <use xlink:href="#DejaVuSans-30" transform="translate(190.869141 0)"/>
      </g>
     </g>
    </g>
    <g id="xtick_2">
     <g id="line2d_2">
      <path d="M 114.530693 307.584 
L 114.530693 41.472 
" clip-path="url(#pc32b888112)" style="fill: none; stroke: #dedede; stroke-width: 0.8; stroke-linecap: square"/>
     </g>
     <g id="text_2">
      <!-- 2004 -->
      <g style="fill: #333333" transform="translate(103.930768 320.913498) scale(0.0833 -0.0833)">
       <defs>
        <path id="DejaVuSans-34" d="M 2419 4116 
L 825 1625 
L 2419 1625 
L 2419 4116 
z
M 2253 4666 
L 3047 4666 
L 3047 1625 
L 3713 1625 
L 3713 1100 
L 3047 1100 
L 3047 0 
L 2419 0 
L 2419 1100 
L 313 1100 
L 313 1709 
L 2253 4666 
z
" transform="scale(0.015625)"/>
       </defs>
       <use xlink:href="#DejaVuSans-32"/>
       <use xlink:href="#DejaVuSans-30" transform="translate(63.623047 0)"/>
       <use xlink:href="#DejaVuSans-30" transform="translate(127.246094 0)"/>
       <use xlink:href="#DejaVuSans-34" transform="translate(190.869141 0)"/>
      </g>
     </g>
    </g>
    <g id="xtick_3">
     <g id="line2d_3">
      <path d="M 168.831813 307.584 
L 168.831813 41.472 
" clip-path="url(#pc32b888112)" style="fill: none; stroke: #dedede; stroke-width: 0.8; stroke-linecap: square"/>
     </g>
     <g id="text_3">
      <!-- 2008 -->
      <g style="fill: #333333" transform="translate(158.231888 320.913498) scale(0.0833 -0.0833)">
       <defs>
        <path id="DejaVuSans-38" d="M 2034 2216 
Q 1584 2216 1326 1975 
Q 1069 1734 1069 1313 
Q 1069 891 1326 650 
Q 1584 409 2034 409 
Q 2484 409 2743 651 
Q 3003 894 3003 1313 
Q 3003 1734 2745 1975 
Q 2488 2216 2034 2216 
z
M 1403 2484 
Q 997 2584 770 2862 
Q 544 3141 544 3541 
Q 544 4100 942 4425 
Q 1341 4750 2034 4750 
Q 2731 4750 3128 4425 
Q 3525 4100 3525 3541 
Q 3525 3141 3298 2862 
Q 3072 2584 2669 2484 
Q 3125 2378 3379 2068 
Q 3634 1759 3634 1313 
Q 3634 634 3220 271 
Q 2806 -91 2034 -91 
Q 1263 -91 848 271 
Q 434 634 434 1313 
Q 434 1759 690 2068 
Q 947 2378 1403 2484 
z
M 1172 3481 
Q 1172 3119 1398 2916 
Q 1625 2713 2034 2713 
Q 2441 2713 2670 2916 
Q 2900 3119 2900 3481 
Q 2900 3844 2670 4047 
Q 2441 4250 2034 4250 
Q 1625 4250 1398 4047 
Q 1172 3844 1172 3481 
z
" transform="scale(0.015625)"/>
       </defs>
       <use xlink:href="#DejaVuSans-32"/>
       <use xlink:href="#DejaVuSans-30" transform="translate(63.623047 0)"/>
       <use xlink:href="#DejaVuSans-30" transform="translate(127.246094 0)"/>
       <use xlink:href="#DejaVuSans-38" transform="translate(190.869141 0)"/>
      </g>
     </g>
    </g>
    <g id="xtick_4">
     <g id="line2d_4">
      <path d="M 223.132934 307.584 
L 223.132934 41.472 
" clip-path="url(#pc32b888112)" style="fill: none; stroke: #dedede; stroke-width: 0.8; stroke-linecap: square"/>
     </g>
     <g id="text_4">
      <!-- 2012 -->
      <g style="fill: #333333" transform="translate(212.533009 320.913498) scale(0.0833 -0.0833)">
       <defs>
        <path id="DejaVuSans-31" d="M 794 531 
L 1825 531 
L 1825 4091 
L 703 3866 
L 703 4441 
L 1819 4666 
L 2450 4666 
L 2450 531 
L 3481 531 
L 3481 0 
L 794 0 
L 794 531 
z
" transform="scale(0.015625)"/>
       </defs>
       <use xlink:href="#DejaVuSans-32"/>
       <use xlink:href="#DejaVuSans-30" transform="translate(63.623047 0)"/>
       <use xlink:href="#DejaVuSans-31" transform="translate(127.246094 0)"/>
       <use xlink:href="#DejaVuSans-32" transform="translate(190.869141 0)"/>
      </g>
     </g>
    </g>
    <g id="xtick_5">
     <g id="line2d_5">
      <path d="M 277.434055 307.584 
L 277.434055 41.472 
" clip-path="url(#pc32b888112)" style="fill: none; stroke: #dedede; stroke-width: 0.8; stroke-linecap: square"/>
     </g>
     <g id="text_5">
      <!-- 2016 -->
      <g style="fill: #333333" transform="translate(266.83413 320.913498) scale(0.0833 -0.0833)">
       <defs>
        <path id="DejaVuSans-36" d="M 2113 2584 
Q 1688 2584 1439 2293 
Q 1191 2003 1191 1497 
Q 1191 994 1439 701 
Q 1688 409 2113 409 
Q 2538 409 2786 701 
Q 3034 994 3034 1497 
Q 3034 2003 2786 2293 
Q 2538 2584 2113 2584 
z
M 3366 4563 
L 3366 3988 
Q 3128 4100 2886 4159 
Q 2644 4219 2406 4219 
Q 1781 4219 1451 3797 
Q 1122 3375 1075 2522 
Q 1259 2794 1537 2939 
Q 1816 3084 2150 3084 
Q 2853 3084 3261 2657 
Q 3669 2231 3669 1497 
Q 3669 778 3244 343 
Q 2819 -91 2113 -91 
Q 1303 -91 875 529 
Q 447 1150 447 2328 
Q 447 3434 972 4092 
Q 1497 4750 2381 4750 
Q 2619 4750 2861 4703 
Q 3103 4656 3366 4563 
z
" transform="scale(0.015625)"/>
       </defs>
       <use xlink:href="#DejaVuSans-32"/>
       <use xlink:href="#DejaVuSans-30" transform="translate(63.623047 0)"/>
       <use xlink:href="#DejaVuSans-31" transform="translate(127.246094 0)"/>
       <use xlink:href="#DejaVuSans-36" transform="translate(190.869141 0)"/>
      </g>
     </g>
    </g>
    <g id="xtick_6">
     <g id="line2d_6">
      <path d="M 331.735176 307.584 
L 331.735176 41.472 
" clip-path="url(#pc32b888112)" style="fill: none; stroke: #dedede; stroke-width: 0.8; stroke-linecap: square"/>
     </g>
     <g id="text_6">
      <!-- 2020 -->
      <g style="fill: #333333" transform="translate(321.135251 320.913498) scale(0.0833 -0.0833)">
       <use xlink:href="#DejaVuSans-32"/>
       <use xlink:href="#DejaVuSans-30" transform="translate(63.623047 0)"/>
       <use xlink:href="#DejaVuSans-32" transform="translate(127.246094 0)"/>
       <use xlink:href="#DejaVuSans-30" transform="translate(190.869141 0)"/>
      </g>
     </g>
    </g>
    <g id="xtick_7">
     <g id="line2d_7">
      <path d="M 386.036297 307.584 
L 386.036297 41.472 
" clip-path="url(#pc32b888112)" style="fill: none; stroke: #dedede; stroke-width: 0.8; stroke-linecap: square"/>
     </g>
     <g id="text_7">
      <!-- 2024 -->
      <g style="fill: #333333" transform="translate(375.436372 320.913498) scale(0.0833 -0.0833)">
       <use xlink:href="#DejaVuSans-32"/>
       <use xlink:href="#DejaVuSans-30" transform="translate(63.623047 0)"/>
       <use xlink:href="#DejaVuSans-32" transform="translate(127.246094 0)"/>
       <use xlink:href="#DejaVuSans-34" transform="translate(190.869141 0)"/>
      </g>
     </g>
    </g>
    <g id="text_8">
     <!-- Dates -->
     <g style="fill: #333333" transform="translate(219.877969 334.244316) scale(0.1 -0.1)">
      <defs>
       <path id="DejaVuSans-Bold-44" d="M 1791 3756 
L 1791 909 
L 2222 909 
Q 2959 909 3348 1275 
Q 3738 1641 3738 2338 
Q 3738 3031 3350 3393 
Q 2963 3756 2222 3756 
L 1791 3756 
z
M 588 4666 
L 1856 4666 
Q 2919 4666 3439 4514 
Q 3959 4363 4331 4000 
Q 4659 3684 4818 3271 
Q 4978 2859 4978 2338 
Q 4978 1809 4818 1395 
Q 4659 981 4331 666 
Q 3956 303 3431 151 
Q 2906 0 1856 0 
L 588 0 
L 588 4666 
z
" transform="scale(0.015625)"/>
       <path id="DejaVuSans-Bold-61" d="M 2106 1575 
Q 1756 1575 1579 1456 
Q 1403 1338 1403 1106 
Q 1403 894 1545 773 
Q 1688 653 1941 653 
Q 2256 653 2472 879 
Q 2688 1106 2688 1447 
L 2688 1575 
L 2106 1575 
z
M 3816 1997 
L 3816 0 
L 2688 0 
L 2688 519 
Q 2463 200 2181 54 
Q 1900 -91 1497 -91 
Q 953 -91 614 226 
Q 275 544 275 1050 
Q 275 1666 698 1953 
Q 1122 2241 2028 2241 
L 2688 2241 
L 2688 2328 
Q 2688 2594 2478 2717 
Q 2269 2841 1825 2841 
Q 1466 2841 1156 2769 
Q 847 2697 581 2553 
L 581 3406 
Q 941 3494 1303 3539 
Q 1666 3584 2028 3584 
Q 2975 3584 3395 3211 
Q 3816 2838 3816 1997 
z
" transform="scale(0.015625)"/>
       <path id="DejaVuSans-Bold-74" d="M 1759 4494 
L 1759 3500 
L 2913 3500 
L 2913 2700 
L 1759 2700 
L 1759 1216 
Q 1759 972 1856 886 
Q 1953 800 2241 800 
L 2816 800 
L 2816 0 
L 1856 0 
Q 1194 0 917 276 
Q 641 553 641 1216 
L 641 2700 
L 84 2700 
L 84 3500 
L 641 3500 
L 641 4494 
L 1759 4494 
z
" transform="scale(0.015625)"/>
       <path id="DejaVuSans-Bold-65" d="M 4031 1759 
L 4031 1441 
L 1416 1441 
Q 1456 1047 1700 850 
Q 1944 653 2381 653 
Q 2734 653 3104 758 
Q 3475 863 3866 1075 
L 3866 213 
Q 3469 63 3072 -14 
Q 2675 -91 2278 -91 
Q 1328 -91 801 392 
Q 275 875 275 1747 
Q 275 2603 792 3093 
Q 1309 3584 2216 3584 
Q 3041 3584 3536 3087 
Q 4031 2591 4031 1759 
z
M 2881 2131 
Q 2881 2450 2695 2645 
Q 2509 2841 2209 2841 
Q 1884 2841 1681 2658 
Q 1478 2475 1428 2131 
L 2881 2131 
z
" transform="scale(0.015625)"/>
       <path id="DejaVuSans-Bold-73" d="M 3272 3391 
L 3272 2541 
Q 2913 2691 2578 2766 
Q 2244 2841 1947 2841 
Q 1628 2841 1473 2761 
Q 1319 2681 1319 2516 
Q 1319 2381 1436 2309 
Q 1553 2238 1856 2203 
L 2053 2175 
Q 2913 2066 3209 1816 
Q 3506 1566 3506 1031 
Q 3506 472 3093 190 
Q 2681 -91 1863 -91 
Q 1516 -91 1145 -36 
Q 775 19 384 128 
L 384 978 
Q 719 816 1070 734 
Q 1422 653 1784 653 
Q 2113 653 2278 743 
Q 2444 834 2444 1013 
Q 2444 1163 2330 1236 
Q 2216 1309 1875 1350 
L 1678 1375 
Q 931 1469 631 1722 
Q 331 1975 331 2491 
Q 331 3047 712 3315 
Q 1094 3584 1881 3584 
Q 2191 3584 2531 3537 
Q 2872 3491 3272 3391 
z
" transform="scale(0.015625)"/>
      </defs>
      <use xlink:href="#DejaVuSans-Bold-44"/>
      <use xlink:href="#DejaVuSans-Bold-61" transform="translate(83.007812 0)"/>
      <use xlink:href="#DejaVuSans-Bold-74" transform="translate(150.488281 0)"/>
      <use xlink:href="#DejaVuSans-Bold-65" transform="translate(198.291016 0)"/>
      <use xlink:href="#DejaVuSans-Bold-73" transform="translate(266.113281 0)"/>
     </g>
    </g>
   </g>
   <g id="matplotlib.axis_2">
    <g id="ytick_1">
     <g id="line2d_8">
      <path d="M 57.6 276.342463 
L 414.72 276.342463 
" clip-path="url(#pc32b888112)" style="fill: none; stroke: #dedede; stroke-width: 0.8; stroke-linecap: square"/>
     </g>
     <g id="line2d_9">
      <defs>
       <path id="m4e786f39dc" d="M 0 0 
L -3.5 0 
" style="stroke: #333333; stroke-width: 0.8"/>
      </defs>
      <g>
       <use xlink:href="#m4e786f39dc" x="57.6" y="276.342463" style="fill: #333333; stroke: #333333; stroke-width: 0.8"/>
      </g>
     </g>
     <g id="text_9">
      <!-- −0.3 -->
      <g style="fill: #333333" transform="translate(30.372417 279.507212) scale(0.0833 -0.0833)">
       <defs>
        <path id="DejaVuSans-2212" d="M 678 2272 
L 4684 2272 
L 4684 1741 
L 678 1741 
L 678 2272 
z
" transform="scale(0.015625)"/>
        <path id="DejaVuSans-2e" d="M 684 794 
L 1344 794 
L 1344 0 
L 684 0 
L 684 794 
z
" transform="scale(0.015625)"/>
        <path id="DejaVuSans-33" d="M 2597 2516 
Q 3050 2419 3304 2112 
Q 3559 1806 3559 1356 
Q 3559 666 3084 287 
Q 2609 -91 1734 -91 
Q 1441 -91 1130 -33 
Q 819 25 488 141 
L 488 750 
Q 750 597 1062 519 
Q 1375 441 1716 441 
Q 2309 441 2620 675 
Q 2931 909 2931 1356 
Q 2931 1769 2642 2001 
Q 2353 2234 1838 2234 
L 1294 2234 
L 1294 2753 
L 1863 2753 
Q 2328 2753 2575 2939 
Q 2822 3125 2822 3475 
Q 2822 3834 2567 4026 
Q 2313 4219 1838 4219 
Q 1578 4219 1281 4162 
Q 984 4106 628 3988 
L 628 4550 
Q 988 4650 1302 4700 
Q 1616 4750 1894 4750 
Q 2613 4750 3031 4423 
Q 3450 4097 3450 3541 
Q 3450 3153 3228 2886 
Q 3006 2619 2597 2516 
z
" transform="scale(0.015625)"/>
       </defs>
       <use xlink:href="#DejaVuSans-2212"/>
       <use xlink:href="#DejaVuSans-30" transform="translate(83.789062 0)"/>
       <use xlink:href="#DejaVuSans-2e" transform="translate(147.412109 0)"/>
       <use xlink:href="#DejaVuSans-33" transform="translate(179.199219 0)"/>
      </g>
     </g>
    </g>
    <g id="ytick_2">
     <g id="line2d_10">
      <path d="M 57.6 227.812426 
L 414.72 227.812426 
" clip-path="url(#pc32b888112)" style="fill: none; stroke: #dedede; stroke-width: 0.8; stroke-linecap: square"/>
     </g>
     <g id="line2d_11">
      <g>
       <use xlink:href="#m4e786f39dc" x="57.6" y="227.812426" style="fill: #333333; stroke: #333333; stroke-width: 0.8"/>
      </g>
     </g>
     <g id="text_10">
      <!-- −0.2 -->
      <g style="fill: #333333" transform="translate(30.372417 230.977176) scale(0.0833 -0.0833)">
       <use xlink:href="#DejaVuSans-2212"/>
       <use xlink:href="#DejaVuSans-30" transform="translate(83.789062 0)"/>
       <use xlink:href="#DejaVuSans-2e" transform="translate(147.412109 0)"/>
       <use xlink:href="#DejaVuSans-32" transform="translate(179.199219 0)"/>
      </g>
     </g>
    </g>
    <g id="ytick_3">
     <g id="line2d_12">
      <path d="M 57.6 179.28239 
L 414.72 179.28239 
" clip-path="url(#pc32b888112)" style="fill: none; stroke: #dedede; stroke-width: 0.8; stroke-linecap: square"/>
     </g>
     <g id="line2d_13">
      <g>
       <use xlink:href="#m4e786f39dc" x="57.6" y="179.28239" style="fill: #333333; stroke: #333333; stroke-width: 0.8"/>
      </g>
     </g>
     <g id="text_11">
      <!-- −0.1 -->
      <g style="fill: #333333" transform="translate(30.372417 182.447139) scale(0.0833 -0.0833)">
       <use xlink:href="#DejaVuSans-2212"/>
       <use xlink:href="#DejaVuSans-30" transform="translate(83.789062 0)"/>
       <use xlink:href="#DejaVuSans-2e" transform="translate(147.412109 0)"/>
       <use xlink:href="#DejaVuSans-31" transform="translate(179.199219 0)"/>
      </g>
     </g>
    </g>
    <g id="ytick_4">
     <g id="line2d_14">
      <path d="M 57.6 130.752353 
L 414.72 130.752353 
" clip-path="url(#pc32b888112)" style="fill: none; stroke: #dedede; stroke-width: 0.8; stroke-linecap: square"/>
     </g>
     <g id="line2d_15">
      <g>
       <use xlink:href="#m4e786f39dc" x="57.6" y="130.752353" style="fill: #333333; stroke: #333333; stroke-width: 0.8"/>
      </g>
     </g>
     <g id="text_12">
      <!-- 0.0 -->
      <g style="fill: #333333" transform="translate(37.352697 133.917102) scale(0.0833 -0.0833)">
       <use xlink:href="#DejaVuSans-30"/>
       <use xlink:href="#DejaVuSans-2e" transform="translate(63.623047 0)"/>
       <use xlink:href="#DejaVuSans-30" transform="translate(95.410156 0)"/>
      </g>
     </g>
    </g>
    <g id="ytick_5">
     <g id="line2d_16">
      <path d="M 57.6 82.222316 
L 414.72 82.222316 
" clip-path="url(#pc32b888112)" style="fill: none; stroke: #dedede; stroke-width: 0.8; stroke-linecap: square"/>
     </g>
     <g id="line2d_17">
      <g>
       <use xlink:href="#m4e786f39dc" x="57.6" y="82.222316" style="fill: #333333; stroke: #333333; stroke-width: 0.8"/>
      </g>
     </g>
     <g id="text_13">
      <!-- 0.1 -->
      <g style="fill: #333333" transform="translate(37.352697 85.387065) scale(0.0833 -0.0833)">
       <use xlink:href="#DejaVuSans-30"/>
       <use xlink:href="#DejaVuSans-2e" transform="translate(63.623047 0)"/>
       <use xlink:href="#DejaVuSans-31" transform="translate(95.410156 0)"/>
      </g>
     </g>
    </g>
   </g>
   <g id="line2d_18">
    <path d="M 73.832727 105.052002 
L 74.984907 107.093762 
L 76.025586 89.167426 
L 78.292778 164.16572 
L 79.444958 143.541006 
L 80.559971 138.447034 
L 81.712151 148.12088 
L 82.864331 178.967709 
L 83.979343 131.939276 
L 85.131523 113.264993 
L 86.246536 114.165848 
L 87.398716 116.55362 
L 88.550896 161.398873 
L 89.591574 118.964868 
L 90.743754 124.113157 
L 91.858767 135.969769 
L 93.010947 267.92349 
L 94.125959 118.93796 
L 95.278139 131.426548 
L 96.430319 171.930853 
L 98.697512 129.134315 
L 99.812524 121.008583 
L 100.964704 82.776715 
L 102.116884 116.993889 
L 103.157563 119.207519 
L 104.309742 124.064627 
L 105.424755 146.355197 
L 106.576935 135.2909 
L 107.691948 140.097056 
L 109.996307 189.256076 
L 111.11132 196.969526 
L 112.2635 150.924301 
L 113.378513 156.04727 
L 114.530693 98.840157 
L 115.682872 92.437691 
L 116.760718 125.128183 
L 117.912898 125.666118 
L 119.027911 160.283318 
L 120.180091 124.954002 
L 121.295103 154.704597 
L 122.447283 148.654711 
L 123.599463 152.664429 
L 124.714476 168.239744 
L 125.866656 137.171499 
L 126.981668 141.536789 
L 128.133848 97.578376 
L 129.286028 107.530532 
L 130.326707 101.979356 
L 131.478886 144.059002 
L 132.593899 295.488 
L 133.746079 267.92349 
L 134.861092 135.874942 
L 136.013272 160.44751 
L 137.165451 200.757695 
L 138.280464 203.957851 
L 139.432644 215.42072 
L 140.547657 152.116337 
L 141.699837 56.327845 
L 142.852016 95.640673 
L 143.892695 75.530486 
L 145.044875 105.865863 
L 146.159888 114.131253 
L 147.312067 141.696864 
L 148.42708 113.211415 
L 150.73144 191.731108 
L 151.846453 191.291511 
L 154.113645 199.239003 
L 155.265825 148.583445 
L 156.418005 114.373267 
L 157.458683 133.087109 
L 158.610863 141.972211 
L 159.725876 138.978631 
L 160.878056 239.679009 
L 161.993069 248.852868 
L 163.145248 264.592969 
L 164.297428 188.770776 
L 165.412441 180.614903 
L 166.564621 161.94062 
L 167.679634 225.154042 
L 168.831813 155.08647 
L 169.983993 159.651792 
L 171.061839 156.769767 
L 172.214019 164.684268 
L 173.329032 157.711226 
L 174.481211 120.974539 
L 175.596224 110.154023 
L 176.748404 117.110187 
L 177.900584 137.911298 
L 179.015597 133.443708 
L 180.167776 151.3908 
L 181.282789 177.594606 
L 182.434969 132.908243 
L 183.587149 139.754477 
L 184.627827 144.928438 
L 185.780007 116.979242 
L 186.89502 105.541436 
L 188.0472 78.753407 
L 189.162213 80.0654 
L 190.314392 207.181935 
L 191.466572 110.734477 
L 192.581585 117.768506 
L 193.733765 114.866484 
L 194.848778 155.36785 
L 196.000957 102.77109 
L 197.153137 106.414341 
L 198.193816 129.544416 
L 199.345996 111.786528 
L 200.461008 128.253493 
L 201.613188 103.649316 
L 202.728201 232.740896 
L 203.880381 133.173629 
L 205.032561 161.642486 
L 206.147574 139.461432 
L 207.299753 133.890259 
L 208.414766 143.575051 
L 209.566946 105.585832 
L 210.719126 122.138073 
L 211.759804 98.824903 
L 212.911984 117.318952 
L 214.026997 112.675351 
L 216.29419 82.297782 
L 217.446369 165.979934 
L 218.598549 144.365792 
L 219.713562 136.20992 
L 220.865742 153.884634 
L 221.980755 181.282889 
L 223.132934 176.876456 
L 225.36296 121.63402 
L 226.51514 118.629263 
L 227.630152 133.931508 
L 228.782332 99.718383 
L 229.897345 97.633273 
L 231.049525 125.991184 
L 232.201705 124.128767 
L 233.316717 118.350866 
L 234.468897 118.244785 
L 235.58391 211.225922 
L 236.73609 145.914293 
L 237.88827 178.335856 
L 238.928948 163.661032 
L 240.081128 152.406169 
L 242.348321 91.128566 
L 243.463334 83.365443 
L 244.615513 119.633749 
L 245.767693 122.527276 
L 246.882706 109.66399 
L 248.034886 109.57671 
L 249.149899 162.501765 
L 250.302078 109.322645 
L 251.454258 124.370455 
L 252.494937 141.725456 
L 253.647117 128.48086 
L 254.762129 99.329591 
L 255.914309 90.449146 
L 257.029322 86.568425 
L 258.181502 102.259996 
L 259.333682 107.288844 
L 260.448694 108.741919 
L 261.600874 97.104491 
L 262.715887 114.359968 
L 263.868067 143.342201 
L 265.020247 140.433897 
L 266.060925 155.750636 
L 267.213105 134.304465 
L 268.328118 177.705601 
L 269.480298 107.871429 
L 270.59531 224.49079 
L 271.74749 105.026208 
L 274.014683 140.334973 
L 275.166863 124.912202 
L 276.281875 114.554089 
L 277.434055 125.628737 
L 278.586235 117.43066 
L 279.664081 161.04041 
L 280.816261 150.464967 
L 281.931273 148.781699 
L 283.083453 98.990432 
L 284.198466 248.852868 
L 285.350646 80.712659 
L 286.502826 108.502095 
L 287.617838 74.382653 
L 288.770018 91.456205 
L 289.885031 148.525114 
L 291.037211 150.864356 
L 292.189391 153.585537 
L 293.230069 124.642883 
L 294.382249 121.541065 
L 295.497262 88.410333 
L 296.649442 100.834573 
L 297.764454 240.263051 
L 298.916634 142.442866 
L 300.068814 140.192209 
L 301.183827 127.280393 
L 302.336007 107.441388 
L 303.451019 83.931635 
L 304.603199 69.479485 
L 305.755379 124.079275 
L 306.796058 116.053066 
L 307.948237 117.949842 
L 309.06325 90.254474 
L 310.21543 172.901678 
L 311.330443 108.212821 
L 312.482623 92.990759 
L 313.634803 125.196428 
L 314.749815 138.927602 
L 315.901995 97.541261 
L 317.017008 155.80462 
L 318.169188 95.151874 
L 319.321368 161.350343 
L 320.362046 148.859371 
L 321.514226 148.863476 
L 323.781419 94.865379 
L 324.896431 58.906304 
L 326.048611 239.74559 
L 327.200791 86.954759 
L 328.315804 80.691558 
L 329.467984 126.804873 
L 330.582996 120.862993 
L 331.735176 77.486941 
L 332.887356 108.307013 
L 333.965202 128.864996 
L 335.117381 139.011878 
L 336.232394 139.318342 
L 337.384574 89.769725 
L 338.499587 248.852868 
L 339.651767 102.017345 
L 340.803947 118.499283 
L 341.918959 97.28883 
L 343.071139 66.900006 
L 344.186152 150.806026 
L 345.338332 115.53449 
L 346.490512 136.454434 
L 347.53119 146.481399 
L 348.68337 124.355807 
L 349.798383 129.272624 
L 350.950563 88.750594 
L 352.065575 81.958072 
L 353.217755 111.043932 
L 354.369935 131.699453 
L 355.484948 130.240725 
L 356.637128 155.486125 
L 358.90432 164.015996 
L 360.0565 174.744633 
L 361.097179 172.493499 
L 362.249358 160.607745 
L 363.364371 134.416808 
L 364.516551 84.382891 
L 365.631564 221.384867 
L 366.783744 57.127061 
L 367.935923 56.526426 
L 369.050936 100.200632 
L 370.203116 105.694307 
L 371.318129 78.981572 
L 372.470309 145.234872 
L 374.663167 159.827159 
L 375.815347 125.569058 
L 376.93036 99.911952 
L 378.082539 118.548037 
L 379.197552 238.27332 
L 380.349732 58.097662 
L 381.501912 78.801713 
L 382.616925 67.248737 
L 383.769104 78.371896 
L 384.884117 79.660992 
L 386.036297 67.586813 
L 387.188477 91.22444 
L 388.266323 100.232274 
L 389.418502 87.521509 
L 390.533515 112.918002 
L 392.800708 53.568 
L 395.105067 117.237502 
L 396.22008 79.284187 
L 397.37226 64.958805 
L 398.487273 151.533977 
L 398.487273 151.533977 
" clip-path="url(#pc32b888112)" style="fill: none; stroke: #000000; stroke-width: 2; stroke-linecap: square"/>
   </g>
   <g id="legend_1">
    <g id="line2d_19">
     <path d="M 66.6 54.570438 
L 76.6 54.570438 
L 86.6 54.570438 
" style="fill: none; stroke: #000000; stroke-width: 2; stroke-linecap: square"/>
    </g>
    <g id="text_14">
     <!-- NDVI -->
     <g transform="translate(94.6 58.070438) scale(0.1 -0.1)">
      <defs>
       <path id="DejaVuSans-4e" d="M 628 4666 
L 1478 4666 
L 3547 763 
L 3547 4666 
L 4159 4666 
L 4159 0 
L 3309 0 
L 1241 3903 
L 1241 0 
L 628 0 
L 628 4666 
z
" transform="scale(0.015625)"/>
       <path id="DejaVuSans-44" d="M 1259 4147 
L 1259 519 
L 2022 519 
Q 2988 519 3436 956 
Q 3884 1394 3884 2338 
Q 3884 3275 3436 3711 
Q 2988 4147 2022 4147 
L 1259 4147 
z
M 628 4666 
L 1925 4666 
Q 3281 4666 3915 4102 
Q 4550 3538 4550 2338 
Q 4550 1131 3912 565 
Q 3275 0 1925 0 
L 628 0 
L 628 4666 
z
" transform="scale(0.015625)"/>
       <path id="DejaVuSans-56" d="M 1831 0 
L 50 4666 
L 709 4666 
L 2188 738 
L 3669 4666 
L 4325 4666 
L 2547 0 
L 1831 0 
z
" transform="scale(0.015625)"/>
       <path id="DejaVuSans-49" d="M 628 4666 
L 1259 4666 
L 1259 0 
L 628 0 
L 628 4666 
z
" transform="scale(0.015625)"/>
      </defs>
      <use xlink:href="#DejaVuSans-4e"/>
      <use xlink:href="#DejaVuSans-44" transform="translate(74.804688 0)"/>
      <use xlink:href="#DejaVuSans-56" transform="translate(150.056641 0)"/>
      <use xlink:href="#DejaVuSans-49" transform="translate(218.464844 0)"/>
     </g>
    </g>
   </g>
  </g>
 </g>
 <defs>
  <clipPath id="pc32b888112">
   <rect x="57.6" y="41.472" width="357.12" height="266.112"/>
  </clipPath>
 </defs>
</svg>
