<?xml version="1.0" encoding="utf-8" standalone="no"?>
<!DOCTYPE svg PUBLIC "-//W3C//DTD SVG 1.1//EN"
  "http://www.w3.org/Graphics/SVG/1.1/DTD/svg11.dtd">
<svg xmlns:xlink="http://www.w3.org/1999/xlink" width="460.8pt" height="345.6pt" viewBox="0 0 460.8 345.6" xmlns="http://www.w3.org/2000/svg" version="1.1">
 <metadata>
  <rdf:RDF xmlns:dc="http://purl.org/dc/elements/1.1/" xmlns:cc="http://creativecommons.org/ns#" xmlns:rdf="http://www.w3.org/1999/02/22-rdf-syntax-ns#">
   <cc:Work>
    <dc:type rdf:resource="http://purl.org/dc/dcmitype/StillImage"/>
    <dc:date>2025-05-27T13:56:17.099133</dc:date>
    <dc:format>image/svg+xml</dc:format>
    <dc:creator>
     <cc:Agent>
      <dc:title>Matplotlib v3.10.3, https://matplotlib.org/</dc:title>
     </cc:Agent>
    </dc:creator>
   </cc:Work>
  </rdf:RDF>
 </metadata>
 <defs>
  <style type="text/css">*{stroke-linejoin: round; stroke-linecap: butt}</style>
 </defs>
 <g id="figure_1">
  <g id="patch_1">
   <path d="M 0 345.6 
L 460.8 345.6 
L 460.8 0 
L 0 0 
z
" style="fill: #ffffff"/>
  </g>
  <g id="axes_1">
   <g id="patch_2">
    <path d="M 57.6 307.584 
L 414.72 307.584 
L 414.72 41.472 
L 57.6 41.472 
z
" style="fill: #ffffff"/>
   </g>
   <g id="matplotlib.axis_1">
    <g id="xtick_1">
     <g id="line2d_1">
      <path d="M 59.687065 307.584 
L 59.687065 41.472 
" clip-path="url(#p4a1a1391fb)" style="fill: none; stroke: #dedede; stroke-width: 0.8; stroke-linecap: square"/>
     </g>
     <g id="text_1">
      <!-- 2000 -->
      <g style="fill: #333333" transform="translate(49.08714 320.913498) scale(0.0833 -0.0833)">
       <defs>
        <path id="DejaVuSans-32" d="M 1228 531 
L 3431 531 
L 3431 0 
L 469 0 
L 469 531 
Q 828 903 1448 1529 
Q 2069 2156 2228 2338 
Q 2531 2678 2651 2914 
Q 2772 3150 2772 3378 
Q 2772 3750 2511 3984 
Q 2250 4219 1831 4219 
Q 1534 4219 1204 4116 
Q 875 4013 500 3803 
L 500 4441 
Q 881 4594 1212 4672 
Q 1544 4750 1819 4750 
Q 2544 4750 2975 4387 
Q 3406 4025 3406 3419 
Q 3406 3131 3298 2873 
Q 3191 2616 2906 2266 
Q 2828 2175 2409 1742 
Q 1991 1309 1228 531 
z
" transform="scale(0.015625)"/>
        <path id="DejaVuSans-30" d="M 2034 4250 
Q 1547 4250 1301 3770 
Q 1056 3291 1056 2328 
Q 1056 1369 1301 889 
Q 1547 409 2034 409 
Q 2525 409 2770 889 
Q 3016 1369 3016 2328 
Q 3016 3291 2770 3770 
Q 2525 4250 2034 4250 
z
M 2034 4750 
Q 2819 4750 3233 4129 
Q 3647 3509 3647 2328 
Q 3647 1150 3233 529 
Q 2819 -91 2034 -91 
Q 1250 -91 836 529 
Q 422 1150 422 2328 
Q 422 3509 836 4129 
Q 1250 4750 2034 4750 
z
" transform="scale(0.015625)"/>
       </defs>
       <use xlink:href="#DejaVuSans-32"/>
       <use xlink:href="#DejaVuSans-30" transform="translate(63.623047 0)"/>
       <use xlink:href="#DejaVuSans-30" transform="translate(127.246094 0)"/>
       <use xlink:href="#DejaVuSans-30" transform="translate(190.869141 0)"/>
      </g>
     </g>
    </g>
    <g id="xtick_2">
     <g id="line2d_2">
      <path d="M 116.153766 307.584 
L 116.153766 41.472 
" clip-path="url(#p4a1a1391fb)" style="fill: none; stroke: #dedede; stroke-width: 0.8; stroke-linecap: square"/>
     </g>
     <g id="text_2">
      <!-- 2004 -->
      <g style="fill: #333333" transform="translate(105.553841 320.913498) scale(0.0833 -0.0833)">
       <defs>
        <path id="DejaVuSans-34" d="M 2419 4116 
L 825 1625 
L 2419 1625 
L 2419 4116 
z
M 2253 4666 
L 3047 4666 
L 3047 1625 
L 3713 1625 
L 3713 1100 
L 3047 1100 
L 3047 0 
L 2419 0 
L 2419 1100 
L 313 1100 
L 313 1709 
L 2253 4666 
z
" transform="scale(0.015625)"/>
       </defs>
       <use xlink:href="#DejaVuSans-32"/>
       <use xlink:href="#DejaVuSans-30" transform="translate(63.623047 0)"/>
       <use xlink:href="#DejaVuSans-30" transform="translate(127.246094 0)"/>
       <use xlink:href="#DejaVuSans-34" transform="translate(190.869141 0)"/>
      </g>
     </g>
    </g>
    <g id="xtick_3">
     <g id="line2d_3">
      <path d="M 172.620468 307.584 
L 172.620468 41.472 
" clip-path="url(#p4a1a1391fb)" style="fill: none; stroke: #dedede; stroke-width: 0.8; stroke-linecap: square"/>
     </g>
     <g id="text_3">
      <!-- 2008 -->
      <g style="fill: #333333" transform="translate(162.020543 320.913498) scale(0.0833 -0.0833)">
       <defs>
        <path id="DejaVuSans-38" d="M 2034 2216 
Q 1584 2216 1326 1975 
Q 1069 1734 1069 1313 
Q 1069 891 1326 650 
Q 1584 409 2034 409 
Q 2484 409 2743 651 
Q 3003 894 3003 1313 
Q 3003 1734 2745 1975 
Q 2488 2216 2034 2216 
z
M 1403 2484 
Q 997 2584 770 2862 
Q 544 3141 544 3541 
Q 544 4100 942 4425 
Q 1341 4750 2034 4750 
Q 2731 4750 3128 4425 
Q 3525 4100 3525 3541 
Q 3525 3141 3298 2862 
Q 3072 2584 2669 2484 
Q 3125 2378 3379 2068 
Q 3634 1759 3634 1313 
Q 3634 634 3220 271 
Q 2806 -91 2034 -91 
Q 1263 -91 848 271 
Q 434 634 434 1313 
Q 434 1759 690 2068 
Q 947 2378 1403 2484 
z
M 1172 3481 
Q 1172 3119 1398 2916 
Q 1625 2713 2034 2713 
Q 2441 2713 2670 2916 
Q 2900 3119 2900 3481 
Q 2900 3844 2670 4047 
Q 2441 4250 2034 4250 
Q 1625 4250 1398 4047 
Q 1172 3844 1172 3481 
z
" transform="scale(0.015625)"/>
       </defs>
       <use xlink:href="#DejaVuSans-32"/>
       <use xlink:href="#DejaVuSans-30" transform="translate(63.623047 0)"/>
       <use xlink:href="#DejaVuSans-30" transform="translate(127.246094 0)"/>
       <use xlink:href="#DejaVuSans-38" transform="translate(190.869141 0)"/>
      </g>
     </g>
    </g>
    <g id="xtick_4">
     <g id="line2d_4">
      <path d="M 229.087169 307.584 
L 229.087169 41.472 
" clip-path="url(#p4a1a1391fb)" style="fill: none; stroke: #dedede; stroke-width: 0.8; stroke-linecap: square"/>
     </g>
     <g id="text_4">
      <!-- 2012 -->
      <g style="fill: #333333" transform="translate(218.487244 320.913498) scale(0.0833 -0.0833)">
       <defs>
        <path id="DejaVuSans-31" d="M 794 531 
L 1825 531 
L 1825 4091 
L 703 3866 
L 703 4441 
L 1819 4666 
L 2450 4666 
L 2450 531 
L 3481 531 
L 3481 0 
L 794 0 
L 794 531 
z
" transform="scale(0.015625)"/>
       </defs>
       <use xlink:href="#DejaVuSans-32"/>
       <use xlink:href="#DejaVuSans-30" transform="translate(63.623047 0)"/>
       <use xlink:href="#DejaVuSans-31" transform="translate(127.246094 0)"/>
       <use xlink:href="#DejaVuSans-32" transform="translate(190.869141 0)"/>
      </g>
     </g>
    </g>
    <g id="xtick_5">
     <g id="line2d_5">
      <path d="M 285.55387 307.584 
L 285.55387 41.472 
" clip-path="url(#p4a1a1391fb)" style="fill: none; stroke: #dedede; stroke-width: 0.8; stroke-linecap: square"/>
     </g>
     <g id="text_5">
      <!-- 2016 -->
      <g style="fill: #333333" transform="translate(274.953945 320.913498) scale(0.0833 -0.0833)">
       <defs>
        <path id="DejaVuSans-36" d="M 2113 2584 
Q 1688 2584 1439 2293 
Q 1191 2003 1191 1497 
Q 1191 994 1439 701 
Q 1688 409 2113 409 
Q 2538 409 2786 701 
Q 3034 994 3034 1497 
Q 3034 2003 2786 2293 
Q 2538 2584 2113 2584 
z
M 3366 4563 
L 3366 3988 
Q 3128 4100 2886 4159 
Q 2644 4219 2406 4219 
Q 1781 4219 1451 3797 
Q 1122 3375 1075 2522 
Q 1259 2794 1537 2939 
Q 1816 3084 2150 3084 
Q 2853 3084 3261 2657 
Q 3669 2231 3669 1497 
Q 3669 778 3244 343 
Q 2819 -91 2113 -91 
Q 1303 -91 875 529 
Q 447 1150 447 2328 
Q 447 3434 972 4092 
Q 1497 4750 2381 4750 
Q 2619 4750 2861 4703 
Q 3103 4656 3366 4563 
z
" transform="scale(0.015625)"/>
       </defs>
       <use xlink:href="#DejaVuSans-32"/>
       <use xlink:href="#DejaVuSans-30" transform="translate(63.623047 0)"/>
       <use xlink:href="#DejaVuSans-31" transform="translate(127.246094 0)"/>
       <use xlink:href="#DejaVuSans-36" transform="translate(190.869141 0)"/>
      </g>
     </g>
    </g>
    <g id="xtick_6">
     <g id="line2d_6">
      <path d="M 342.020571 307.584 
L 342.020571 41.472 
" clip-path="url(#p4a1a1391fb)" style="fill: none; stroke: #dedede; stroke-width: 0.8; stroke-linecap: square"/>
     </g>
     <g id="text_6">
      <!-- 2020 -->
      <g style="fill: #333333" transform="translate(331.420646 320.913498) scale(0.0833 -0.0833)">
       <use xlink:href="#DejaVuSans-32"/>
       <use xlink:href="#DejaVuSans-30" transform="translate(63.623047 0)"/>
       <use xlink:href="#DejaVuSans-32" transform="translate(127.246094 0)"/>
       <use xlink:href="#DejaVuSans-30" transform="translate(190.869141 0)"/>
      </g>
     </g>
    </g>
    <g id="xtick_7">
     <g id="line2d_7">
      <path d="M 398.487273 307.584 
L 398.487273 41.472 
" clip-path="url(#p4a1a1391fb)" style="fill: none; stroke: #dedede; stroke-width: 0.8; stroke-linecap: square"/>
     </g>
     <g id="text_7">
      <!-- 2024 -->
      <g style="fill: #333333" transform="translate(387.887348 320.913498) scale(0.0833 -0.0833)">
       <use xlink:href="#DejaVuSans-32"/>
       <use xlink:href="#DejaVuSans-30" transform="translate(63.623047 0)"/>
       <use xlink:href="#DejaVuSans-32" transform="translate(127.246094 0)"/>
       <use xlink:href="#DejaVuSans-34" transform="translate(190.869141 0)"/>
      </g>
     </g>
    </g>
    <g id="text_8">
     <!-- time -->
     <g style="fill: #333333" transform="translate(223.454531 334.244316) scale(0.1 -0.1)">
      <defs>
       <path id="DejaVuSans-Bold-74" d="M 1759 4494 
L 1759 3500 
L 2913 3500 
L 2913 2700 
L 1759 2700 
L 1759 1216 
Q 1759 972 1856 886 
Q 1953 800 2241 800 
L 2816 800 
L 2816 0 
L 1856 0 
Q 1194 0 917 276 
Q 641 553 641 1216 
L 641 2700 
L 84 2700 
L 84 3500 
L 641 3500 
L 641 4494 
L 1759 4494 
z
" transform="scale(0.015625)"/>
       <path id="DejaVuSans-Bold-69" d="M 538 3500 
L 1656 3500 
L 1656 0 
L 538 0 
L 538 3500 
z
M 538 4863 
L 1656 4863 
L 1656 3950 
L 538 3950 
L 538 4863 
z
" transform="scale(0.015625)"/>
       <path id="DejaVuSans-Bold-6d" d="M 3781 2919 
Q 3994 3244 4286 3414 
Q 4578 3584 4928 3584 
Q 5531 3584 5847 3212 
Q 6163 2841 6163 2131 
L 6163 0 
L 5038 0 
L 5038 1825 
Q 5041 1866 5042 1909 
Q 5044 1953 5044 2034 
Q 5044 2406 4934 2573 
Q 4825 2741 4581 2741 
Q 4263 2741 4089 2478 
Q 3916 2216 3909 1719 
L 3909 0 
L 2784 0 
L 2784 1825 
Q 2784 2406 2684 2573 
Q 2584 2741 2328 2741 
Q 2006 2741 1831 2477 
Q 1656 2213 1656 1722 
L 1656 0 
L 531 0 
L 531 3500 
L 1656 3500 
L 1656 2988 
Q 1863 3284 2130 3434 
Q 2397 3584 2719 3584 
Q 3081 3584 3359 3409 
Q 3638 3234 3781 2919 
z
" transform="scale(0.015625)"/>
       <path id="DejaVuSans-Bold-65" d="M 4031 1759 
L 4031 1441 
L 1416 1441 
Q 1456 1047 1700 850 
Q 1944 653 2381 653 
Q 2734 653 3104 758 
Q 3475 863 3866 1075 
L 3866 213 
Q 3469 63 3072 -14 
Q 2675 -91 2278 -91 
Q 1328 -91 801 392 
Q 275 875 275 1747 
Q 275 2603 792 3093 
Q 1309 3584 2216 3584 
Q 3041 3584 3536 3087 
Q 4031 2591 4031 1759 
z
M 2881 2131 
Q 2881 2450 2695 2645 
Q 2509 2841 2209 2841 
Q 1884 2841 1681 2658 
Q 1478 2475 1428 2131 
L 2881 2131 
z
" transform="scale(0.015625)"/>
      </defs>
      <use xlink:href="#DejaVuSans-Bold-74"/>
      <use xlink:href="#DejaVuSans-Bold-69" transform="translate(47.802734 0)"/>
      <use xlink:href="#DejaVuSans-Bold-6d" transform="translate(82.080078 0)"/>
      <use xlink:href="#DejaVuSans-Bold-65" transform="translate(186.279297 0)"/>
     </g>
    </g>
   </g>
   <g id="matplotlib.axis_2">
    <g id="ytick_1">
     <g id="line2d_8">
      <path d="M 57.6 260.879542 
L 414.72 260.879542 
" clip-path="url(#p4a1a1391fb)" style="fill: none; stroke: #dedede; stroke-width: 0.8; stroke-linecap: square"/>
     </g>
     <g id="line2d_9">
      <defs>
       <path id="mc66ea63565" d="M 0 0 
L -3.5 0 
" style="stroke: #333333; stroke-width: 0.8"/>
      </defs>
      <g>
       <use xlink:href="#mc66ea63565" x="57.6" y="260.879542" style="fill: #333333; stroke: #333333; stroke-width: 0.8"/>
      </g>
     </g>
     <g id="text_9">
      <!-- −0.2 -->
      <g style="fill: #333333" transform="translate(30.372417 264.044291) scale(0.0833 -0.0833)">
       <defs>
        <path id="DejaVuSans-2212" d="M 678 2272 
L 4684 2272 
L 4684 1741 
L 678 1741 
L 678 2272 
z
" transform="scale(0.015625)"/>
        <path id="DejaVuSans-2e" d="M 684 794 
L 1344 794 
L 1344 0 
L 684 0 
L 684 794 
z
" transform="scale(0.015625)"/>
       </defs>
       <use xlink:href="#DejaVuSans-2212"/>
       <use xlink:href="#DejaVuSans-30" transform="translate(83.789062 0)"/>
       <use xlink:href="#DejaVuSans-2e" transform="translate(147.412109 0)"/>
       <use xlink:href="#DejaVuSans-32" transform="translate(179.199219 0)"/>
      </g>
     </g>
    </g>
    <g id="ytick_2">
     <g id="line2d_10">
      <path d="M 57.6 205.122025 
L 414.72 205.122025 
" clip-path="url(#p4a1a1391fb)" style="fill: none; stroke: #dedede; stroke-width: 0.8; stroke-linecap: square"/>
     </g>
     <g id="line2d_11">
      <g>
       <use xlink:href="#mc66ea63565" x="57.6" y="205.122025" style="fill: #333333; stroke: #333333; stroke-width: 0.8"/>
      </g>
     </g>
     <g id="text_10">
      <!-- −0.1 -->
      <g style="fill: #333333" transform="translate(30.372417 208.286774) scale(0.0833 -0.0833)">
       <use xlink:href="#DejaVuSans-2212"/>
       <use xlink:href="#DejaVuSans-30" transform="translate(83.789062 0)"/>
       <use xlink:href="#DejaVuSans-2e" transform="translate(147.412109 0)"/>
       <use xlink:href="#DejaVuSans-31" transform="translate(179.199219 0)"/>
      </g>
     </g>
    </g>
    <g id="ytick_3">
     <g id="line2d_12">
      <path d="M 57.6 149.364509 
L 414.72 149.364509 
" clip-path="url(#p4a1a1391fb)" style="fill: none; stroke: #dedede; stroke-width: 0.8; stroke-linecap: square"/>
     </g>
     <g id="line2d_13">
      <g>
       <use xlink:href="#mc66ea63565" x="57.6" y="149.364509" style="fill: #333333; stroke: #333333; stroke-width: 0.8"/>
      </g>
     </g>
     <g id="text_11">
      <!-- 0.0 -->
      <g style="fill: #333333" transform="translate(37.352697 152.529258) scale(0.0833 -0.0833)">
       <use xlink:href="#DejaVuSans-30"/>
       <use xlink:href="#DejaVuSans-2e" transform="translate(63.623047 0)"/>
       <use xlink:href="#DejaVuSans-30" transform="translate(95.410156 0)"/>
      </g>
     </g>
    </g>
    <g id="ytick_4">
     <g id="line2d_14">
      <path d="M 57.6 93.606992 
L 414.72 93.606992 
" clip-path="url(#p4a1a1391fb)" style="fill: none; stroke: #dedede; stroke-width: 0.8; stroke-linecap: square"/>
     </g>
     <g id="line2d_15">
      <g>
       <use xlink:href="#mc66ea63565" x="57.6" y="93.606992" style="fill: #333333; stroke: #333333; stroke-width: 0.8"/>
      </g>
     </g>
     <g id="text_12">
      <!-- 0.1 -->
      <g style="fill: #333333" transform="translate(37.352697 96.771741) scale(0.0833 -0.0833)">
       <use xlink:href="#DejaVuSans-30"/>
       <use xlink:href="#DejaVuSans-2e" transform="translate(63.623047 0)"/>
       <use xlink:href="#DejaVuSans-31" transform="translate(95.410156 0)"/>
      </g>
     </g>
    </g>
   </g>
   <g id="line2d_16">
    <path d="M 73.832727 104.382277 
L 75.030857 138.7035 
L 76.113039 118.81405 
L 77.311169 158.687481 
L 78.470649 181.217019 
L 79.668779 128.616319 
L 80.82826 147.897854 
L 82.02639 116.614642 
L 83.224519 166.567055 
L 84.384 113.228543 
L 85.58213 67.411379 
L 86.74161 86.794134 
L 87.93974 118.767717 
L 89.13787 67.612666 
L 90.220052 61.718354 
L 91.418182 99.361484 
L 92.577662 141.46191 
L 93.775792 132.909648 
L 94.935273 141.653012 
L 96.133403 144.93946 
L 97.331532 115.827715 
L 98.491013 134.249126 
L 99.689143 93.784684 
L 100.848623 96.272912 
L 102.046753 99.642889 
L 103.244883 85.566587 
L 104.327065 133.86858 
L 105.525195 105.04875 
L 106.684675 179.600051 
L 107.882805 132.40783 
L 109.042286 134.73908 
L 110.240416 149.009759 
L 111.438545 153.854341 
L 112.598026 125.773984 
L 113.796156 157.738556 
L 114.955636 97.109275 
L 116.153766 103.936217 
L 117.351896 90.584763 
L 118.472727 101.97528 
L 119.670857 78.396657 
L 120.830338 98.695895 
L 122.028468 123.542385 
L 123.187948 242.016542 
L 124.386078 113.994038 
L 125.584208 127.759824 
L 126.743688 127.948527 
L 127.941818 69.835679 
L 129.101299 97.109275 
L 130.299429 70.760495 
L 131.497558 95.937485 
L 132.57974 164.256426 
L 133.77787 171.846255 
L 134.937351 114.698302 
L 136.135481 180.303537 
L 137.294961 152.804515 
L 138.493091 148.507941 
L 139.691221 161.102818 
L 140.850701 182.590893 
L 142.048831 98.914376 
L 143.208312 95.715337 
L 144.406442 56.152026 
L 145.604571 88.85628 
L 146.686753 94.224986 
L 147.884883 82.020896 
L 149.044364 131.091012 
L 150.242494 96.94605 
L 151.401974 245.473508 
L 152.600104 130.275233 
L 153.798234 138.130722 
L 154.957714 139.936393 
L 156.155844 153.779772 
L 157.315325 163.851022 
L 158.513455 120.217412 
L 159.711584 82.221136 
L 160.793766 123.497682 
L 161.991896 105.996628 
L 163.151377 127.857076 
L 164.349506 173.445362 
L 165.508987 157.097844 
L 166.707117 161.5552 
L 167.905247 209.667615 
L 169.064727 206.45511 
L 170.262857 183.331256 
L 171.422338 206.394007 
L 172.620468 163.317972 
L 173.818597 197.583437 
L 174.939429 147.306141 
L 176.137558 119.489947 
L 177.297039 154.564926 
L 179.654649 123.754849 
L 182.050909 172.588867 
L 183.21039 163.744853 
L 184.408519 164.567699 
L 185.568 153.926184 
L 186.76613 134.770124 
L 187.96426 153.590757 
L 189.046442 153.495226 
L 190.244571 164.430505 
L 192.602182 132.240558 
L 193.761662 142.043315 
L 194.959792 128.937053 
L 196.157922 168.853113 
L 197.317403 151.366684 
L 198.515532 158.797949 
L 199.675013 122.980762 
L 200.873143 143.189509 
L 202.071273 128.667147 
L 204.351584 106.275416 
L 206.709195 154.041746 
L 207.868675 163.454201 
L 209.066805 177.50185 
L 210.264935 153.296766 
L 211.424416 163.35455 
L 212.622545 114.861026 
L 213.782026 123.426822 
L 214.980156 142.799206 
L 216.178286 114.22595 
L 217.260468 184.83095 
L 218.458597 172.125043 
L 219.618078 150.717658 
L 220.816208 213.423502 
L 221.975688 186.035995 
L 223.173818 192.612137 
L 224.371948 219.871241 
L 225.531429 198.091483 
L 226.729558 178.536109 
L 227.889039 244.253361 
L 229.087169 216.956703 
L 230.285299 205.779792 
L 231.40613 183.93883 
L 232.60426 178.425642 
L 233.76374 200.564878 
L 234.96187 143.949636 
L 236.121351 172.988736 
L 237.319481 178.617 
L 238.51761 175.4325 
L 239.677091 196.58603 
L 240.875221 166.073152 
L 242.034701 189.834025 
L 243.232831 190.248853 
L 244.430961 252.281561 
L 245.513143 236.964228 
L 246.711273 200.840164 
L 247.870753 172.964907 
L 249.068883 149.971448 
L 250.228364 154.644513 
L 251.426494 167.632769 
L 252.624623 172.254322 
L 253.784104 147.352143 
L 254.982234 163.03552 
L 256.141714 217.09945 
L 257.339844 231.565173 
L 258.537974 232.98946 
L 259.620156 234.67817 
L 260.818286 212.326212 
L 261.977766 153.617049 
L 263.175896 121.869659 
L 264.335377 99.890632 
L 265.533506 117.060702 
L 266.731636 117.834986 
L 267.891117 112.224907 
L 269.089247 111.571332 
L 270.248727 160.115268 
L 271.446857 172.294933 
L 272.644987 191.394353 
L 273.727169 213.657586 
L 274.925299 194.595322 
L 276.084779 211.660623 
L 277.282909 163.576282 
L 278.44239 143.883313 
L 279.640519 169.361252 
L 280.838649 150.341618 
L 281.99813 177.684232 
L 283.19626 213.273042 
L 284.35574 160.338298 
L 285.55387 187.237947 
L 286.752 180.075577 
L 287.872831 210.479408 
L 289.070961 183.499576 
L 290.230442 128.247379 
L 291.428571 117.966633 
L 292.588052 60.024008 
L 293.786182 135.349167 
L 294.984312 97.260462 
L 296.143792 53.568 
L 297.341922 106.41261 
L 298.501403 88.801405 
L 299.699532 155.567678 
L 300.897662 149.576216 
L 301.979844 134.872215 
L 303.177974 120.77237 
L 304.337455 127.355258 
L 305.535584 120.810267 
L 306.695065 122.751214 
L 307.893195 139.084921 
L 309.091325 149.672528 
L 310.250805 194.746032 
L 311.448935 125.176166 
L 312.608416 198.141895 
L 313.806545 205.080352 
L 315.004675 164.909533 
L 316.086857 158.903705 
L 317.284987 167.274139 
L 318.444468 135.440098 
L 319.642597 129.675712 
L 320.802078 279.31832 
L 322.000208 154.920055 
L 323.198338 150.06283 
L 324.357818 161.347279 
L 325.555948 118.206477 
L 326.715429 172.270407 
L 327.913558 172.685235 
L 329.111688 192.453746 
L 331.392 184.558969 
L 332.551481 171.347939 
L 333.74961 150.473265 
L 334.909091 154.086938 
L 336.107221 146.835215 
L 337.305351 155.582824 
L 338.464831 149.080626 
L 339.662961 176.584596 
L 340.822442 144.614679 
L 342.020571 189.077945 
L 344.339532 161.134005 
L 345.537662 180.377155 
L 346.697143 128.581924 
L 347.895273 98.339988 
L 349.054753 295.488 
L 350.252883 141.203706 
L 351.451013 142.256778 
L 352.610494 113.228543 
L 353.808623 161.278006 
L 356.166234 218.239126 
L 357.364364 144.558039 
L 358.446545 146.190991 
L 359.644675 129.693573 
L 360.804156 149.10069 
L 362.002286 119.862389 
L 363.161766 147.396036 
L 364.359896 155.644903 
L 365.558026 150.341618 
L 366.717506 182.758166 
L 367.915636 240.873013 
L 369.075117 211.523699 
L 370.273247 195.043999 
L 371.471377 209.682818 
L 372.553558 156.171586 
L 373.751688 143.744467 
L 374.911169 129.195256 
L 376.109299 101.406651 
L 377.268779 215.810509 
L 378.466909 147.002488 
L 379.665039 122.407102 
L 380.824519 130.513373 
L 382.022649 128.856162 
L 383.18213 127.497121 
L 384.38026 169.953117 
L 385.57839 125.767756 
L 386.660571 162.862488 
L 387.858701 192.309264 
L 389.018182 142.521303 
L 390.216312 224.073187 
L 391.375792 122.305154 
L 392.573922 151.240059 
L 393.772052 185.580368 
L 394.931532 136.86973 
L 396.129662 155.39674 
L 397.289143 132.571055 
L 398.487273 100.256221 
L 398.487273 100.256221 
" clip-path="url(#p4a1a1391fb)" style="fill: none; stroke: #000000; stroke-width: 2; stroke-linecap: square"/>
   </g>
   <g id="line2d_17">
    <path d="M 354.968104 158.659118 
L 356.166234 170.468318 
L 357.364364 170.970093 
L 358.446545 160.893267 
L 359.644675 170.650673 
L 360.804156 158.76727 
L 362.002286 154.239423 
L 363.161766 199.129299 
L 364.359896 163.629538 
L 365.558026 160.220753 
L 366.717506 157.257823 
L 367.915636 159.092278 
L 369.075117 162.139319 
L 370.273247 178.917877 
L 371.471377 162.336301 
L 372.553558 160.707569 
L 373.751688 158.904573 
L 374.911169 159.145794 
L 376.109299 156.785012 
L 377.268779 157.20308 
L 378.466909 157.925933 
L 379.665039 157.556009 
L 380.824519 159.755441 
L 382.022649 165.551183 
L 383.18213 166.742811 
L 384.38026 166.55928 
L 385.57839 168.490194 
L 386.660571 165.866051 
L 387.858701 163.763269 
L 389.018182 161.756726 
L 390.216312 158.33765 
L 391.375792 164.730702 
L 392.573922 162.905604 
L 393.772052 159.601184 
L 394.931532 158.200267 
L 396.129662 157.705552 
L 397.289143 156.256584 
L 398.487273 158.72467 
" clip-path="url(#p4a1a1391fb)" style="fill: none; stroke: #003dfd; stroke-width: 2; stroke-linecap: square"/>
   </g>
   <g id="legend_1">
    <g id="line2d_18">
     <path d="M 309.010625 54.570438 
L 319.010625 54.570438 
L 329.010625 54.570438 
" style="fill: none; stroke: #000000; stroke-width: 2; stroke-linecap: square"/>
    </g>
    <g id="text_13">
     <!-- train -->
     <g transform="translate(337.010625 58.070438) scale(0.1 -0.1)">
      <defs>
       <path id="DejaVuSans-74" d="M 1172 4494 
L 1172 3500 
L 2356 3500 
L 2356 3053 
L 1172 3053 
L 1172 1153 
Q 1172 725 1289 603 
Q 1406 481 1766 481 
L 2356 481 
L 2356 0 
L 1766 0 
Q 1100 0 847 248 
Q 594 497 594 1153 
L 594 3053 
L 172 3053 
L 172 3500 
L 594 3500 
L 594 4494 
L 1172 4494 
z
" transform="scale(0.015625)"/>
       <path id="DejaVuSans-72" d="M 2631 2963 
Q 2534 3019 2420 3045 
Q 2306 3072 2169 3072 
Q 1681 3072 1420 2755 
Q 1159 2438 1159 1844 
L 1159 0 
L 581 0 
L 581 3500 
L 1159 3500 
L 1159 2956 
Q 1341 3275 1631 3429 
Q 1922 3584 2338 3584 
Q 2397 3584 2469 3576 
Q 2541 3569 2628 3553 
L 2631 2963 
z
" transform="scale(0.015625)"/>
       <path id="DejaVuSans-61" d="M 2194 1759 
Q 1497 1759 1228 1600 
Q 959 1441 959 1056 
Q 959 750 1161 570 
Q 1363 391 1709 391 
Q 2188 391 2477 730 
Q 2766 1069 2766 1631 
L 2766 1759 
L 2194 1759 
z
M 3341 1997 
L 3341 0 
L 2766 0 
L 2766 531 
Q 2569 213 2275 61 
Q 1981 -91 1556 -91 
Q 1019 -91 701 211 
Q 384 513 384 1019 
Q 384 1609 779 1909 
Q 1175 2209 1959 2209 
L 2766 2209 
L 2766 2266 
Q 2766 2663 2505 2880 
Q 2244 3097 1772 3097 
Q 1472 3097 1187 3025 
Q 903 2953 641 2809 
L 641 3341 
Q 956 3463 1253 3523 
Q 1550 3584 1831 3584 
Q 2591 3584 2966 3190 
Q 3341 2797 3341 1997 
z
" transform="scale(0.015625)"/>
       <path id="DejaVuSans-69" d="M 603 3500 
L 1178 3500 
L 1178 0 
L 603 0 
L 603 3500 
z
M 603 4863 
L 1178 4863 
L 1178 4134 
L 603 4134 
L 603 4863 
z
" transform="scale(0.015625)"/>
       <path id="DejaVuSans-6e" d="M 3513 2113 
L 3513 0 
L 2938 0 
L 2938 2094 
Q 2938 2591 2744 2837 
Q 2550 3084 2163 3084 
Q 1697 3084 1428 2787 
Q 1159 2491 1159 1978 
L 1159 0 
L 581 0 
L 581 3500 
L 1159 3500 
L 1159 2956 
Q 1366 3272 1645 3428 
Q 1925 3584 2291 3584 
Q 2894 3584 3203 3211 
Q 3513 2838 3513 2113 
z
" transform="scale(0.015625)"/>
      </defs>
      <use xlink:href="#DejaVuSans-74"/>
      <use xlink:href="#DejaVuSans-72" transform="translate(39.208984 0)"/>
      <use xlink:href="#DejaVuSans-61" transform="translate(80.322266 0)"/>
      <use xlink:href="#DejaVuSans-69" transform="translate(141.601562 0)"/>
      <use xlink:href="#DejaVuSans-6e" transform="translate(169.384766 0)"/>
     </g>
    </g>
    <g id="line2d_19">
     <path d="M 309.010625 69.248563 
L 319.010625 69.248563 
L 329.010625 69.248563 
" style="fill: none; stroke: #003dfd; stroke-width: 2; stroke-linecap: square"/>
    </g>
    <g id="text_14">
     <!-- train_forecast -->
     <g transform="translate(337.010625 72.748563) scale(0.1 -0.1)">
      <defs>
       <path id="DejaVuSans-5f" d="M 3263 -1063 
L 3263 -1509 
L -63 -1509 
L -63 -1063 
L 3263 -1063 
z
" transform="scale(0.015625)"/>
       <path id="DejaVuSans-66" d="M 2375 4863 
L 2375 4384 
L 1825 4384 
Q 1516 4384 1395 4259 
Q 1275 4134 1275 3809 
L 1275 3500 
L 2222 3500 
L 2222 3053 
L 1275 3053 
L 1275 0 
L 697 0 
L 697 3053 
L 147 3053 
L 147 3500 
L 697 3500 
L 697 3744 
Q 697 4328 969 4595 
Q 1241 4863 1831 4863 
L 2375 4863 
z
" transform="scale(0.015625)"/>
       <path id="DejaVuSans-6f" d="M 1959 3097 
Q 1497 3097 1228 2736 
Q 959 2375 959 1747 
Q 959 1119 1226 758 
Q 1494 397 1959 397 
Q 2419 397 2687 759 
Q 2956 1122 2956 1747 
Q 2956 2369 2687 2733 
Q 2419 3097 1959 3097 
z
M 1959 3584 
Q 2709 3584 3137 3096 
Q 3566 2609 3566 1747 
Q 3566 888 3137 398 
Q 2709 -91 1959 -91 
Q 1206 -91 779 398 
Q 353 888 353 1747 
Q 353 2609 779 3096 
Q 1206 3584 1959 3584 
z
" transform="scale(0.015625)"/>
       <path id="DejaVuSans-65" d="M 3597 1894 
L 3597 1613 
L 953 1613 
Q 991 1019 1311 708 
Q 1631 397 2203 397 
Q 2534 397 2845 478 
Q 3156 559 3463 722 
L 3463 178 
Q 3153 47 2828 -22 
Q 2503 -91 2169 -91 
Q 1331 -91 842 396 
Q 353 884 353 1716 
Q 353 2575 817 3079 
Q 1281 3584 2069 3584 
Q 2775 3584 3186 3129 
Q 3597 2675 3597 1894 
z
M 3022 2063 
Q 3016 2534 2758 2815 
Q 2500 3097 2075 3097 
Q 1594 3097 1305 2825 
Q 1016 2553 972 2059 
L 3022 2063 
z
" transform="scale(0.015625)"/>
       <path id="DejaVuSans-63" d="M 3122 3366 
L 3122 2828 
Q 2878 2963 2633 3030 
Q 2388 3097 2138 3097 
Q 1578 3097 1268 2742 
Q 959 2388 959 1747 
Q 959 1106 1268 751 
Q 1578 397 2138 397 
Q 2388 397 2633 464 
Q 2878 531 3122 666 
L 3122 134 
Q 2881 22 2623 -34 
Q 2366 -91 2075 -91 
Q 1284 -91 818 406 
Q 353 903 353 1747 
Q 353 2603 823 3093 
Q 1294 3584 2113 3584 
Q 2378 3584 2631 3529 
Q 2884 3475 3122 3366 
z
" transform="scale(0.015625)"/>
       <path id="DejaVuSans-73" d="M 2834 3397 
L 2834 2853 
Q 2591 2978 2328 3040 
Q 2066 3103 1784 3103 
Q 1356 3103 1142 2972 
Q 928 2841 928 2578 
Q 928 2378 1081 2264 
Q 1234 2150 1697 2047 
L 1894 2003 
Q 2506 1872 2764 1633 
Q 3022 1394 3022 966 
Q 3022 478 2636 193 
Q 2250 -91 1575 -91 
Q 1294 -91 989 -36 
Q 684 19 347 128 
L 347 722 
Q 666 556 975 473 
Q 1284 391 1588 391 
Q 1994 391 2212 530 
Q 2431 669 2431 922 
Q 2431 1156 2273 1281 
Q 2116 1406 1581 1522 
L 1381 1569 
Q 847 1681 609 1914 
Q 372 2147 372 2553 
Q 372 3047 722 3315 
Q 1072 3584 1716 3584 
Q 2034 3584 2315 3537 
Q 2597 3491 2834 3397 
z
" transform="scale(0.015625)"/>
      </defs>
      <use xlink:href="#DejaVuSans-74"/>
      <use xlink:href="#DejaVuSans-72" transform="translate(39.208984 0)"/>
      <use xlink:href="#DejaVuSans-61" transform="translate(80.322266 0)"/>
      <use xlink:href="#DejaVuSans-69" transform="translate(141.601562 0)"/>
      <use xlink:href="#DejaVuSans-6e" transform="translate(169.384766 0)"/>
      <use xlink:href="#DejaVuSans-5f" transform="translate(232.763672 0)"/>
      <use xlink:href="#DejaVuSans-66" transform="translate(282.763672 0)"/>
      <use xlink:href="#DejaVuSans-6f" transform="translate(317.96875 0)"/>
      <use xlink:href="#DejaVuSans-72" transform="translate(379.150391 0)"/>
      <use xlink:href="#DejaVuSans-65" transform="translate(418.013672 0)"/>
      <use xlink:href="#DejaVuSans-63" transform="translate(479.537109 0)"/>
      <use xlink:href="#DejaVuSans-61" transform="translate(534.517578 0)"/>
      <use xlink:href="#DejaVuSans-73" transform="translate(595.796875 0)"/>
      <use xlink:href="#DejaVuSans-74" transform="translate(647.896484 0)"/>
     </g>
    </g>
   </g>
  </g>
 </g>
 <defs>
  <clipPath id="p4a1a1391fb">
   <rect x="57.6" y="41.472" width="357.12" height="266.112"/>
  </clipPath>
 </defs>
</svg>
