<?xml version="1.0" encoding="utf-8" standalone="no"?>
<!DOCTYPE svg PUBLIC "-//W3C//DTD SVG 1.1//EN"
  "http://www.w3.org/Graphics/SVG/1.1/DTD/svg11.dtd">
<svg xmlns:xlink="http://www.w3.org/1999/xlink" width="460.8pt" height="345.6pt" viewBox="0 0 460.8 345.6" xmlns="http://www.w3.org/2000/svg" version="1.1">
 <metadata>
  <rdf:RDF xmlns:dc="http://purl.org/dc/elements/1.1/" xmlns:cc="http://creativecommons.org/ns#" xmlns:rdf="http://www.w3.org/1999/02/22-rdf-syntax-ns#">
   <cc:Work>
    <dc:type rdf:resource="http://purl.org/dc/dcmitype/StillImage"/>
    <dc:date>2025-05-27T13:59:04.445737</dc:date>
    <dc:format>image/svg+xml</dc:format>
    <dc:creator>
     <cc:Agent>
      <dc:title>Matplotlib v3.10.3, https://matplotlib.org/</dc:title>
     </cc:Agent>
    </dc:creator>
   </cc:Work>
  </rdf:RDF>
 </metadata>
 <defs>
  <style type="text/css">*{stroke-linejoin: round; stroke-linecap: butt}</style>
 </defs>
 <g id="figure_1">
  <g id="patch_1">
   <path d="M 0 345.6 
L 460.8 345.6 
L 460.8 0 
L 0 0 
z
" style="fill: #ffffff"/>
  </g>
  <g id="axes_1">
   <g id="patch_2">
    <path d="M 57.6 307.584 
L 414.72 307.584 
L 414.72 41.472 
L 57.6 41.472 
z
" style="fill: #ffffff"/>
   </g>
   <g id="matplotlib.axis_1">
    <g id="xtick_1">
     <g id="line2d_1">
      <path d="M 59.687065 307.584 
L 59.687065 41.472 
" clip-path="url(#p3e5b7fc0dc)" style="fill: none; stroke: #dedede; stroke-width: 0.8; stroke-linecap: square"/>
     </g>
     <g id="text_1">
      <!-- 2000 -->
      <g style="fill: #333333" transform="translate(49.08714 320.913498) scale(0.0833 -0.0833)">
       <defs>
        <path id="DejaVuSans-32" d="M 1228 531 
L 3431 531 
L 3431 0 
L 469 0 
L 469 531 
Q 828 903 1448 1529 
Q 2069 2156 2228 2338 
Q 2531 2678 2651 2914 
Q 2772 3150 2772 3378 
Q 2772 3750 2511 3984 
Q 2250 4219 1831 4219 
Q 1534 4219 1204 4116 
Q 875 4013 500 3803 
L 500 4441 
Q 881 4594 1212 4672 
Q 1544 4750 1819 4750 
Q 2544 4750 2975 4387 
Q 3406 4025 3406 3419 
Q 3406 3131 3298 2873 
Q 3191 2616 2906 2266 
Q 2828 2175 2409 1742 
Q 1991 1309 1228 531 
z
" transform="scale(0.015625)"/>
        <path id="DejaVuSans-30" d="M 2034 4250 
Q 1547 4250 1301 3770 
Q 1056 3291 1056 2328 
Q 1056 1369 1301 889 
Q 1547 409 2034 409 
Q 2525 409 2770 889 
Q 3016 1369 3016 2328 
Q 3016 3291 2770 3770 
Q 2525 4250 2034 4250 
z
M 2034 4750 
Q 2819 4750 3233 4129 
Q 3647 3509 3647 2328 
Q 3647 1150 3233 529 
Q 2819 -91 2034 -91 
Q 1250 -91 836 529 
Q 422 1150 422 2328 
Q 422 3509 836 4129 
Q 1250 4750 2034 4750 
z
" transform="scale(0.015625)"/>
       </defs>
       <use xlink:href="#DejaVuSans-32"/>
       <use xlink:href="#DejaVuSans-30" transform="translate(63.623047 0)"/>
       <use xlink:href="#DejaVuSans-30" transform="translate(127.246094 0)"/>
       <use xlink:href="#DejaVuSans-30" transform="translate(190.869141 0)"/>
      </g>
     </g>
    </g>
    <g id="xtick_2">
     <g id="line2d_2">
      <path d="M 116.153766 307.584 
L 116.153766 41.472 
" clip-path="url(#p3e5b7fc0dc)" style="fill: none; stroke: #dedede; stroke-width: 0.8; stroke-linecap: square"/>
     </g>
     <g id="text_2">
      <!-- 2004 -->
      <g style="fill: #333333" transform="translate(105.553841 320.913498) scale(0.0833 -0.0833)">
       <defs>
        <path id="DejaVuSans-34" d="M 2419 4116 
L 825 1625 
L 2419 1625 
L 2419 4116 
z
M 2253 4666 
L 3047 4666 
L 3047 1625 
L 3713 1625 
L 3713 1100 
L 3047 1100 
L 3047 0 
L 2419 0 
L 2419 1100 
L 313 1100 
L 313 1709 
L 2253 4666 
z
" transform="scale(0.015625)"/>
       </defs>
       <use xlink:href="#DejaVuSans-32"/>
       <use xlink:href="#DejaVuSans-30" transform="translate(63.623047 0)"/>
       <use xlink:href="#DejaVuSans-30" transform="translate(127.246094 0)"/>
       <use xlink:href="#DejaVuSans-34" transform="translate(190.869141 0)"/>
      </g>
     </g>
    </g>
    <g id="xtick_3">
     <g id="line2d_3">
      <path d="M 172.620468 307.584 
L 172.620468 41.472 
" clip-path="url(#p3e5b7fc0dc)" style="fill: none; stroke: #dedede; stroke-width: 0.8; stroke-linecap: square"/>
     </g>
     <g id="text_3">
      <!-- 2008 -->
      <g style="fill: #333333" transform="translate(162.020543 320.913498) scale(0.0833 -0.0833)">
       <defs>
        <path id="DejaVuSans-38" d="M 2034 2216 
Q 1584 2216 1326 1975 
Q 1069 1734 1069 1313 
Q 1069 891 1326 650 
Q 1584 409 2034 409 
Q 2484 409 2743 651 
Q 3003 894 3003 1313 
Q 3003 1734 2745 1975 
Q 2488 2216 2034 2216 
z
M 1403 2484 
Q 997 2584 770 2862 
Q 544 3141 544 3541 
Q 544 4100 942 4425 
Q 1341 4750 2034 4750 
Q 2731 4750 3128 4425 
Q 3525 4100 3525 3541 
Q 3525 3141 3298 2862 
Q 3072 2584 2669 2484 
Q 3125 2378 3379 2068 
Q 3634 1759 3634 1313 
Q 3634 634 3220 271 
Q 2806 -91 2034 -91 
Q 1263 -91 848 271 
Q 434 634 434 1313 
Q 434 1759 690 2068 
Q 947 2378 1403 2484 
z
M 1172 3481 
Q 1172 3119 1398 2916 
Q 1625 2713 2034 2713 
Q 2441 2713 2670 2916 
Q 2900 3119 2900 3481 
Q 2900 3844 2670 4047 
Q 2441 4250 2034 4250 
Q 1625 4250 1398 4047 
Q 1172 3844 1172 3481 
z
" transform="scale(0.015625)"/>
       </defs>
       <use xlink:href="#DejaVuSans-32"/>
       <use xlink:href="#DejaVuSans-30" transform="translate(63.623047 0)"/>
       <use xlink:href="#DejaVuSans-30" transform="translate(127.246094 0)"/>
       <use xlink:href="#DejaVuSans-38" transform="translate(190.869141 0)"/>
      </g>
     </g>
    </g>
    <g id="xtick_4">
     <g id="line2d_4">
      <path d="M 229.087169 307.584 
L 229.087169 41.472 
" clip-path="url(#p3e5b7fc0dc)" style="fill: none; stroke: #dedede; stroke-width: 0.8; stroke-linecap: square"/>
     </g>
     <g id="text_4">
      <!-- 2012 -->
      <g style="fill: #333333" transform="translate(218.487244 320.913498) scale(0.0833 -0.0833)">
       <defs>
        <path id="DejaVuSans-31" d="M 794 531 
L 1825 531 
L 1825 4091 
L 703 3866 
L 703 4441 
L 1819 4666 
L 2450 4666 
L 2450 531 
L 3481 531 
L 3481 0 
L 794 0 
L 794 531 
z
" transform="scale(0.015625)"/>
       </defs>
       <use xlink:href="#DejaVuSans-32"/>
       <use xlink:href="#DejaVuSans-30" transform="translate(63.623047 0)"/>
       <use xlink:href="#DejaVuSans-31" transform="translate(127.246094 0)"/>
       <use xlink:href="#DejaVuSans-32" transform="translate(190.869141 0)"/>
      </g>
     </g>
    </g>
    <g id="xtick_5">
     <g id="line2d_5">
      <path d="M 285.55387 307.584 
L 285.55387 41.472 
" clip-path="url(#p3e5b7fc0dc)" style="fill: none; stroke: #dedede; stroke-width: 0.8; stroke-linecap: square"/>
     </g>
     <g id="text_5">
      <!-- 2016 -->
      <g style="fill: #333333" transform="translate(274.953945 320.913498) scale(0.0833 -0.0833)">
       <defs>
        <path id="DejaVuSans-36" d="M 2113 2584 
Q 1688 2584 1439 2293 
Q 1191 2003 1191 1497 
Q 1191 994 1439 701 
Q 1688 409 2113 409 
Q 2538 409 2786 701 
Q 3034 994 3034 1497 
Q 3034 2003 2786 2293 
Q 2538 2584 2113 2584 
z
M 3366 4563 
L 3366 3988 
Q 3128 4100 2886 4159 
Q 2644 4219 2406 4219 
Q 1781 4219 1451 3797 
Q 1122 3375 1075 2522 
Q 1259 2794 1537 2939 
Q 1816 3084 2150 3084 
Q 2853 3084 3261 2657 
Q 3669 2231 3669 1497 
Q 3669 778 3244 343 
Q 2819 -91 2113 -91 
Q 1303 -91 875 529 
Q 447 1150 447 2328 
Q 447 3434 972 4092 
Q 1497 4750 2381 4750 
Q 2619 4750 2861 4703 
Q 3103 4656 3366 4563 
z
" transform="scale(0.015625)"/>
       </defs>
       <use xlink:href="#DejaVuSans-32"/>
       <use xlink:href="#DejaVuSans-30" transform="translate(63.623047 0)"/>
       <use xlink:href="#DejaVuSans-31" transform="translate(127.246094 0)"/>
       <use xlink:href="#DejaVuSans-36" transform="translate(190.869141 0)"/>
      </g>
     </g>
    </g>
    <g id="xtick_6">
     <g id="line2d_6">
      <path d="M 342.020571 307.584 
L 342.020571 41.472 
" clip-path="url(#p3e5b7fc0dc)" style="fill: none; stroke: #dedede; stroke-width: 0.8; stroke-linecap: square"/>
     </g>
     <g id="text_6">
      <!-- 2020 -->
      <g style="fill: #333333" transform="translate(331.420646 320.913498) scale(0.0833 -0.0833)">
       <use xlink:href="#DejaVuSans-32"/>
       <use xlink:href="#DejaVuSans-30" transform="translate(63.623047 0)"/>
       <use xlink:href="#DejaVuSans-32" transform="translate(127.246094 0)"/>
       <use xlink:href="#DejaVuSans-30" transform="translate(190.869141 0)"/>
      </g>
     </g>
    </g>
    <g id="xtick_7">
     <g id="line2d_7">
      <path d="M 398.487273 307.584 
L 398.487273 41.472 
" clip-path="url(#p3e5b7fc0dc)" style="fill: none; stroke: #dedede; stroke-width: 0.8; stroke-linecap: square"/>
     </g>
     <g id="text_7">
      <!-- 2024 -->
      <g style="fill: #333333" transform="translate(387.887348 320.913498) scale(0.0833 -0.0833)">
       <use xlink:href="#DejaVuSans-32"/>
       <use xlink:href="#DejaVuSans-30" transform="translate(63.623047 0)"/>
       <use xlink:href="#DejaVuSans-32" transform="translate(127.246094 0)"/>
       <use xlink:href="#DejaVuSans-34" transform="translate(190.869141 0)"/>
      </g>
     </g>
    </g>
    <g id="text_8">
     <!-- time -->
     <g style="fill: #333333" transform="translate(223.454531 334.244316) scale(0.1 -0.1)">
      <defs>
       <path id="DejaVuSans-Bold-74" d="M 1759 4494 
L 1759 3500 
L 2913 3500 
L 2913 2700 
L 1759 2700 
L 1759 1216 
Q 1759 972 1856 886 
Q 1953 800 2241 800 
L 2816 800 
L 2816 0 
L 1856 0 
Q 1194 0 917 276 
Q 641 553 641 1216 
L 641 2700 
L 84 2700 
L 84 3500 
L 641 3500 
L 641 4494 
L 1759 4494 
z
" transform="scale(0.015625)"/>
       <path id="DejaVuSans-Bold-69" d="M 538 3500 
L 1656 3500 
L 1656 0 
L 538 0 
L 538 3500 
z
M 538 4863 
L 1656 4863 
L 1656 3950 
L 538 3950 
L 538 4863 
z
" transform="scale(0.015625)"/>
       <path id="DejaVuSans-Bold-6d" d="M 3781 2919 
Q 3994 3244 4286 3414 
Q 4578 3584 4928 3584 
Q 5531 3584 5847 3212 
Q 6163 2841 6163 2131 
L 6163 0 
L 5038 0 
L 5038 1825 
Q 5041 1866 5042 1909 
Q 5044 1953 5044 2034 
Q 5044 2406 4934 2573 
Q 4825 2741 4581 2741 
Q 4263 2741 4089 2478 
Q 3916 2216 3909 1719 
L 3909 0 
L 2784 0 
L 2784 1825 
Q 2784 2406 2684 2573 
Q 2584 2741 2328 2741 
Q 2006 2741 1831 2477 
Q 1656 2213 1656 1722 
L 1656 0 
L 531 0 
L 531 3500 
L 1656 3500 
L 1656 2988 
Q 1863 3284 2130 3434 
Q 2397 3584 2719 3584 
Q 3081 3584 3359 3409 
Q 3638 3234 3781 2919 
z
" transform="scale(0.015625)"/>
       <path id="DejaVuSans-Bold-65" d="M 4031 1759 
L 4031 1441 
L 1416 1441 
Q 1456 1047 1700 850 
Q 1944 653 2381 653 
Q 2734 653 3104 758 
Q 3475 863 3866 1075 
L 3866 213 
Q 3469 63 3072 -14 
Q 2675 -91 2278 -91 
Q 1328 -91 801 392 
Q 275 875 275 1747 
Q 275 2603 792 3093 
Q 1309 3584 2216 3584 
Q 3041 3584 3536 3087 
Q 4031 2591 4031 1759 
z
M 2881 2131 
Q 2881 2450 2695 2645 
Q 2509 2841 2209 2841 
Q 1884 2841 1681 2658 
Q 1478 2475 1428 2131 
L 2881 2131 
z
" transform="scale(0.015625)"/>
      </defs>
      <use xlink:href="#DejaVuSans-Bold-74"/>
      <use xlink:href="#DejaVuSans-Bold-69" transform="translate(47.802734 0)"/>
      <use xlink:href="#DejaVuSans-Bold-6d" transform="translate(82.080078 0)"/>
      <use xlink:href="#DejaVuSans-Bold-65" transform="translate(186.279297 0)"/>
     </g>
    </g>
   </g>
   <g id="matplotlib.axis_2">
    <g id="ytick_1">
     <g id="line2d_8">
      <path d="M 57.6 301.010434 
L 414.72 301.010434 
" clip-path="url(#p3e5b7fc0dc)" style="fill: none; stroke: #dedede; stroke-width: 0.8; stroke-linecap: square"/>
     </g>
     <g id="line2d_9">
      <defs>
       <path id="m742ee6fed4" d="M 0 0 
L -3.5 0 
" style="stroke: #333333; stroke-width: 0.8"/>
      </defs>
      <g>
       <use xlink:href="#m742ee6fed4" x="57.6" y="301.010434" style="fill: #333333; stroke: #333333; stroke-width: 0.8"/>
      </g>
     </g>
     <g id="text_9">
      <!-- −0.20 -->
      <g style="fill: #333333" transform="translate(25.072455 304.175184) scale(0.0833 -0.0833)">
       <defs>
        <path id="DejaVuSans-2212" d="M 678 2272 
L 4684 2272 
L 4684 1741 
L 678 1741 
L 678 2272 
z
" transform="scale(0.015625)"/>
        <path id="DejaVuSans-2e" d="M 684 794 
L 1344 794 
L 1344 0 
L 684 0 
L 684 794 
z
" transform="scale(0.015625)"/>
       </defs>
       <use xlink:href="#DejaVuSans-2212"/>
       <use xlink:href="#DejaVuSans-30" transform="translate(83.789062 0)"/>
       <use xlink:href="#DejaVuSans-2e" transform="translate(147.412109 0)"/>
       <use xlink:href="#DejaVuSans-32" transform="translate(179.199219 0)"/>
       <use xlink:href="#DejaVuSans-30" transform="translate(242.822266 0)"/>
      </g>
     </g>
    </g>
    <g id="ytick_2">
     <g id="line2d_10">
      <path d="M 57.6 263.903758 
L 414.72 263.903758 
" clip-path="url(#p3e5b7fc0dc)" style="fill: none; stroke: #dedede; stroke-width: 0.8; stroke-linecap: square"/>
     </g>
     <g id="line2d_11">
      <g>
       <use xlink:href="#m742ee6fed4" x="57.6" y="263.903758" style="fill: #333333; stroke: #333333; stroke-width: 0.8"/>
      </g>
     </g>
     <g id="text_10">
      <!-- −0.15 -->
      <g style="fill: #333333" transform="translate(25.072455 267.068508) scale(0.0833 -0.0833)">
       <defs>
        <path id="DejaVuSans-35" d="M 691 4666 
L 3169 4666 
L 3169 4134 
L 1269 4134 
L 1269 2991 
Q 1406 3038 1543 3061 
Q 1681 3084 1819 3084 
Q 2600 3084 3056 2656 
Q 3513 2228 3513 1497 
Q 3513 744 3044 326 
Q 2575 -91 1722 -91 
Q 1428 -91 1123 -41 
Q 819 9 494 109 
L 494 744 
Q 775 591 1075 516 
Q 1375 441 1709 441 
Q 2250 441 2565 725 
Q 2881 1009 2881 1497 
Q 2881 1984 2565 2268 
Q 2250 2553 1709 2553 
Q 1456 2553 1204 2497 
Q 953 2441 691 2322 
L 691 4666 
z
" transform="scale(0.015625)"/>
       </defs>
       <use xlink:href="#DejaVuSans-2212"/>
       <use xlink:href="#DejaVuSans-30" transform="translate(83.789062 0)"/>
       <use xlink:href="#DejaVuSans-2e" transform="translate(147.412109 0)"/>
       <use xlink:href="#DejaVuSans-31" transform="translate(179.199219 0)"/>
       <use xlink:href="#DejaVuSans-35" transform="translate(242.822266 0)"/>
      </g>
     </g>
    </g>
    <g id="ytick_3">
     <g id="line2d_12">
      <path d="M 57.6 226.797082 
L 414.72 226.797082 
" clip-path="url(#p3e5b7fc0dc)" style="fill: none; stroke: #dedede; stroke-width: 0.8; stroke-linecap: square"/>
     </g>
     <g id="line2d_13">
      <g>
       <use xlink:href="#m742ee6fed4" x="57.6" y="226.797082" style="fill: #333333; stroke: #333333; stroke-width: 0.8"/>
      </g>
     </g>
     <g id="text_11">
      <!-- −0.10 -->
      <g style="fill: #333333" transform="translate(25.072455 229.961831) scale(0.0833 -0.0833)">
       <use xlink:href="#DejaVuSans-2212"/>
       <use xlink:href="#DejaVuSans-30" transform="translate(83.789062 0)"/>
       <use xlink:href="#DejaVuSans-2e" transform="translate(147.412109 0)"/>
       <use xlink:href="#DejaVuSans-31" transform="translate(179.199219 0)"/>
       <use xlink:href="#DejaVuSans-30" transform="translate(242.822266 0)"/>
      </g>
     </g>
    </g>
    <g id="ytick_4">
     <g id="line2d_14">
      <path d="M 57.6 189.690406 
L 414.72 189.690406 
" clip-path="url(#p3e5b7fc0dc)" style="fill: none; stroke: #dedede; stroke-width: 0.8; stroke-linecap: square"/>
     </g>
     <g id="line2d_15">
      <g>
       <use xlink:href="#m742ee6fed4" x="57.6" y="189.690406" style="fill: #333333; stroke: #333333; stroke-width: 0.8"/>
      </g>
     </g>
     <g id="text_12">
      <!-- −0.05 -->
      <g style="fill: #333333" transform="translate(25.072455 192.855155) scale(0.0833 -0.0833)">
       <use xlink:href="#DejaVuSans-2212"/>
       <use xlink:href="#DejaVuSans-30" transform="translate(83.789062 0)"/>
       <use xlink:href="#DejaVuSans-2e" transform="translate(147.412109 0)"/>
       <use xlink:href="#DejaVuSans-30" transform="translate(179.199219 0)"/>
       <use xlink:href="#DejaVuSans-35" transform="translate(242.822266 0)"/>
      </g>
     </g>
    </g>
    <g id="ytick_5">
     <g id="line2d_16">
      <path d="M 57.6 152.58373 
L 414.72 152.58373 
" clip-path="url(#p3e5b7fc0dc)" style="fill: none; stroke: #dedede; stroke-width: 0.8; stroke-linecap: square"/>
     </g>
     <g id="line2d_17">
      <g>
       <use xlink:href="#m742ee6fed4" x="57.6" y="152.58373" style="fill: #333333; stroke: #333333; stroke-width: 0.8"/>
      </g>
     </g>
     <g id="text_13">
      <!-- 0.00 -->
      <g style="fill: #333333" transform="translate(32.052734 155.748479) scale(0.0833 -0.0833)">
       <use xlink:href="#DejaVuSans-30"/>
       <use xlink:href="#DejaVuSans-2e" transform="translate(63.623047 0)"/>
       <use xlink:href="#DejaVuSans-30" transform="translate(95.410156 0)"/>
       <use xlink:href="#DejaVuSans-30" transform="translate(159.033203 0)"/>
      </g>
     </g>
    </g>
    <g id="ytick_6">
     <g id="line2d_18">
      <path d="M 57.6 115.477054 
L 414.72 115.477054 
" clip-path="url(#p3e5b7fc0dc)" style="fill: none; stroke: #dedede; stroke-width: 0.8; stroke-linecap: square"/>
     </g>
     <g id="line2d_19">
      <g>
       <use xlink:href="#m742ee6fed4" x="57.6" y="115.477054" style="fill: #333333; stroke: #333333; stroke-width: 0.8"/>
      </g>
     </g>
     <g id="text_14">
      <!-- 0.05 -->
      <g style="fill: #333333" transform="translate(32.052734 118.641803) scale(0.0833 -0.0833)">
       <use xlink:href="#DejaVuSans-30"/>
       <use xlink:href="#DejaVuSans-2e" transform="translate(63.623047 0)"/>
       <use xlink:href="#DejaVuSans-30" transform="translate(95.410156 0)"/>
       <use xlink:href="#DejaVuSans-35" transform="translate(159.033203 0)"/>
      </g>
     </g>
    </g>
    <g id="ytick_7">
     <g id="line2d_20">
      <path d="M 57.6 78.370378 
L 414.72 78.370378 
" clip-path="url(#p3e5b7fc0dc)" style="fill: none; stroke: #dedede; stroke-width: 0.8; stroke-linecap: square"/>
     </g>
     <g id="line2d_21">
      <g>
       <use xlink:href="#m742ee6fed4" x="57.6" y="78.370378" style="fill: #333333; stroke: #333333; stroke-width: 0.8"/>
      </g>
     </g>
     <g id="text_15">
      <!-- 0.10 -->
      <g style="fill: #333333" transform="translate(32.052734 81.535127) scale(0.0833 -0.0833)">
       <use xlink:href="#DejaVuSans-30"/>
       <use xlink:href="#DejaVuSans-2e" transform="translate(63.623047 0)"/>
       <use xlink:href="#DejaVuSans-31" transform="translate(95.410156 0)"/>
       <use xlink:href="#DejaVuSans-30" transform="translate(159.033203 0)"/>
      </g>
     </g>
    </g>
   </g>
   <g id="line2d_22">
    <path d="M 73.832727 93.862378 
L 75.030857 113.755029 
L 76.113039 169.326437 
L 77.311169 169.046249 
L 78.470649 157.173947 
L 79.668779 189.362906 
L 80.82826 135.178558 
L 82.02639 146.02743 
L 83.224519 148.869704 
L 84.384 113.338111 
L 85.58213 186.22555 
L 86.74161 136.076418 
L 87.93974 57.126768 
L 89.13787 167.708136 
L 91.418182 95.649243 
L 92.577662 145.07717 
L 93.775792 295.488 
L 94.935273 163.231206 
L 96.133403 112.854061 
L 97.331532 158.07216 
L 98.491013 87.140798 
L 99.689143 153.868529 
L 100.848623 56.519704 
L 102.046753 58.685249 
L 103.244883 53.568 
L 105.525195 140.770961 
L 106.684675 169.938643 
L 107.882805 109.954619 
L 109.042286 134.733278 
L 110.240416 126.954598 
L 111.438545 144.713756 
L 112.598026 175.30626 
L 113.796156 141.549112 
L 114.955636 147.282634 
L 116.153766 180.988853 
L 117.351896 111.231775 
L 118.472727 128.063813 
L 119.670857 149.60235 
L 120.830338 179.809019 
L 122.028468 132.218625 
L 123.187948 200.783162 
L 124.386078 166.732955 
L 125.584208 147.088583 
L 126.743688 135.379477 
L 127.941818 125.794403 
L 129.101299 178.303815 
L 130.299429 150.338739 
L 131.497558 155.314506 
L 132.57974 170.216998 
L 133.77787 173.870116 
L 134.937351 159.177707 
L 136.135481 134.148172 
L 137.294961 272.324833 
L 138.493091 136.973401 
L 139.691221 164.899788 
L 140.850701 155.639722 
L 142.048831 132.049803 
L 143.208312 70.174961 
L 144.406442 76.1996 
L 145.604571 129.93354 
L 146.686753 104.167114 
L 147.884883 131.494292 
L 149.044364 124.668499 
L 150.242494 115.446407 
L 151.401974 92.802734 
L 152.600104 124.357131 
L 153.798234 137.292421 
L 154.957714 138.793291 
L 157.315325 128.284016 
L 158.513455 104.697527 
L 159.711584 140.842902 
L 160.793766 120.345625 
L 161.991896 105.000126 
L 163.151377 123.926365 
L 164.349506 154.927911 
L 165.508987 159.891605 
L 166.707117 281.763651 
L 167.905247 156.291039 
L 169.064727 159.424603 
L 170.262857 160.54773 
L 171.422338 191.662219 
L 172.620468 157.760074 
L 173.818597 148.412664 
L 174.939429 172.072331 
L 176.137558 185.595826 
L 177.297039 150.420532 
L 178.495169 138.600973 
L 179.654649 140.373493 
L 180.852779 129.997346 
L 182.050909 135.733941 
L 183.21039 108.66267 
L 184.408519 148.577903 
L 185.568 95.407501 
L 186.76613 121.172891 
L 187.96426 116.055643 
L 189.046442 146.171871 
L 190.244571 127.709411 
L 191.404052 151.830585 
L 192.602182 149.065056 
L 193.761662 111.504499 
L 194.959792 224.322517 
L 196.157922 122.598177 
L 197.317403 168.627059 
L 198.515532 122.105214 
L 199.675013 86.724538 
L 200.873143 139.577803 
L 202.071273 84.811821 
L 203.153455 93.406178 
L 204.351584 152.422458 
L 205.511065 137.433195 
L 206.709195 112.032593 
L 207.868675 234.995517 
L 209.066805 143.949456 
L 210.264935 184.4179 
L 211.424416 133.89521 
L 213.782026 176.671121 
L 214.980156 190.042882 
L 216.178286 157.466693 
L 217.260468 146.617152 
L 218.458597 140.993601 
L 219.618078 155.986533 
L 220.816208 136.003506 
L 221.975688 114.547246 
L 223.173818 161.389594 
L 224.371948 143.897409 
L 226.729558 201.365074 
L 227.889039 192.626992 
L 229.087169 179.430373 
L 230.285299 188.710515 
L 231.40613 163.315156 
L 232.60426 178.322918 
L 233.76374 151.088452 
L 234.96187 125.68785 
L 236.121351 88.646787 
L 237.319481 115.080462 
L 238.51761 176.328644 
L 239.677091 158.756683 
L 240.875221 198.152422 
L 242.034701 195.298673 
L 243.232831 185.144801 
L 244.430961 186.484114 
L 245.513143 186.469722 
L 246.711273 183.443639 
L 247.870753 173.500884 
L 249.068883 132.070198 
L 250.228364 156.552004 
L 251.426494 172.966877 
L 252.624623 173.508537 
L 253.784104 201.42936 
L 254.982234 193.127392 
L 256.141714 182.533976 
L 257.339844 208.744647 
L 259.620156 190.922523 
L 260.818286 153.164591 
L 261.977766 133.870954 
L 263.175896 129.027451 
L 264.335377 112.320846 
L 265.533506 122.576011 
L 266.731636 142.264716 
L 267.891117 179.536421 
L 269.089247 144.666073 
L 270.248727 149.657461 
L 271.446857 170.673197 
L 272.644987 143.737223 
L 273.727169 173.482385 
L 274.925299 150.418697 
L 276.084779 169.716003 
L 277.282909 153.81471 
L 278.44239 272.324833 
L 279.640519 161.686447 
L 280.838649 166.235628 
L 281.99813 123.505341 
L 283.19626 149.489941 
L 284.35574 186.17043 
L 285.55387 156.053167 
L 286.752 136.464315 
L 287.872831 171.107558 
L 289.070961 147.301736 
L 290.230442 132.23826 
L 291.428571 156.041111 
L 292.588052 63.636887 
L 293.786182 55.48714 
L 294.984312 121.930257 
L 296.143792 95.526907 
L 298.501403 192.998059 
L 299.699532 207.48302 
L 300.897662 193.311742 
L 301.979844 191.219376 
L 303.177974 186.5606 
L 304.337455 139.808022 
L 305.535584 134.593452 
L 306.695065 272.324833 
L 307.893195 175.267491 
L 309.091325 179.965098 
L 310.250805 185.02821 
L 311.448935 155.575436 
L 312.608416 161.828451 
L 313.806545 169.337357 
L 315.004675 175.500538 
L 316.086857 175.337719 
L 317.284987 144.407416 
L 318.444468 140.327516 
L 319.642597 150.326683 
L 320.802078 132.729518 
L 322.000208 159.08898 
L 323.198338 154.435705 
L 324.357818 114.822378 
L 325.555948 133.163003 
L 326.715429 161.234744 
L 327.913558 162.064449 
L 329.111688 192.124329 
L 330.19387 185.801802 
L 331.392 165.632434 
L 332.551481 153.463279 
L 333.74961 127.394757 
L 334.909091 134.659065 
L 336.107221 155.378312 
L 338.464831 182.282316 
L 339.662961 187.412964 
L 340.822442 203.462142 
L 342.020571 202.436512 
L 343.218701 193.682809 
L 344.339532 188.028202 
L 345.537662 204.520231 
L 346.697143 179.363739 
L 347.895273 169.102661 
L 349.054753 272.324833 
L 350.252883 173.48637 
L 351.451013 184.492113 
L 352.610494 220.576405 
L 353.808623 178.263244 
L 354.968104 207.395449 
L 356.166234 158.576421 
L 357.364364 178.691712 
L 358.446545 81.903108 
L 359.644675 138.025067 
L 360.804156 129.269726 
L 362.002286 96.596216 
L 363.161766 110.094445 
L 364.359896 281.763651 
L 365.558026 166.309842 
L 367.915636 157.727623 
L 369.075117 150.548021 
L 370.273247 186.406428 
L 371.471377 153.681812 
L 373.751688 185.224759 
L 376.109299 120.938195 
L 377.268779 272.324833 
L 378.466909 155.452526 
L 379.665039 166.012988 
L 380.824519 168.330205 
L 382.022649 184.296003 
L 383.18213 154.481329 
L 384.38026 188.558615 
L 385.57839 168.450269 
L 386.660571 171.849691 
L 387.858701 175.05753 
L 389.018182 163.556295 
L 390.216312 97.486776 
L 391.375792 148.462748 
L 392.573922 106.991207 
L 393.772052 126.531485 
L 394.931532 132.188303 
L 396.129662 126.483802 
L 397.289143 168.359226 
L 398.487273 156.721087 
L 398.487273 156.721087 
" clip-path="url(#p3e5b7fc0dc)" style="fill: none; stroke: #000000; stroke-width: 2; stroke-linecap: square"/>
   </g>
   <g id="line2d_23">
    <path d="M 354.968104 168.048799 
L 356.166234 168.903896 
L 357.364364 169.34651 
L 358.446545 169.754917 
L 359.644675 170.723891 
L 360.804156 170.826754 
L 362.002286 170.73988 
L 363.161766 174.818248 
L 364.359896 173.757016 
L 365.558026 174.018815 
L 366.717506 175.515306 
L 367.915636 175.195687 
L 369.075117 176.396481 
L 370.273247 175.39512 
L 371.471377 175.605647 
L 372.553558 172.957022 
L 373.751688 172.27347 
L 374.911169 172.330953 
L 376.109299 170.122877 
L 377.268779 168.761519 
L 378.466909 174.007508 
L 379.665039 173.770638 
L 380.824519 173.396978 
L 382.022649 172.800632 
L 383.18213 172.427658 
L 384.38026 173.343769 
L 385.57839 172.907436 
L 386.660571 173.100873 
L 387.858701 173.740577 
L 389.018182 173.230619 
L 390.216312 171.827009 
L 391.375792 175.51159 
L 392.573922 174.768477 
L 393.772052 174.591336 
L 394.931532 174.339786 
L 396.129662 174.944342 
L 397.289143 174.48525 
L 398.487273 175.191238 
" clip-path="url(#p3e5b7fc0dc)" style="fill: none; stroke: #003dfd; stroke-width: 2; stroke-linecap: square"/>
   </g>
   <g id="legend_1">
    <g id="line2d_24">
     <path d="M 309.010625 54.570438 
L 319.010625 54.570438 
L 329.010625 54.570438 
" style="fill: none; stroke: #000000; stroke-width: 2; stroke-linecap: square"/>
    </g>
    <g id="text_16">
     <!-- train -->
     <g transform="translate(337.010625 58.070438) scale(0.1 -0.1)">
      <defs>
       <path id="DejaVuSans-74" d="M 1172 4494 
L 1172 3500 
L 2356 3500 
L 2356 3053 
L 1172 3053 
L 1172 1153 
Q 1172 725 1289 603 
Q 1406 481 1766 481 
L 2356 481 
L 2356 0 
L 1766 0 
Q 1100 0 847 248 
Q 594 497 594 1153 
L 594 3053 
L 172 3053 
L 172 3500 
L 594 3500 
L 594 4494 
L 1172 4494 
z
" transform="scale(0.015625)"/>
       <path id="DejaVuSans-72" d="M 2631 2963 
Q 2534 3019 2420 3045 
Q 2306 3072 2169 3072 
Q 1681 3072 1420 2755 
Q 1159 2438 1159 1844 
L 1159 0 
L 581 0 
L 581 3500 
L 1159 3500 
L 1159 2956 
Q 1341 3275 1631 3429 
Q 1922 3584 2338 3584 
Q 2397 3584 2469 3576 
Q 2541 3569 2628 3553 
L 2631 2963 
z
" transform="scale(0.015625)"/>
       <path id="DejaVuSans-61" d="M 2194 1759 
Q 1497 1759 1228 1600 
Q 959 1441 959 1056 
Q 959 750 1161 570 
Q 1363 391 1709 391 
Q 2188 391 2477 730 
Q 2766 1069 2766 1631 
L 2766 1759 
L 2194 1759 
z
M 3341 1997 
L 3341 0 
L 2766 0 
L 2766 531 
Q 2569 213 2275 61 
Q 1981 -91 1556 -91 
Q 1019 -91 701 211 
Q 384 513 384 1019 
Q 384 1609 779 1909 
Q 1175 2209 1959 2209 
L 2766 2209 
L 2766 2266 
Q 2766 2663 2505 2880 
Q 2244 3097 1772 3097 
Q 1472 3097 1187 3025 
Q 903 2953 641 2809 
L 641 3341 
Q 956 3463 1253 3523 
Q 1550 3584 1831 3584 
Q 2591 3584 2966 3190 
Q 3341 2797 3341 1997 
z
" transform="scale(0.015625)"/>
       <path id="DejaVuSans-69" d="M 603 3500 
L 1178 3500 
L 1178 0 
L 603 0 
L 603 3500 
z
M 603 4863 
L 1178 4863 
L 1178 4134 
L 603 4134 
L 603 4863 
z
" transform="scale(0.015625)"/>
       <path id="DejaVuSans-6e" d="M 3513 2113 
L 3513 0 
L 2938 0 
L 2938 2094 
Q 2938 2591 2744 2837 
Q 2550 3084 2163 3084 
Q 1697 3084 1428 2787 
Q 1159 2491 1159 1978 
L 1159 0 
L 581 0 
L 581 3500 
L 1159 3500 
L 1159 2956 
Q 1366 3272 1645 3428 
Q 1925 3584 2291 3584 
Q 2894 3584 3203 3211 
Q 3513 2838 3513 2113 
z
" transform="scale(0.015625)"/>
      </defs>
      <use xlink:href="#DejaVuSans-74"/>
      <use xlink:href="#DejaVuSans-72" transform="translate(39.208984 0)"/>
      <use xlink:href="#DejaVuSans-61" transform="translate(80.322266 0)"/>
      <use xlink:href="#DejaVuSans-69" transform="translate(141.601562 0)"/>
      <use xlink:href="#DejaVuSans-6e" transform="translate(169.384766 0)"/>
     </g>
    </g>
    <g id="line2d_25">
     <path d="M 309.010625 69.248563 
L 319.010625 69.248563 
L 329.010625 69.248563 
" style="fill: none; stroke: #003dfd; stroke-width: 2; stroke-linecap: square"/>
    </g>
    <g id="text_17">
     <!-- train_forecast -->
     <g transform="translate(337.010625 72.748563) scale(0.1 -0.1)">
      <defs>
       <path id="DejaVuSans-5f" d="M 3263 -1063 
L 3263 -1509 
L -63 -1509 
L -63 -1063 
L 3263 -1063 
z
" transform="scale(0.015625)"/>
       <path id="DejaVuSans-66" d="M 2375 4863 
L 2375 4384 
L 1825 4384 
Q 1516 4384 1395 4259 
Q 1275 4134 1275 3809 
L 1275 3500 
L 2222 3500 
L 2222 3053 
L 1275 3053 
L 1275 0 
L 697 0 
L 697 3053 
L 147 3053 
L 147 3500 
L 697 3500 
L 697 3744 
Q 697 4328 969 4595 
Q 1241 4863 1831 4863 
L 2375 4863 
z
" transform="scale(0.015625)"/>
       <path id="DejaVuSans-6f" d="M 1959 3097 
Q 1497 3097 1228 2736 
Q 959 2375 959 1747 
Q 959 1119 1226 758 
Q 1494 397 1959 397 
Q 2419 397 2687 759 
Q 2956 1122 2956 1747 
Q 2956 2369 2687 2733 
Q 2419 3097 1959 3097 
z
M 1959 3584 
Q 2709 3584 3137 3096 
Q 3566 2609 3566 1747 
Q 3566 888 3137 398 
Q 2709 -91 1959 -91 
Q 1206 -91 779 398 
Q 353 888 353 1747 
Q 353 2609 779 3096 
Q 1206 3584 1959 3584 
z
" transform="scale(0.015625)"/>
       <path id="DejaVuSans-65" d="M 3597 1894 
L 3597 1613 
L 953 1613 
Q 991 1019 1311 708 
Q 1631 397 2203 397 
Q 2534 397 2845 478 
Q 3156 559 3463 722 
L 3463 178 
Q 3153 47 2828 -22 
Q 2503 -91 2169 -91 
Q 1331 -91 842 396 
Q 353 884 353 1716 
Q 353 2575 817 3079 
Q 1281 3584 2069 3584 
Q 2775 3584 3186 3129 
Q 3597 2675 3597 1894 
z
M 3022 2063 
Q 3016 2534 2758 2815 
Q 2500 3097 2075 3097 
Q 1594 3097 1305 2825 
Q 1016 2553 972 2059 
L 3022 2063 
z
" transform="scale(0.015625)"/>
       <path id="DejaVuSans-63" d="M 3122 3366 
L 3122 2828 
Q 2878 2963 2633 3030 
Q 2388 3097 2138 3097 
Q 1578 3097 1268 2742 
Q 959 2388 959 1747 
Q 959 1106 1268 751 
Q 1578 397 2138 397 
Q 2388 397 2633 464 
Q 2878 531 3122 666 
L 3122 134 
Q 2881 22 2623 -34 
Q 2366 -91 2075 -91 
Q 1284 -91 818 406 
Q 353 903 353 1747 
Q 353 2603 823 3093 
Q 1294 3584 2113 3584 
Q 2378 3584 2631 3529 
Q 2884 3475 3122 3366 
z
" transform="scale(0.015625)"/>
       <path id="DejaVuSans-73" d="M 2834 3397 
L 2834 2853 
Q 2591 2978 2328 3040 
Q 2066 3103 1784 3103 
Q 1356 3103 1142 2972 
Q 928 2841 928 2578 
Q 928 2378 1081 2264 
Q 1234 2150 1697 2047 
L 1894 2003 
Q 2506 1872 2764 1633 
Q 3022 1394 3022 966 
Q 3022 478 2636 193 
Q 2250 -91 1575 -91 
Q 1294 -91 989 -36 
Q 684 19 347 128 
L 347 722 
Q 666 556 975 473 
Q 1284 391 1588 391 
Q 1994 391 2212 530 
Q 2431 669 2431 922 
Q 2431 1156 2273 1281 
Q 2116 1406 1581 1522 
L 1381 1569 
Q 847 1681 609 1914 
Q 372 2147 372 2553 
Q 372 3047 722 3315 
Q 1072 3584 1716 3584 
Q 2034 3584 2315 3537 
Q 2597 3491 2834 3397 
z
" transform="scale(0.015625)"/>
      </defs>
      <use xlink:href="#DejaVuSans-74"/>
      <use xlink:href="#DejaVuSans-72" transform="translate(39.208984 0)"/>
      <use xlink:href="#DejaVuSans-61" transform="translate(80.322266 0)"/>
      <use xlink:href="#DejaVuSans-69" transform="translate(141.601562 0)"/>
      <use xlink:href="#DejaVuSans-6e" transform="translate(169.384766 0)"/>
      <use xlink:href="#DejaVuSans-5f" transform="translate(232.763672 0)"/>
      <use xlink:href="#DejaVuSans-66" transform="translate(282.763672 0)"/>
      <use xlink:href="#DejaVuSans-6f" transform="translate(317.96875 0)"/>
      <use xlink:href="#DejaVuSans-72" transform="translate(379.150391 0)"/>
      <use xlink:href="#DejaVuSans-65" transform="translate(418.013672 0)"/>
      <use xlink:href="#DejaVuSans-63" transform="translate(479.537109 0)"/>
      <use xlink:href="#DejaVuSans-61" transform="translate(534.517578 0)"/>
      <use xlink:href="#DejaVuSans-73" transform="translate(595.796875 0)"/>
      <use xlink:href="#DejaVuSans-74" transform="translate(647.896484 0)"/>
     </g>
    </g>
   </g>
  </g>
 </g>
 <defs>
  <clipPath id="p3e5b7fc0dc">
   <rect x="57.6" y="41.472" width="357.12" height="266.112"/>
  </clipPath>
 </defs>
</svg>
