<?xml version="1.0" encoding="utf-8" standalone="no"?>
<!DOCTYPE svg PUBLIC "-//W3C//DTD SVG 1.1//EN"
  "http://www.w3.org/Graphics/SVG/1.1/DTD/svg11.dtd">
<svg xmlns:xlink="http://www.w3.org/1999/xlink" width="460.8pt" height="345.6pt" viewBox="0 0 460.8 345.6" xmlns="http://www.w3.org/2000/svg" version="1.1">
 <metadata>
  <rdf:RDF xmlns:dc="http://purl.org/dc/elements/1.1/" xmlns:cc="http://creativecommons.org/ns#" xmlns:rdf="http://www.w3.org/1999/02/22-rdf-syntax-ns#">
   <cc:Work>
    <dc:type rdf:resource="http://purl.org/dc/dcmitype/StillImage"/>
    <dc:date>2025-05-27T13:58:27.517607</dc:date>
    <dc:format>image/svg+xml</dc:format>
    <dc:creator>
     <cc:Agent>
      <dc:title>Matplotlib v3.10.3, https://matplotlib.org/</dc:title>
     </cc:Agent>
    </dc:creator>
   </cc:Work>
  </rdf:RDF>
 </metadata>
 <defs>
  <style type="text/css">*{stroke-linejoin: round; stroke-linecap: butt}</style>
 </defs>
 <g id="figure_1">
  <g id="patch_1">
   <path d="M 0 345.6 
L 460.8 345.6 
L 460.8 0 
L 0 0 
z
" style="fill: #ffffff"/>
  </g>
  <g id="axes_1">
   <g id="patch_2">
    <path d="M 57.6 307.584 
L 414.72 307.584 
L 414.72 41.472 
L 57.6 41.472 
z
" style="fill: #ffffff"/>
   </g>
   <g id="matplotlib.axis_1">
    <g id="xtick_1">
     <g id="line2d_1">
      <path d="M 59.687065 307.584 
L 59.687065 41.472 
" clip-path="url(#p83ab40c271)" style="fill: none; stroke: #dedede; stroke-width: 0.8; stroke-linecap: square"/>
     </g>
     <g id="text_1">
      <!-- 2000 -->
      <g style="fill: #333333" transform="translate(49.08714 320.913498) scale(0.0833 -0.0833)">
       <defs>
        <path id="DejaVuSans-32" d="M 1228 531 
L 3431 531 
L 3431 0 
L 469 0 
L 469 531 
Q 828 903 1448 1529 
Q 2069 2156 2228 2338 
Q 2531 2678 2651 2914 
Q 2772 3150 2772 3378 
Q 2772 3750 2511 3984 
Q 2250 4219 1831 4219 
Q 1534 4219 1204 4116 
Q 875 4013 500 3803 
L 500 4441 
Q 881 4594 1212 4672 
Q 1544 4750 1819 4750 
Q 2544 4750 2975 4387 
Q 3406 4025 3406 3419 
Q 3406 3131 3298 2873 
Q 3191 2616 2906 2266 
Q 2828 2175 2409 1742 
Q 1991 1309 1228 531 
z
" transform="scale(0.015625)"/>
        <path id="DejaVuSans-30" d="M 2034 4250 
Q 1547 4250 1301 3770 
Q 1056 3291 1056 2328 
Q 1056 1369 1301 889 
Q 1547 409 2034 409 
Q 2525 409 2770 889 
Q 3016 1369 3016 2328 
Q 3016 3291 2770 3770 
Q 2525 4250 2034 4250 
z
M 2034 4750 
Q 2819 4750 3233 4129 
Q 3647 3509 3647 2328 
Q 3647 1150 3233 529 
Q 2819 -91 2034 -91 
Q 1250 -91 836 529 
Q 422 1150 422 2328 
Q 422 3509 836 4129 
Q 1250 4750 2034 4750 
z
" transform="scale(0.015625)"/>
       </defs>
       <use xlink:href="#DejaVuSans-32"/>
       <use xlink:href="#DejaVuSans-30" transform="translate(63.623047 0)"/>
       <use xlink:href="#DejaVuSans-30" transform="translate(127.246094 0)"/>
       <use xlink:href="#DejaVuSans-30" transform="translate(190.869141 0)"/>
      </g>
     </g>
    </g>
    <g id="xtick_2">
     <g id="line2d_2">
      <path d="M 116.153766 307.584 
L 116.153766 41.472 
" clip-path="url(#p83ab40c271)" style="fill: none; stroke: #dedede; stroke-width: 0.8; stroke-linecap: square"/>
     </g>
     <g id="text_2">
      <!-- 2004 -->
      <g style="fill: #333333" transform="translate(105.553841 320.913498) scale(0.0833 -0.0833)">
       <defs>
        <path id="DejaVuSans-34" d="M 2419 4116 
L 825 1625 
L 2419 1625 
L 2419 4116 
z
M 2253 4666 
L 3047 4666 
L 3047 1625 
L 3713 1625 
L 3713 1100 
L 3047 1100 
L 3047 0 
L 2419 0 
L 2419 1100 
L 313 1100 
L 313 1709 
L 2253 4666 
z
" transform="scale(0.015625)"/>
       </defs>
       <use xlink:href="#DejaVuSans-32"/>
       <use xlink:href="#DejaVuSans-30" transform="translate(63.623047 0)"/>
       <use xlink:href="#DejaVuSans-30" transform="translate(127.246094 0)"/>
       <use xlink:href="#DejaVuSans-34" transform="translate(190.869141 0)"/>
      </g>
     </g>
    </g>
    <g id="xtick_3">
     <g id="line2d_3">
      <path d="M 172.620468 307.584 
L 172.620468 41.472 
" clip-path="url(#p83ab40c271)" style="fill: none; stroke: #dedede; stroke-width: 0.8; stroke-linecap: square"/>
     </g>
     <g id="text_3">
      <!-- 2008 -->
      <g style="fill: #333333" transform="translate(162.020543 320.913498) scale(0.0833 -0.0833)">
       <defs>
        <path id="DejaVuSans-38" d="M 2034 2216 
Q 1584 2216 1326 1975 
Q 1069 1734 1069 1313 
Q 1069 891 1326 650 
Q 1584 409 2034 409 
Q 2484 409 2743 651 
Q 3003 894 3003 1313 
Q 3003 1734 2745 1975 
Q 2488 2216 2034 2216 
z
M 1403 2484 
Q 997 2584 770 2862 
Q 544 3141 544 3541 
Q 544 4100 942 4425 
Q 1341 4750 2034 4750 
Q 2731 4750 3128 4425 
Q 3525 4100 3525 3541 
Q 3525 3141 3298 2862 
Q 3072 2584 2669 2484 
Q 3125 2378 3379 2068 
Q 3634 1759 3634 1313 
Q 3634 634 3220 271 
Q 2806 -91 2034 -91 
Q 1263 -91 848 271 
Q 434 634 434 1313 
Q 434 1759 690 2068 
Q 947 2378 1403 2484 
z
M 1172 3481 
Q 1172 3119 1398 2916 
Q 1625 2713 2034 2713 
Q 2441 2713 2670 2916 
Q 2900 3119 2900 3481 
Q 2900 3844 2670 4047 
Q 2441 4250 2034 4250 
Q 1625 4250 1398 4047 
Q 1172 3844 1172 3481 
z
" transform="scale(0.015625)"/>
       </defs>
       <use xlink:href="#DejaVuSans-32"/>
       <use xlink:href="#DejaVuSans-30" transform="translate(63.623047 0)"/>
       <use xlink:href="#DejaVuSans-30" transform="translate(127.246094 0)"/>
       <use xlink:href="#DejaVuSans-38" transform="translate(190.869141 0)"/>
      </g>
     </g>
    </g>
    <g id="xtick_4">
     <g id="line2d_4">
      <path d="M 229.087169 307.584 
L 229.087169 41.472 
" clip-path="url(#p83ab40c271)" style="fill: none; stroke: #dedede; stroke-width: 0.8; stroke-linecap: square"/>
     </g>
     <g id="text_4">
      <!-- 2012 -->
      <g style="fill: #333333" transform="translate(218.487244 320.913498) scale(0.0833 -0.0833)">
       <defs>
        <path id="DejaVuSans-31" d="M 794 531 
L 1825 531 
L 1825 4091 
L 703 3866 
L 703 4441 
L 1819 4666 
L 2450 4666 
L 2450 531 
L 3481 531 
L 3481 0 
L 794 0 
L 794 531 
z
" transform="scale(0.015625)"/>
       </defs>
       <use xlink:href="#DejaVuSans-32"/>
       <use xlink:href="#DejaVuSans-30" transform="translate(63.623047 0)"/>
       <use xlink:href="#DejaVuSans-31" transform="translate(127.246094 0)"/>
       <use xlink:href="#DejaVuSans-32" transform="translate(190.869141 0)"/>
      </g>
     </g>
    </g>
    <g id="xtick_5">
     <g id="line2d_5">
      <path d="M 285.55387 307.584 
L 285.55387 41.472 
" clip-path="url(#p83ab40c271)" style="fill: none; stroke: #dedede; stroke-width: 0.8; stroke-linecap: square"/>
     </g>
     <g id="text_5">
      <!-- 2016 -->
      <g style="fill: #333333" transform="translate(274.953945 320.913498) scale(0.0833 -0.0833)">
       <defs>
        <path id="DejaVuSans-36" d="M 2113 2584 
Q 1688 2584 1439 2293 
Q 1191 2003 1191 1497 
Q 1191 994 1439 701 
Q 1688 409 2113 409 
Q 2538 409 2786 701 
Q 3034 994 3034 1497 
Q 3034 2003 2786 2293 
Q 2538 2584 2113 2584 
z
M 3366 4563 
L 3366 3988 
Q 3128 4100 2886 4159 
Q 2644 4219 2406 4219 
Q 1781 4219 1451 3797 
Q 1122 3375 1075 2522 
Q 1259 2794 1537 2939 
Q 1816 3084 2150 3084 
Q 2853 3084 3261 2657 
Q 3669 2231 3669 1497 
Q 3669 778 3244 343 
Q 2819 -91 2113 -91 
Q 1303 -91 875 529 
Q 447 1150 447 2328 
Q 447 3434 972 4092 
Q 1497 4750 2381 4750 
Q 2619 4750 2861 4703 
Q 3103 4656 3366 4563 
z
" transform="scale(0.015625)"/>
       </defs>
       <use xlink:href="#DejaVuSans-32"/>
       <use xlink:href="#DejaVuSans-30" transform="translate(63.623047 0)"/>
       <use xlink:href="#DejaVuSans-31" transform="translate(127.246094 0)"/>
       <use xlink:href="#DejaVuSans-36" transform="translate(190.869141 0)"/>
      </g>
     </g>
    </g>
    <g id="xtick_6">
     <g id="line2d_6">
      <path d="M 342.020571 307.584 
L 342.020571 41.472 
" clip-path="url(#p83ab40c271)" style="fill: none; stroke: #dedede; stroke-width: 0.8; stroke-linecap: square"/>
     </g>
     <g id="text_6">
      <!-- 2020 -->
      <g style="fill: #333333" transform="translate(331.420646 320.913498) scale(0.0833 -0.0833)">
       <use xlink:href="#DejaVuSans-32"/>
       <use xlink:href="#DejaVuSans-30" transform="translate(63.623047 0)"/>
       <use xlink:href="#DejaVuSans-32" transform="translate(127.246094 0)"/>
       <use xlink:href="#DejaVuSans-30" transform="translate(190.869141 0)"/>
      </g>
     </g>
    </g>
    <g id="xtick_7">
     <g id="line2d_7">
      <path d="M 398.487273 307.584 
L 398.487273 41.472 
" clip-path="url(#p83ab40c271)" style="fill: none; stroke: #dedede; stroke-width: 0.8; stroke-linecap: square"/>
     </g>
     <g id="text_7">
      <!-- 2024 -->
      <g style="fill: #333333" transform="translate(387.887348 320.913498) scale(0.0833 -0.0833)">
       <use xlink:href="#DejaVuSans-32"/>
       <use xlink:href="#DejaVuSans-30" transform="translate(63.623047 0)"/>
       <use xlink:href="#DejaVuSans-32" transform="translate(127.246094 0)"/>
       <use xlink:href="#DejaVuSans-34" transform="translate(190.869141 0)"/>
      </g>
     </g>
    </g>
    <g id="text_8">
     <!-- time -->
     <g style="fill: #333333" transform="translate(223.454531 334.244316) scale(0.1 -0.1)">
      <defs>
       <path id="DejaVuSans-Bold-74" d="M 1759 4494 
L 1759 3500 
L 2913 3500 
L 2913 2700 
L 1759 2700 
L 1759 1216 
Q 1759 972 1856 886 
Q 1953 800 2241 800 
L 2816 800 
L 2816 0 
L 1856 0 
Q 1194 0 917 276 
Q 641 553 641 1216 
L 641 2700 
L 84 2700 
L 84 3500 
L 641 3500 
L 641 4494 
L 1759 4494 
z
" transform="scale(0.015625)"/>
       <path id="DejaVuSans-Bold-69" d="M 538 3500 
L 1656 3500 
L 1656 0 
L 538 0 
L 538 3500 
z
M 538 4863 
L 1656 4863 
L 1656 3950 
L 538 3950 
L 538 4863 
z
" transform="scale(0.015625)"/>
       <path id="DejaVuSans-Bold-6d" d="M 3781 2919 
Q 3994 3244 4286 3414 
Q 4578 3584 4928 3584 
Q 5531 3584 5847 3212 
Q 6163 2841 6163 2131 
L 6163 0 
L 5038 0 
L 5038 1825 
Q 5041 1866 5042 1909 
Q 5044 1953 5044 2034 
Q 5044 2406 4934 2573 
Q 4825 2741 4581 2741 
Q 4263 2741 4089 2478 
Q 3916 2216 3909 1719 
L 3909 0 
L 2784 0 
L 2784 1825 
Q 2784 2406 2684 2573 
Q 2584 2741 2328 2741 
Q 2006 2741 1831 2477 
Q 1656 2213 1656 1722 
L 1656 0 
L 531 0 
L 531 3500 
L 1656 3500 
L 1656 2988 
Q 1863 3284 2130 3434 
Q 2397 3584 2719 3584 
Q 3081 3584 3359 3409 
Q 3638 3234 3781 2919 
z
" transform="scale(0.015625)"/>
       <path id="DejaVuSans-Bold-65" d="M 4031 1759 
L 4031 1441 
L 1416 1441 
Q 1456 1047 1700 850 
Q 1944 653 2381 653 
Q 2734 653 3104 758 
Q 3475 863 3866 1075 
L 3866 213 
Q 3469 63 3072 -14 
Q 2675 -91 2278 -91 
Q 1328 -91 801 392 
Q 275 875 275 1747 
Q 275 2603 792 3093 
Q 1309 3584 2216 3584 
Q 3041 3584 3536 3087 
Q 4031 2591 4031 1759 
z
M 2881 2131 
Q 2881 2450 2695 2645 
Q 2509 2841 2209 2841 
Q 1884 2841 1681 2658 
Q 1478 2475 1428 2131 
L 2881 2131 
z
" transform="scale(0.015625)"/>
      </defs>
      <use xlink:href="#DejaVuSans-Bold-74"/>
      <use xlink:href="#DejaVuSans-Bold-69" transform="translate(47.802734 0)"/>
      <use xlink:href="#DejaVuSans-Bold-6d" transform="translate(82.080078 0)"/>
      <use xlink:href="#DejaVuSans-Bold-65" transform="translate(186.279297 0)"/>
     </g>
    </g>
   </g>
   <g id="matplotlib.axis_2">
    <g id="ytick_1">
     <g id="line2d_8">
      <path d="M 57.6 267.877588 
L 414.72 267.877588 
" clip-path="url(#p83ab40c271)" style="fill: none; stroke: #dedede; stroke-width: 0.8; stroke-linecap: square"/>
     </g>
     <g id="line2d_9">
      <defs>
       <path id="m9edbfe6586" d="M 0 0 
L -3.5 0 
" style="stroke: #333333; stroke-width: 0.8"/>
      </defs>
      <g>
       <use xlink:href="#m9edbfe6586" x="57.6" y="267.877588" style="fill: #333333; stroke: #333333; stroke-width: 0.8"/>
      </g>
     </g>
     <g id="text_9">
      <!-- −0.3 -->
      <g style="fill: #333333" transform="translate(30.372417 271.042338) scale(0.0833 -0.0833)">
       <defs>
        <path id="DejaVuSans-2212" d="M 678 2272 
L 4684 2272 
L 4684 1741 
L 678 1741 
L 678 2272 
z
" transform="scale(0.015625)"/>
        <path id="DejaVuSans-2e" d="M 684 794 
L 1344 794 
L 1344 0 
L 684 0 
L 684 794 
z
" transform="scale(0.015625)"/>
        <path id="DejaVuSans-33" d="M 2597 2516 
Q 3050 2419 3304 2112 
Q 3559 1806 3559 1356 
Q 3559 666 3084 287 
Q 2609 -91 1734 -91 
Q 1441 -91 1130 -33 
Q 819 25 488 141 
L 488 750 
Q 750 597 1062 519 
Q 1375 441 1716 441 
Q 2309 441 2620 675 
Q 2931 909 2931 1356 
Q 2931 1769 2642 2001 
Q 2353 2234 1838 2234 
L 1294 2234 
L 1294 2753 
L 1863 2753 
Q 2328 2753 2575 2939 
Q 2822 3125 2822 3475 
Q 2822 3834 2567 4026 
Q 2313 4219 1838 4219 
Q 1578 4219 1281 4162 
Q 984 4106 628 3988 
L 628 4550 
Q 988 4650 1302 4700 
Q 1616 4750 1894 4750 
Q 2613 4750 3031 4423 
Q 3450 4097 3450 3541 
Q 3450 3153 3228 2886 
Q 3006 2619 2597 2516 
z
" transform="scale(0.015625)"/>
       </defs>
       <use xlink:href="#DejaVuSans-2212"/>
       <use xlink:href="#DejaVuSans-30" transform="translate(83.789062 0)"/>
       <use xlink:href="#DejaVuSans-2e" transform="translate(147.412109 0)"/>
       <use xlink:href="#DejaVuSans-33" transform="translate(179.199219 0)"/>
      </g>
     </g>
    </g>
    <g id="ytick_2">
     <g id="line2d_10">
      <path d="M 57.6 223.464063 
L 414.72 223.464063 
" clip-path="url(#p83ab40c271)" style="fill: none; stroke: #dedede; stroke-width: 0.8; stroke-linecap: square"/>
     </g>
     <g id="line2d_11">
      <g>
       <use xlink:href="#m9edbfe6586" x="57.6" y="223.464063" style="fill: #333333; stroke: #333333; stroke-width: 0.8"/>
      </g>
     </g>
     <g id="text_10">
      <!-- −0.2 -->
      <g style="fill: #333333" transform="translate(30.372417 226.628812) scale(0.0833 -0.0833)">
       <use xlink:href="#DejaVuSans-2212"/>
       <use xlink:href="#DejaVuSans-30" transform="translate(83.789062 0)"/>
       <use xlink:href="#DejaVuSans-2e" transform="translate(147.412109 0)"/>
       <use xlink:href="#DejaVuSans-32" transform="translate(179.199219 0)"/>
      </g>
     </g>
    </g>
    <g id="ytick_3">
     <g id="line2d_12">
      <path d="M 57.6 179.050537 
L 414.72 179.050537 
" clip-path="url(#p83ab40c271)" style="fill: none; stroke: #dedede; stroke-width: 0.8; stroke-linecap: square"/>
     </g>
     <g id="line2d_13">
      <g>
       <use xlink:href="#m9edbfe6586" x="57.6" y="179.050537" style="fill: #333333; stroke: #333333; stroke-width: 0.8"/>
      </g>
     </g>
     <g id="text_11">
      <!-- −0.1 -->
      <g style="fill: #333333" transform="translate(30.372417 182.215286) scale(0.0833 -0.0833)">
       <use xlink:href="#DejaVuSans-2212"/>
       <use xlink:href="#DejaVuSans-30" transform="translate(83.789062 0)"/>
       <use xlink:href="#DejaVuSans-2e" transform="translate(147.412109 0)"/>
       <use xlink:href="#DejaVuSans-31" transform="translate(179.199219 0)"/>
      </g>
     </g>
    </g>
    <g id="ytick_4">
     <g id="line2d_14">
      <path d="M 57.6 134.637011 
L 414.72 134.637011 
" clip-path="url(#p83ab40c271)" style="fill: none; stroke: #dedede; stroke-width: 0.8; stroke-linecap: square"/>
     </g>
     <g id="line2d_15">
      <g>
       <use xlink:href="#m9edbfe6586" x="57.6" y="134.637011" style="fill: #333333; stroke: #333333; stroke-width: 0.8"/>
      </g>
     </g>
     <g id="text_12">
      <!-- 0.0 -->
      <g style="fill: #333333" transform="translate(37.352697 137.801761) scale(0.0833 -0.0833)">
       <use xlink:href="#DejaVuSans-30"/>
       <use xlink:href="#DejaVuSans-2e" transform="translate(63.623047 0)"/>
       <use xlink:href="#DejaVuSans-30" transform="translate(95.410156 0)"/>
      </g>
     </g>
    </g>
    <g id="ytick_5">
     <g id="line2d_16">
      <path d="M 57.6 90.223486 
L 414.72 90.223486 
" clip-path="url(#p83ab40c271)" style="fill: none; stroke: #dedede; stroke-width: 0.8; stroke-linecap: square"/>
     </g>
     <g id="line2d_17">
      <g>
       <use xlink:href="#m9edbfe6586" x="57.6" y="90.223486" style="fill: #333333; stroke: #333333; stroke-width: 0.8"/>
      </g>
     </g>
     <g id="text_13">
      <!-- 0.1 -->
      <g style="fill: #333333" transform="translate(37.352697 93.388235) scale(0.0833 -0.0833)">
       <use xlink:href="#DejaVuSans-30"/>
       <use xlink:href="#DejaVuSans-2e" transform="translate(63.623047 0)"/>
       <use xlink:href="#DejaVuSans-31" transform="translate(95.410156 0)"/>
      </g>
     </g>
    </g>
    <g id="ytick_6">
     <g id="line2d_18">
      <path d="M 57.6 45.80996 
L 414.72 45.80996 
" clip-path="url(#p83ab40c271)" style="fill: none; stroke: #dedede; stroke-width: 0.8; stroke-linecap: square"/>
     </g>
     <g id="line2d_19">
      <g>
       <use xlink:href="#m9edbfe6586" x="57.6" y="45.80996" style="fill: #333333; stroke: #333333; stroke-width: 0.8"/>
      </g>
     </g>
     <g id="text_14">
      <!-- 0.2 -->
      <g style="fill: #333333" transform="translate(37.352697 48.974709) scale(0.0833 -0.0833)">
       <use xlink:href="#DejaVuSans-30"/>
       <use xlink:href="#DejaVuSans-2e" transform="translate(63.623047 0)"/>
       <use xlink:href="#DejaVuSans-32" transform="translate(95.410156 0)"/>
      </g>
     </g>
    </g>
   </g>
   <g id="line2d_20">
    <path d="M 73.832727 138.983452 
L 75.030857 123.652544 
L 76.113039 139.753792 
L 77.311169 151.195057 
L 78.470649 150.870312 
L 79.668779 190.3113 
L 80.82826 106.168675 
L 82.02639 129.470241 
L 83.224519 144.240401 
L 84.384 119.569429 
L 85.58213 124.93429 
L 86.74161 132.495281 
L 87.93974 154.350532 
L 89.13787 145.370758 
L 90.220052 142.463017 
L 91.418182 131.164557 
L 92.577662 155.178424 
L 93.775792 293.395093 
L 94.935273 152.980531 
L 96.133403 132.046225 
L 97.331532 100.626319 
L 98.491013 130.761638 
L 99.689143 133.195206 
L 100.848623 118.993569 
L 102.046753 129.301304 
L 103.244883 147.724675 
L 104.327065 145.394309 
L 105.525195 131.653106 
L 106.684675 166.548287 
L 107.882805 259.374332 
L 109.042286 110.343546 
L 110.240416 137.064954 
L 112.598026 119.125294 
L 113.796156 124.93429 
L 114.955636 163.98447 
L 116.153766 171.538567 
L 117.351896 145.015449 
L 118.472727 151.168068 
L 119.670857 128.05561 
L 120.830338 169.47958 
L 122.028468 109.70075 
L 123.187948 173.766061 
L 124.386078 136.487578 
L 125.584208 126.830299 
L 126.743688 129.251578 
L 127.941818 134.101904 
L 129.101299 113.308637 
L 131.497558 185.20969 
L 132.57974 163.737095 
L 133.77787 204.846596 
L 136.135481 128.532085 
L 137.294961 258.062933 
L 138.493091 120.365468 
L 139.691221 132.026682 
L 142.048831 162.241652 
L 143.208312 151.237788 
L 144.406442 126.769733 
L 145.604571 161.981416 
L 146.686753 128.739237 
L 147.884883 156.036132 
L 149.044364 110.054282 
L 150.242494 112.809697 
L 151.401974 89.780084 
L 152.600104 98.869322 
L 153.798234 109.198129 
L 154.957714 102.781117 
L 156.155844 139.279859 
L 157.315325 122.058102 
L 158.513455 158.703058 
L 159.711584 146.481096 
L 160.793766 173.552485 
L 161.991896 126.41231 
L 163.151377 146.340133 
L 164.349506 147.763142 
L 165.508987 126.554483 
L 166.707117 225.359043 
L 167.905247 164.803864 
L 169.064727 146.66168 
L 170.262857 143.010595 
L 171.422338 126.988003 
L 172.620468 122.061899 
L 173.818597 132.0467 
L 174.939429 119.012675 
L 176.137558 133.873782 
L 177.297039 193.551711 
L 178.495169 177.564618 
L 179.654649 104.703029 
L 180.852779 115.702048 
L 182.050909 143.396544 
L 183.21039 140.665854 
L 184.408519 115.581464 
L 185.568 124.6785 
L 186.76613 115.044562 
L 187.96426 111.172343 
L 189.046442 119.32357 
L 190.244571 129.343603 
L 191.404052 145.67393 
L 192.602182 79.233072 
L 193.761662 91.86752 
L 194.959792 295.488 
L 196.157922 137.445132 
L 197.317403 137.601321 
L 198.515532 130.263913 
L 199.675013 109.622315 
L 200.873143 125.748222 
L 202.071273 124.851709 
L 203.153455 148.902978 
L 204.351584 150.129133 
L 205.511065 143.453254 
L 206.709195 124.93459 
L 207.868675 209.65219 
L 209.066805 144.437599 
L 210.264935 193.805896 
L 211.424416 166.381285 
L 212.622545 121.914171 
L 214.980156 108.47136 
L 216.178286 120.543597 
L 217.260468 155.076458 
L 218.458597 139.247819 
L 219.618078 135.7253 
L 220.816208 129.153875 
L 221.975688 117.982673 
L 223.173818 187.65196 
L 224.371948 119.635308 
L 225.531429 131.605495 
L 226.729558 133.195206 
L 227.889039 129.563988 
L 229.087169 114.111878 
L 230.285299 143.594217 
L 231.40613 154.809977 
L 232.60426 114.06535 
L 233.76374 159.264469 
L 234.96187 84.385041 
L 236.121351 123.356709 
L 237.319481 115.924115 
L 238.51761 133.581155 
L 239.677091 137.068358 
L 240.875221 110.207427 
L 242.034701 174.199581 
L 243.232831 143.424805 
L 244.430961 130.492227 
L 245.513143 122.254862 
L 246.711273 130.276287 
L 247.870753 110.187523 
L 249.068883 93.889535 
L 250.228364 95.331775 
L 251.426494 116.368251 
L 252.624623 126.164096 
L 253.784104 137.246012 
L 254.982234 115.873931 
L 256.141714 145.419617 
L 257.339844 172.20477 
L 258.537974 137.998112 
L 259.620156 91.920424 
L 260.818286 105.537953 
L 261.977766 74.168154 
L 263.175896 139.013677 
L 264.335377 131.706452 
L 265.533506 103.266261 
L 266.731636 133.847636 
L 267.891117 119.658256 
L 269.089247 115.474209 
L 270.248727 136.625738 
L 271.446857 110.647623 
L 272.644987 106.242442 
L 276.084779 138.74542 
L 277.282909 125.82286 
L 278.44239 273.918562 
L 279.640519 117.878311 
L 280.838649 148.592927 
L 281.99813 150.392416 
L 283.19626 146.696918 
L 284.35574 140.134407 
L 285.55387 136.718363 
L 286.752 179.613586 
L 287.872831 116.214623 
L 289.070961 130.453941 
L 290.230442 113.562951 
L 291.428571 89.847904 
L 292.588052 81.785649 
L 293.786182 112.060139 
L 294.984312 130.561035 
L 296.143792 129.518059 
L 297.341922 185.310699 
L 298.501403 141.155918 
L 299.699532 117.398479 
L 300.897662 112.549162 
L 301.979844 111.195895 
L 303.177974 85.907174 
L 304.337455 90.601158 
L 305.535584 106.813871 
L 306.695065 131.084663 
L 307.893195 158.738754 
L 309.091325 152.323663 
L 311.448935 118.094607 
L 312.608416 115.795795 
L 313.806545 118.41999 
L 315.004675 109.395802 
L 316.086857 126.696215 
L 317.284987 125.568453 
L 318.444468 120.624701 
L 319.642597 103.838165 
L 320.802078 96.66418 
L 322.000208 122.763798 
L 323.198338 138.155748 
L 324.357818 141.598538 
L 325.555948 143.055009 
L 326.715429 106.957503 
L 327.913558 112.646232 
L 329.111688 133.645587 
L 330.19387 134.06886 
L 331.392 127.567062 
L 332.551481 110.231936 
L 333.74961 139.280159 
L 334.909091 107.190186 
L 336.107221 124.007377 
L 337.305351 133.847636 
L 338.464831 122.411895 
L 339.662961 153.225706 
L 340.822442 150.305104 
L 342.020571 178.866799 
L 343.218701 106.73099 
L 344.339532 95.251439 
L 345.537662 90.748249 
L 346.697143 102.992532 
L 347.895273 131.99634 
L 349.054753 247.137206 
L 350.252883 125.339783 
L 351.451013 131.093998 
L 352.610494 128.629789 
L 353.808623 143.073436 
L 354.968104 167.981688 
L 356.166234 84.265989 
L 357.364364 53.568 
L 358.446545 57.72201 
L 359.644675 139.914022 
L 362.002286 96.820828 
L 363.161766 99.906368 
L 364.359896 168.554143 
L 365.558026 158.186248 
L 366.717506 123.033684 
L 367.915636 128.087651 
L 369.075117 136.359257 
L 370.273247 135.119476 
L 371.471377 101.31254 
L 372.553558 171.154154 
L 373.751688 119.172905 
L 374.911169 124.222197 
L 376.109299 107.657728 
L 377.268779 273.918562 
L 378.466909 128.937279 
L 379.665039 119.502067 
L 380.824519 143.863628 
L 382.022649 157.045269 
L 383.18213 131.962318 
L 384.38026 158.036855 
L 385.57839 174.150722 
L 386.660571 171.553876 
L 387.858701 157.679432 
L 389.018182 170.323437 
L 390.216312 120.27117 
L 391.375792 119.981281 
L 392.573922 98.203119 
L 393.772052 114.216858 
L 394.931532 137.023945 
L 396.129662 147.007813 
L 397.289143 128.498063 
L 398.487273 157.859201 
L 398.487273 157.859201 
" clip-path="url(#p83ab40c271)" style="fill: none; stroke: #000000; stroke-width: 2; stroke-linecap: square"/>
   </g>
   <g id="line2d_21">
    <path d="M 354.968104 121.808349 
L 356.166234 122.85947 
L 357.364364 122.222818 
L 358.446545 121.55724 
L 359.644675 120.84524 
L 360.804156 120.420722 
L 362.002286 120.5831 
L 363.161766 123.103764 
L 364.359896 122.630534 
L 365.558026 122.675071 
L 366.717506 122.657762 
L 367.915636 122.955967 
L 369.075117 123.712436 
L 370.273247 122.688656 
L 371.471377 121.239771 
L 372.553558 119.996306 
L 373.751688 120.48673 
L 374.911169 120.265068 
L 376.109299 119.661446 
L 377.268779 119.200304 
L 378.466909 120.125992 
L 379.665039 120.619217 
L 380.824519 120.42324 
L 382.022649 120.445218 
L 383.18213 120.616394 
L 384.38026 120.734499 
L 385.57839 120.184773 
L 386.660571 121.121706 
L 387.858701 120.816614 
L 389.018182 120.771115 
L 390.216312 120.391255 
L 391.375792 123.127769 
L 392.573922 122.819397 
L 393.772052 122.652038 
L 394.931532 122.953237 
L 396.129662 123.435919 
L 397.289143 123.414026 
L 398.487273 123.907969 
" clip-path="url(#p83ab40c271)" style="fill: none; stroke: #003dfd; stroke-width: 2; stroke-linecap: square"/>
   </g>
   <g id="legend_1">
    <g id="line2d_22">
     <path d="M 66.6 54.570438 
L 76.6 54.570438 
L 86.6 54.570438 
" style="fill: none; stroke: #000000; stroke-width: 2; stroke-linecap: square"/>
    </g>
    <g id="text_15">
     <!-- train -->
     <g transform="translate(94.6 58.070438) scale(0.1 -0.1)">
      <defs>
       <path id="DejaVuSans-74" d="M 1172 4494 
L 1172 3500 
L 2356 3500 
L 2356 3053 
L 1172 3053 
L 1172 1153 
Q 1172 725 1289 603 
Q 1406 481 1766 481 
L 2356 481 
L 2356 0 
L 1766 0 
Q 1100 0 847 248 
Q 594 497 594 1153 
L 594 3053 
L 172 3053 
L 172 3500 
L 594 3500 
L 594 4494 
L 1172 4494 
z
" transform="scale(0.015625)"/>
       <path id="DejaVuSans-72" d="M 2631 2963 
Q 2534 3019 2420 3045 
Q 2306 3072 2169 3072 
Q 1681 3072 1420 2755 
Q 1159 2438 1159 1844 
L 1159 0 
L 581 0 
L 581 3500 
L 1159 3500 
L 1159 2956 
Q 1341 3275 1631 3429 
Q 1922 3584 2338 3584 
Q 2397 3584 2469 3576 
Q 2541 3569 2628 3553 
L 2631 2963 
z
" transform="scale(0.015625)"/>
       <path id="DejaVuSans-61" d="M 2194 1759 
Q 1497 1759 1228 1600 
Q 959 1441 959 1056 
Q 959 750 1161 570 
Q 1363 391 1709 391 
Q 2188 391 2477 730 
Q 2766 1069 2766 1631 
L 2766 1759 
L 2194 1759 
z
M 3341 1997 
L 3341 0 
L 2766 0 
L 2766 531 
Q 2569 213 2275 61 
Q 1981 -91 1556 -91 
Q 1019 -91 701 211 
Q 384 513 384 1019 
Q 384 1609 779 1909 
Q 1175 2209 1959 2209 
L 2766 2209 
L 2766 2266 
Q 2766 2663 2505 2880 
Q 2244 3097 1772 3097 
Q 1472 3097 1187 3025 
Q 903 2953 641 2809 
L 641 3341 
Q 956 3463 1253 3523 
Q 1550 3584 1831 3584 
Q 2591 3584 2966 3190 
Q 3341 2797 3341 1997 
z
" transform="scale(0.015625)"/>
       <path id="DejaVuSans-69" d="M 603 3500 
L 1178 3500 
L 1178 0 
L 603 0 
L 603 3500 
z
M 603 4863 
L 1178 4863 
L 1178 4134 
L 603 4134 
L 603 4863 
z
" transform="scale(0.015625)"/>
       <path id="DejaVuSans-6e" d="M 3513 2113 
L 3513 0 
L 2938 0 
L 2938 2094 
Q 2938 2591 2744 2837 
Q 2550 3084 2163 3084 
Q 1697 3084 1428 2787 
Q 1159 2491 1159 1978 
L 1159 0 
L 581 0 
L 581 3500 
L 1159 3500 
L 1159 2956 
Q 1366 3272 1645 3428 
Q 1925 3584 2291 3584 
Q 2894 3584 3203 3211 
Q 3513 2838 3513 2113 
z
" transform="scale(0.015625)"/>
      </defs>
      <use xlink:href="#DejaVuSans-74"/>
      <use xlink:href="#DejaVuSans-72" transform="translate(39.208984 0)"/>
      <use xlink:href="#DejaVuSans-61" transform="translate(80.322266 0)"/>
      <use xlink:href="#DejaVuSans-69" transform="translate(141.601562 0)"/>
      <use xlink:href="#DejaVuSans-6e" transform="translate(169.384766 0)"/>
     </g>
    </g>
    <g id="line2d_23">
     <path d="M 66.6 69.248563 
L 76.6 69.248563 
L 86.6 69.248563 
" style="fill: none; stroke: #003dfd; stroke-width: 2; stroke-linecap: square"/>
    </g>
    <g id="text_16">
     <!-- train_forecast -->
     <g transform="translate(94.6 72.748563) scale(0.1 -0.1)">
      <defs>
       <path id="DejaVuSans-5f" d="M 3263 -1063 
L 3263 -1509 
L -63 -1509 
L -63 -1063 
L 3263 -1063 
z
" transform="scale(0.015625)"/>
       <path id="DejaVuSans-66" d="M 2375 4863 
L 2375 4384 
L 1825 4384 
Q 1516 4384 1395 4259 
Q 1275 4134 1275 3809 
L 1275 3500 
L 2222 3500 
L 2222 3053 
L 1275 3053 
L 1275 0 
L 697 0 
L 697 3053 
L 147 3053 
L 147 3500 
L 697 3500 
L 697 3744 
Q 697 4328 969 4595 
Q 1241 4863 1831 4863 
L 2375 4863 
z
" transform="scale(0.015625)"/>
       <path id="DejaVuSans-6f" d="M 1959 3097 
Q 1497 3097 1228 2736 
Q 959 2375 959 1747 
Q 959 1119 1226 758 
Q 1494 397 1959 397 
Q 2419 397 2687 759 
Q 2956 1122 2956 1747 
Q 2956 2369 2687 2733 
Q 2419 3097 1959 3097 
z
M 1959 3584 
Q 2709 3584 3137 3096 
Q 3566 2609 3566 1747 
Q 3566 888 3137 398 
Q 2709 -91 1959 -91 
Q 1206 -91 779 398 
Q 353 888 353 1747 
Q 353 2609 779 3096 
Q 1206 3584 1959 3584 
z
" transform="scale(0.015625)"/>
       <path id="DejaVuSans-65" d="M 3597 1894 
L 3597 1613 
L 953 1613 
Q 991 1019 1311 708 
Q 1631 397 2203 397 
Q 2534 397 2845 478 
Q 3156 559 3463 722 
L 3463 178 
Q 3153 47 2828 -22 
Q 2503 -91 2169 -91 
Q 1331 -91 842 396 
Q 353 884 353 1716 
Q 353 2575 817 3079 
Q 1281 3584 2069 3584 
Q 2775 3584 3186 3129 
Q 3597 2675 3597 1894 
z
M 3022 2063 
Q 3016 2534 2758 2815 
Q 2500 3097 2075 3097 
Q 1594 3097 1305 2825 
Q 1016 2553 972 2059 
L 3022 2063 
z
" transform="scale(0.015625)"/>
       <path id="DejaVuSans-63" d="M 3122 3366 
L 3122 2828 
Q 2878 2963 2633 3030 
Q 2388 3097 2138 3097 
Q 1578 3097 1268 2742 
Q 959 2388 959 1747 
Q 959 1106 1268 751 
Q 1578 397 2138 397 
Q 2388 397 2633 464 
Q 2878 531 3122 666 
L 3122 134 
Q 2881 22 2623 -34 
Q 2366 -91 2075 -91 
Q 1284 -91 818 406 
Q 353 903 353 1747 
Q 353 2603 823 3093 
Q 1294 3584 2113 3584 
Q 2378 3584 2631 3529 
Q 2884 3475 3122 3366 
z
" transform="scale(0.015625)"/>
       <path id="DejaVuSans-73" d="M 2834 3397 
L 2834 2853 
Q 2591 2978 2328 3040 
Q 2066 3103 1784 3103 
Q 1356 3103 1142 2972 
Q 928 2841 928 2578 
Q 928 2378 1081 2264 
Q 1234 2150 1697 2047 
L 1894 2003 
Q 2506 1872 2764 1633 
Q 3022 1394 3022 966 
Q 3022 478 2636 193 
Q 2250 -91 1575 -91 
Q 1294 -91 989 -36 
Q 684 19 347 128 
L 347 722 
Q 666 556 975 473 
Q 1284 391 1588 391 
Q 1994 391 2212 530 
Q 2431 669 2431 922 
Q 2431 1156 2273 1281 
Q 2116 1406 1581 1522 
L 1381 1569 
Q 847 1681 609 1914 
Q 372 2147 372 2553 
Q 372 3047 722 3315 
Q 1072 3584 1716 3584 
Q 2034 3584 2315 3537 
Q 2597 3491 2834 3397 
z
" transform="scale(0.015625)"/>
      </defs>
      <use xlink:href="#DejaVuSans-74"/>
      <use xlink:href="#DejaVuSans-72" transform="translate(39.208984 0)"/>
      <use xlink:href="#DejaVuSans-61" transform="translate(80.322266 0)"/>
      <use xlink:href="#DejaVuSans-69" transform="translate(141.601562 0)"/>
      <use xlink:href="#DejaVuSans-6e" transform="translate(169.384766 0)"/>
      <use xlink:href="#DejaVuSans-5f" transform="translate(232.763672 0)"/>
      <use xlink:href="#DejaVuSans-66" transform="translate(282.763672 0)"/>
      <use xlink:href="#DejaVuSans-6f" transform="translate(317.96875 0)"/>
      <use xlink:href="#DejaVuSans-72" transform="translate(379.150391 0)"/>
      <use xlink:href="#DejaVuSans-65" transform="translate(418.013672 0)"/>
      <use xlink:href="#DejaVuSans-63" transform="translate(479.537109 0)"/>
      <use xlink:href="#DejaVuSans-61" transform="translate(534.517578 0)"/>
      <use xlink:href="#DejaVuSans-73" transform="translate(595.796875 0)"/>
      <use xlink:href="#DejaVuSans-74" transform="translate(647.896484 0)"/>
     </g>
    </g>
   </g>
  </g>
 </g>
 <defs>
  <clipPath id="p83ab40c271">
   <rect x="57.6" y="41.472" width="357.12" height="266.112"/>
  </clipPath>
 </defs>
</svg>
