<?xml version="1.0" encoding="utf-8" standalone="no"?>
<!DOCTYPE svg PUBLIC "-//W3C//DTD SVG 1.1//EN"
  "http://www.w3.org/Graphics/SVG/1.1/DTD/svg11.dtd">
<svg xmlns:xlink="http://www.w3.org/1999/xlink" width="460.8pt" height="345.6pt" viewBox="0 0 460.8 345.6" xmlns="http://www.w3.org/2000/svg" version="1.1">
 <metadata>
  <rdf:RDF xmlns:dc="http://purl.org/dc/elements/1.1/" xmlns:cc="http://creativecommons.org/ns#" xmlns:rdf="http://www.w3.org/1999/02/22-rdf-syntax-ns#">
   <cc:Work>
    <dc:type rdf:resource="http://purl.org/dc/dcmitype/StillImage"/>
    <dc:date>2025-05-27T13:56:37.819479</dc:date>
    <dc:format>image/svg+xml</dc:format>
    <dc:creator>
     <cc:Agent>
      <dc:title>Matplotlib v3.10.3, https://matplotlib.org/</dc:title>
     </cc:Agent>
    </dc:creator>
   </cc:Work>
  </rdf:RDF>
 </metadata>
 <defs>
  <style type="text/css">*{stroke-linejoin: round; stroke-linecap: butt}</style>
 </defs>
 <g id="figure_1">
  <g id="patch_1">
   <path d="M 0 345.6 
L 460.8 345.6 
L 460.8 0 
L 0 0 
z
" style="fill: #ffffff"/>
  </g>
  <g id="axes_1">
   <g id="patch_2">
    <path d="M 57.6 307.584 
L 414.72 307.584 
L 414.72 41.472 
L 57.6 41.472 
z
" style="fill: #ffffff"/>
   </g>
   <g id="matplotlib.axis_1">
    <g id="xtick_1">
     <g id="line2d_1">
      <path d="M 59.687065 307.584 
L 59.687065 41.472 
" clip-path="url(#p99d8cbcf88)" style="fill: none; stroke: #dedede; stroke-width: 0.8; stroke-linecap: square"/>
     </g>
     <g id="text_1">
      <!-- 2000 -->
      <g style="fill: #333333" transform="translate(49.08714 320.913498) scale(0.0833 -0.0833)">
       <defs>
        <path id="DejaVuSans-32" d="M 1228 531 
L 3431 531 
L 3431 0 
L 469 0 
L 469 531 
Q 828 903 1448 1529 
Q 2069 2156 2228 2338 
Q 2531 2678 2651 2914 
Q 2772 3150 2772 3378 
Q 2772 3750 2511 3984 
Q 2250 4219 1831 4219 
Q 1534 4219 1204 4116 
Q 875 4013 500 3803 
L 500 4441 
Q 881 4594 1212 4672 
Q 1544 4750 1819 4750 
Q 2544 4750 2975 4387 
Q 3406 4025 3406 3419 
Q 3406 3131 3298 2873 
Q 3191 2616 2906 2266 
Q 2828 2175 2409 1742 
Q 1991 1309 1228 531 
z
" transform="scale(0.015625)"/>
        <path id="DejaVuSans-30" d="M 2034 4250 
Q 1547 4250 1301 3770 
Q 1056 3291 1056 2328 
Q 1056 1369 1301 889 
Q 1547 409 2034 409 
Q 2525 409 2770 889 
Q 3016 1369 3016 2328 
Q 3016 3291 2770 3770 
Q 2525 4250 2034 4250 
z
M 2034 4750 
Q 2819 4750 3233 4129 
Q 3647 3509 3647 2328 
Q 3647 1150 3233 529 
Q 2819 -91 2034 -91 
Q 1250 -91 836 529 
Q 422 1150 422 2328 
Q 422 3509 836 4129 
Q 1250 4750 2034 4750 
z
" transform="scale(0.015625)"/>
       </defs>
       <use xlink:href="#DejaVuSans-32"/>
       <use xlink:href="#DejaVuSans-30" transform="translate(63.623047 0)"/>
       <use xlink:href="#DejaVuSans-30" transform="translate(127.246094 0)"/>
       <use xlink:href="#DejaVuSans-30" transform="translate(190.869141 0)"/>
      </g>
     </g>
    </g>
    <g id="xtick_2">
     <g id="line2d_2">
      <path d="M 116.153766 307.584 
L 116.153766 41.472 
" clip-path="url(#p99d8cbcf88)" style="fill: none; stroke: #dedede; stroke-width: 0.8; stroke-linecap: square"/>
     </g>
     <g id="text_2">
      <!-- 2004 -->
      <g style="fill: #333333" transform="translate(105.553841 320.913498) scale(0.0833 -0.0833)">
       <defs>
        <path id="DejaVuSans-34" d="M 2419 4116 
L 825 1625 
L 2419 1625 
L 2419 4116 
z
M 2253 4666 
L 3047 4666 
L 3047 1625 
L 3713 1625 
L 3713 1100 
L 3047 1100 
L 3047 0 
L 2419 0 
L 2419 1100 
L 313 1100 
L 313 1709 
L 2253 4666 
z
" transform="scale(0.015625)"/>
       </defs>
       <use xlink:href="#DejaVuSans-32"/>
       <use xlink:href="#DejaVuSans-30" transform="translate(63.623047 0)"/>
       <use xlink:href="#DejaVuSans-30" transform="translate(127.246094 0)"/>
       <use xlink:href="#DejaVuSans-34" transform="translate(190.869141 0)"/>
      </g>
     </g>
    </g>
    <g id="xtick_3">
     <g id="line2d_3">
      <path d="M 172.620468 307.584 
L 172.620468 41.472 
" clip-path="url(#p99d8cbcf88)" style="fill: none; stroke: #dedede; stroke-width: 0.8; stroke-linecap: square"/>
     </g>
     <g id="text_3">
      <!-- 2008 -->
      <g style="fill: #333333" transform="translate(162.020543 320.913498) scale(0.0833 -0.0833)">
       <defs>
        <path id="DejaVuSans-38" d="M 2034 2216 
Q 1584 2216 1326 1975 
Q 1069 1734 1069 1313 
Q 1069 891 1326 650 
Q 1584 409 2034 409 
Q 2484 409 2743 651 
Q 3003 894 3003 1313 
Q 3003 1734 2745 1975 
Q 2488 2216 2034 2216 
z
M 1403 2484 
Q 997 2584 770 2862 
Q 544 3141 544 3541 
Q 544 4100 942 4425 
Q 1341 4750 2034 4750 
Q 2731 4750 3128 4425 
Q 3525 4100 3525 3541 
Q 3525 3141 3298 2862 
Q 3072 2584 2669 2484 
Q 3125 2378 3379 2068 
Q 3634 1759 3634 1313 
Q 3634 634 3220 271 
Q 2806 -91 2034 -91 
Q 1263 -91 848 271 
Q 434 634 434 1313 
Q 434 1759 690 2068 
Q 947 2378 1403 2484 
z
M 1172 3481 
Q 1172 3119 1398 2916 
Q 1625 2713 2034 2713 
Q 2441 2713 2670 2916 
Q 2900 3119 2900 3481 
Q 2900 3844 2670 4047 
Q 2441 4250 2034 4250 
Q 1625 4250 1398 4047 
Q 1172 3844 1172 3481 
z
" transform="scale(0.015625)"/>
       </defs>
       <use xlink:href="#DejaVuSans-32"/>
       <use xlink:href="#DejaVuSans-30" transform="translate(63.623047 0)"/>
       <use xlink:href="#DejaVuSans-30" transform="translate(127.246094 0)"/>
       <use xlink:href="#DejaVuSans-38" transform="translate(190.869141 0)"/>
      </g>
     </g>
    </g>
    <g id="xtick_4">
     <g id="line2d_4">
      <path d="M 229.087169 307.584 
L 229.087169 41.472 
" clip-path="url(#p99d8cbcf88)" style="fill: none; stroke: #dedede; stroke-width: 0.8; stroke-linecap: square"/>
     </g>
     <g id="text_4">
      <!-- 2012 -->
      <g style="fill: #333333" transform="translate(218.487244 320.913498) scale(0.0833 -0.0833)">
       <defs>
        <path id="DejaVuSans-31" d="M 794 531 
L 1825 531 
L 1825 4091 
L 703 3866 
L 703 4441 
L 1819 4666 
L 2450 4666 
L 2450 531 
L 3481 531 
L 3481 0 
L 794 0 
L 794 531 
z
" transform="scale(0.015625)"/>
       </defs>
       <use xlink:href="#DejaVuSans-32"/>
       <use xlink:href="#DejaVuSans-30" transform="translate(63.623047 0)"/>
       <use xlink:href="#DejaVuSans-31" transform="translate(127.246094 0)"/>
       <use xlink:href="#DejaVuSans-32" transform="translate(190.869141 0)"/>
      </g>
     </g>
    </g>
    <g id="xtick_5">
     <g id="line2d_5">
      <path d="M 285.55387 307.584 
L 285.55387 41.472 
" clip-path="url(#p99d8cbcf88)" style="fill: none; stroke: #dedede; stroke-width: 0.8; stroke-linecap: square"/>
     </g>
     <g id="text_5">
      <!-- 2016 -->
      <g style="fill: #333333" transform="translate(274.953945 320.913498) scale(0.0833 -0.0833)">
       <defs>
        <path id="DejaVuSans-36" d="M 2113 2584 
Q 1688 2584 1439 2293 
Q 1191 2003 1191 1497 
Q 1191 994 1439 701 
Q 1688 409 2113 409 
Q 2538 409 2786 701 
Q 3034 994 3034 1497 
Q 3034 2003 2786 2293 
Q 2538 2584 2113 2584 
z
M 3366 4563 
L 3366 3988 
Q 3128 4100 2886 4159 
Q 2644 4219 2406 4219 
Q 1781 4219 1451 3797 
Q 1122 3375 1075 2522 
Q 1259 2794 1537 2939 
Q 1816 3084 2150 3084 
Q 2853 3084 3261 2657 
Q 3669 2231 3669 1497 
Q 3669 778 3244 343 
Q 2819 -91 2113 -91 
Q 1303 -91 875 529 
Q 447 1150 447 2328 
Q 447 3434 972 4092 
Q 1497 4750 2381 4750 
Q 2619 4750 2861 4703 
Q 3103 4656 3366 4563 
z
" transform="scale(0.015625)"/>
       </defs>
       <use xlink:href="#DejaVuSans-32"/>
       <use xlink:href="#DejaVuSans-30" transform="translate(63.623047 0)"/>
       <use xlink:href="#DejaVuSans-31" transform="translate(127.246094 0)"/>
       <use xlink:href="#DejaVuSans-36" transform="translate(190.869141 0)"/>
      </g>
     </g>
    </g>
    <g id="xtick_6">
     <g id="line2d_6">
      <path d="M 342.020571 307.584 
L 342.020571 41.472 
" clip-path="url(#p99d8cbcf88)" style="fill: none; stroke: #dedede; stroke-width: 0.8; stroke-linecap: square"/>
     </g>
     <g id="text_6">
      <!-- 2020 -->
      <g style="fill: #333333" transform="translate(331.420646 320.913498) scale(0.0833 -0.0833)">
       <use xlink:href="#DejaVuSans-32"/>
       <use xlink:href="#DejaVuSans-30" transform="translate(63.623047 0)"/>
       <use xlink:href="#DejaVuSans-32" transform="translate(127.246094 0)"/>
       <use xlink:href="#DejaVuSans-30" transform="translate(190.869141 0)"/>
      </g>
     </g>
    </g>
    <g id="xtick_7">
     <g id="line2d_7">
      <path d="M 398.487273 307.584 
L 398.487273 41.472 
" clip-path="url(#p99d8cbcf88)" style="fill: none; stroke: #dedede; stroke-width: 0.8; stroke-linecap: square"/>
     </g>
     <g id="text_7">
      <!-- 2024 -->
      <g style="fill: #333333" transform="translate(387.887348 320.913498) scale(0.0833 -0.0833)">
       <use xlink:href="#DejaVuSans-32"/>
       <use xlink:href="#DejaVuSans-30" transform="translate(63.623047 0)"/>
       <use xlink:href="#DejaVuSans-32" transform="translate(127.246094 0)"/>
       <use xlink:href="#DejaVuSans-34" transform="translate(190.869141 0)"/>
      </g>
     </g>
    </g>
    <g id="text_8">
     <!-- time -->
     <g style="fill: #333333" transform="translate(223.454531 334.244316) scale(0.1 -0.1)">
      <defs>
       <path id="DejaVuSans-Bold-74" d="M 1759 4494 
L 1759 3500 
L 2913 3500 
L 2913 2700 
L 1759 2700 
L 1759 1216 
Q 1759 972 1856 886 
Q 1953 800 2241 800 
L 2816 800 
L 2816 0 
L 1856 0 
Q 1194 0 917 276 
Q 641 553 641 1216 
L 641 2700 
L 84 2700 
L 84 3500 
L 641 3500 
L 641 4494 
L 1759 4494 
z
" transform="scale(0.015625)"/>
       <path id="DejaVuSans-Bold-69" d="M 538 3500 
L 1656 3500 
L 1656 0 
L 538 0 
L 538 3500 
z
M 538 4863 
L 1656 4863 
L 1656 3950 
L 538 3950 
L 538 4863 
z
" transform="scale(0.015625)"/>
       <path id="DejaVuSans-Bold-6d" d="M 3781 2919 
Q 3994 3244 4286 3414 
Q 4578 3584 4928 3584 
Q 5531 3584 5847 3212 
Q 6163 2841 6163 2131 
L 6163 0 
L 5038 0 
L 5038 1825 
Q 5041 1866 5042 1909 
Q 5044 1953 5044 2034 
Q 5044 2406 4934 2573 
Q 4825 2741 4581 2741 
Q 4263 2741 4089 2478 
Q 3916 2216 3909 1719 
L 3909 0 
L 2784 0 
L 2784 1825 
Q 2784 2406 2684 2573 
Q 2584 2741 2328 2741 
Q 2006 2741 1831 2477 
Q 1656 2213 1656 1722 
L 1656 0 
L 531 0 
L 531 3500 
L 1656 3500 
L 1656 2988 
Q 1863 3284 2130 3434 
Q 2397 3584 2719 3584 
Q 3081 3584 3359 3409 
Q 3638 3234 3781 2919 
z
" transform="scale(0.015625)"/>
       <path id="DejaVuSans-Bold-65" d="M 4031 1759 
L 4031 1441 
L 1416 1441 
Q 1456 1047 1700 850 
Q 1944 653 2381 653 
Q 2734 653 3104 758 
Q 3475 863 3866 1075 
L 3866 213 
Q 3469 63 3072 -14 
Q 2675 -91 2278 -91 
Q 1328 -91 801 392 
Q 275 875 275 1747 
Q 275 2603 792 3093 
Q 1309 3584 2216 3584 
Q 3041 3584 3536 3087 
Q 4031 2591 4031 1759 
z
M 2881 2131 
Q 2881 2450 2695 2645 
Q 2509 2841 2209 2841 
Q 1884 2841 1681 2658 
Q 1478 2475 1428 2131 
L 2881 2131 
z
" transform="scale(0.015625)"/>
      </defs>
      <use xlink:href="#DejaVuSans-Bold-74"/>
      <use xlink:href="#DejaVuSans-Bold-69" transform="translate(47.802734 0)"/>
      <use xlink:href="#DejaVuSans-Bold-6d" transform="translate(82.080078 0)"/>
      <use xlink:href="#DejaVuSans-Bold-65" transform="translate(186.279297 0)"/>
     </g>
    </g>
   </g>
   <g id="matplotlib.axis_2">
    <g id="ytick_1">
     <g id="line2d_8">
      <path d="M 57.6 269.855785 
L 414.72 269.855785 
" clip-path="url(#p99d8cbcf88)" style="fill: none; stroke: #dedede; stroke-width: 0.8; stroke-linecap: square"/>
     </g>
     <g id="line2d_9">
      <defs>
       <path id="md92cec4de1" d="M 0 0 
L -3.5 0 
" style="stroke: #333333; stroke-width: 0.8"/>
      </defs>
      <g>
       <use xlink:href="#md92cec4de1" x="57.6" y="269.855785" style="fill: #333333; stroke: #333333; stroke-width: 0.8"/>
      </g>
     </g>
     <g id="text_9">
      <!-- −0.3 -->
      <g style="fill: #333333" transform="translate(30.372417 273.020535) scale(0.0833 -0.0833)">
       <defs>
        <path id="DejaVuSans-2212" d="M 678 2272 
L 4684 2272 
L 4684 1741 
L 678 1741 
L 678 2272 
z
" transform="scale(0.015625)"/>
        <path id="DejaVuSans-2e" d="M 684 794 
L 1344 794 
L 1344 0 
L 684 0 
L 684 794 
z
" transform="scale(0.015625)"/>
        <path id="DejaVuSans-33" d="M 2597 2516 
Q 3050 2419 3304 2112 
Q 3559 1806 3559 1356 
Q 3559 666 3084 287 
Q 2609 -91 1734 -91 
Q 1441 -91 1130 -33 
Q 819 25 488 141 
L 488 750 
Q 750 597 1062 519 
Q 1375 441 1716 441 
Q 2309 441 2620 675 
Q 2931 909 2931 1356 
Q 2931 1769 2642 2001 
Q 2353 2234 1838 2234 
L 1294 2234 
L 1294 2753 
L 1863 2753 
Q 2328 2753 2575 2939 
Q 2822 3125 2822 3475 
Q 2822 3834 2567 4026 
Q 2313 4219 1838 4219 
Q 1578 4219 1281 4162 
Q 984 4106 628 3988 
L 628 4550 
Q 988 4650 1302 4700 
Q 1616 4750 1894 4750 
Q 2613 4750 3031 4423 
Q 3450 4097 3450 3541 
Q 3450 3153 3228 2886 
Q 3006 2619 2597 2516 
z
" transform="scale(0.015625)"/>
       </defs>
       <use xlink:href="#DejaVuSans-2212"/>
       <use xlink:href="#DejaVuSans-30" transform="translate(83.789062 0)"/>
       <use xlink:href="#DejaVuSans-2e" transform="translate(147.412109 0)"/>
       <use xlink:href="#DejaVuSans-33" transform="translate(179.199219 0)"/>
      </g>
     </g>
    </g>
    <g id="ytick_2">
     <g id="line2d_10">
      <path d="M 57.6 219.751229 
L 414.72 219.751229 
" clip-path="url(#p99d8cbcf88)" style="fill: none; stroke: #dedede; stroke-width: 0.8; stroke-linecap: square"/>
     </g>
     <g id="line2d_11">
      <g>
       <use xlink:href="#md92cec4de1" x="57.6" y="219.751229" style="fill: #333333; stroke: #333333; stroke-width: 0.8"/>
      </g>
     </g>
     <g id="text_10">
      <!-- −0.2 -->
      <g style="fill: #333333" transform="translate(30.372417 222.915978) scale(0.0833 -0.0833)">
       <use xlink:href="#DejaVuSans-2212"/>
       <use xlink:href="#DejaVuSans-30" transform="translate(83.789062 0)"/>
       <use xlink:href="#DejaVuSans-2e" transform="translate(147.412109 0)"/>
       <use xlink:href="#DejaVuSans-32" transform="translate(179.199219 0)"/>
      </g>
     </g>
    </g>
    <g id="ytick_3">
     <g id="line2d_12">
      <path d="M 57.6 169.646672 
L 414.72 169.646672 
" clip-path="url(#p99d8cbcf88)" style="fill: none; stroke: #dedede; stroke-width: 0.8; stroke-linecap: square"/>
     </g>
     <g id="line2d_13">
      <g>
       <use xlink:href="#md92cec4de1" x="57.6" y="169.646672" style="fill: #333333; stroke: #333333; stroke-width: 0.8"/>
      </g>
     </g>
     <g id="text_11">
      <!-- −0.1 -->
      <g style="fill: #333333" transform="translate(30.372417 172.811422) scale(0.0833 -0.0833)">
       <use xlink:href="#DejaVuSans-2212"/>
       <use xlink:href="#DejaVuSans-30" transform="translate(83.789062 0)"/>
       <use xlink:href="#DejaVuSans-2e" transform="translate(147.412109 0)"/>
       <use xlink:href="#DejaVuSans-31" transform="translate(179.199219 0)"/>
      </g>
     </g>
    </g>
    <g id="ytick_4">
     <g id="line2d_14">
      <path d="M 57.6 119.542116 
L 414.72 119.542116 
" clip-path="url(#p99d8cbcf88)" style="fill: none; stroke: #dedede; stroke-width: 0.8; stroke-linecap: square"/>
     </g>
     <g id="line2d_15">
      <g>
       <use xlink:href="#md92cec4de1" x="57.6" y="119.542116" style="fill: #333333; stroke: #333333; stroke-width: 0.8"/>
      </g>
     </g>
     <g id="text_12">
      <!-- 0.0 -->
      <g style="fill: #333333" transform="translate(37.352697 122.706865) scale(0.0833 -0.0833)">
       <use xlink:href="#DejaVuSans-30"/>
       <use xlink:href="#DejaVuSans-2e" transform="translate(63.623047 0)"/>
       <use xlink:href="#DejaVuSans-30" transform="translate(95.410156 0)"/>
      </g>
     </g>
    </g>
    <g id="ytick_5">
     <g id="line2d_16">
      <path d="M 57.6 69.437559 
L 414.72 69.437559 
" clip-path="url(#p99d8cbcf88)" style="fill: none; stroke: #dedede; stroke-width: 0.8; stroke-linecap: square"/>
     </g>
     <g id="line2d_17">
      <g>
       <use xlink:href="#md92cec4de1" x="57.6" y="69.437559" style="fill: #333333; stroke: #333333; stroke-width: 0.8"/>
      </g>
     </g>
     <g id="text_13">
      <!-- 0.1 -->
      <g style="fill: #333333" transform="translate(37.352697 72.602309) scale(0.0833 -0.0833)">
       <use xlink:href="#DejaVuSans-30"/>
       <use xlink:href="#DejaVuSans-2e" transform="translate(63.623047 0)"/>
       <use xlink:href="#DejaVuSans-31" transform="translate(95.410156 0)"/>
      </g>
     </g>
    </g>
   </g>
   <g id="line2d_18">
    <path d="M 73.832727 116.779322 
L 75.030857 129.988537 
L 76.113039 120.018621 
L 77.311169 127.185666 
L 78.470649 121.624378 
L 79.668779 220.042562 
L 80.82826 116.754356 
L 82.02639 104.739954 
L 83.224519 101.335286 
L 84.384 103.82287 
L 85.58213 97.780683 
L 86.74161 114.30928 
L 87.93974 103.952556 
L 89.13787 134.09711 
L 90.220052 127.834932 
L 92.577662 142.918815 
L 93.775792 147.090327 
L 94.935273 133.890115 
L 96.133403 126.886167 
L 97.331532 138.262344 
L 98.491013 155.430563 
L 99.689143 146.983358 
L 100.848623 112.806144 
L 102.046753 118.583086 
L 103.244883 126.030277 
L 104.327065 135.250406 
L 105.525195 82.542507 
L 106.684675 85.448889 
L 107.882805 82.856286 
L 109.042286 91.702078 
L 110.240416 95.01967 
L 111.438545 92.466779 
L 112.598026 91.497149 
L 113.796156 78.089593 
L 114.955636 112.355202 
L 116.153766 116.929636 
L 117.351896 100.376744 
L 118.472727 111.049905 
L 119.670857 120.571865 
L 120.830338 116.112877 
L 122.028468 91.374061 
L 123.187948 160.796262 
L 124.386078 118.468602 
L 125.584208 122.128677 
L 126.743688 135.288532 
L 127.941818 103.010163 
L 129.101299 128.839602 
L 130.299429 120.186432 
L 131.497558 116.05947 
L 132.57974 114.457015 
L 133.77787 110.150117 
L 134.937351 147.728852 
L 136.135481 145.436877 
L 137.294961 121.464185 
L 138.493091 112.055219 
L 139.691221 109.502329 
L 140.850701 133.484768 
L 142.048831 153.997996 
L 143.208312 112.455412 
L 144.406442 101.24691 
L 145.604571 100.827685 
L 146.686753 80.185499 
L 147.884883 103.786839 
L 149.044364 98.075237 
L 150.242494 119.131985 
L 151.401974 88.294968 
L 152.600104 96.222179 
L 153.798234 122.629722 
L 154.957714 110.787403 
L 156.155844 123.885157 
L 157.315325 107.444956 
L 158.513455 110.967194 
L 159.711584 103.63354 
L 160.793766 116.260779 
L 161.991896 115.661618 
L 163.151377 131.595185 
L 164.349506 131.106974 
L 165.508987 137.347329 
L 166.707117 128.689932 
L 167.905247 140.767572 
L 169.064727 135.689368 
L 170.262857 149.53869 
L 171.422338 123.227891 
L 172.620468 127.401488 
L 173.818597 110.99891 
L 174.939429 81.889054 
L 176.137558 78.083201 
L 177.297039 134.40104 
L 179.654649 95.810652 
L 180.852779 112.906996 
L 182.050909 143.2728 
L 183.21039 152.324081 
L 184.408519 121.348431 
L 185.568 135.75403 
L 186.76613 116.378486 
L 187.96426 115.307902 
L 189.046442 133.045806 
L 190.244571 136.855846 
L 191.404052 158.300914 
L 192.602182 101.445076 
L 193.761662 101.722989 
L 194.959792 125.683658 
L 196.157922 104.642187 
L 197.317403 116.198696 
L 198.515532 122.883066 
L 199.675013 126.033746 
L 200.873143 141.731391 
L 202.071273 99.775489 
L 203.153455 80.436021 
L 204.351584 89.256517 
L 205.511065 114.910368 
L 206.709195 105.253023 
L 207.868675 118.307598 
L 209.066805 122.978012 
L 210.264935 138.11203 
L 211.424416 109.384476 
L 212.622545 95.32556 
L 213.782026 107.344747 
L 214.980156 117.430682 
L 216.178286 109.595982 
L 217.260468 89.504946 
L 218.458597 111.202313 
L 219.618078 125.332115 
L 220.816208 134.814711 
L 221.975688 123.017426 
L 223.173818 86.802522 
L 224.371948 117.318639 
L 225.531429 169.008898 
L 226.729558 142.323634 
L 227.889039 144.87306 
L 229.087169 105.505797 
L 230.285299 116.61062 
L 231.40613 109.145932 
L 232.60426 115.260782 
L 233.76374 102.885274 
L 234.96187 138.87318 
L 236.121351 112.745992 
L 237.319481 133.449864 
L 238.51761 118.32073 
L 239.677091 129.22588 
L 240.875221 126.208573 
L 242.034701 136.505599 
L 243.232831 142.032019 
L 244.430961 104.284899 
L 245.513143 114.657434 
L 246.711273 110.350536 
L 247.870753 120.772601 
L 249.068883 114.722784 
L 250.228364 121.614498 
L 252.624623 177.744734 
L 253.784104 155.530772 
L 254.982234 153.296532 
L 256.141714 136.555703 
L 257.339844 127.802325 
L 258.537974 148.777745 
L 259.620156 115.358897 
L 260.818286 109.799385 
L 261.977766 117.866537 
L 263.175896 105.0025 
L 264.335377 105.180204 
L 265.533506 103.888176 
L 266.731636 101.886436 
L 267.891117 103.27172 
L 269.089247 112.2609 
L 270.248727 104.238264 
L 271.446857 145.389024 
L 272.644987 136.051188 
L 273.727169 136.152288 
L 274.925299 104.638616 
L 276.084779 127.03567 
L 277.282909 110.313583 
L 278.44239 186.850631 
L 279.640519 128.589722 
L 280.838649 126.838505 
L 281.99813 113.192422 
L 283.19626 105.897621 
L 284.35574 130.743575 
L 285.55387 131.309644 
L 286.752 107.140859 
L 287.872831 146.423722 
L 289.070961 140.413269 
L 290.230442 126.634834 
L 291.428571 91.674688 
L 292.588052 219.268279 
L 293.786182 90.41005 
L 294.984312 116.066025 
L 296.143792 53.568 
L 297.341922 139.786908 
L 298.501403 156.74784 
L 299.699532 148.09467 
L 300.897662 183.750726 
L 301.979844 165.463454 
L 303.177974 159.252583 
L 304.337455 98.175446 
L 305.535584 113.119438 
L 306.695065 142.508098 
L 307.893195 131.295368 
L 309.091325 124.433486 
L 310.250805 147.413834 
L 313.806545 97.138336 
L 315.004675 119.867416 
L 316.086857 133.196119 
L 317.284987 120.672074 
L 318.444468 119.620196 
L 319.642597 121.236376 
L 320.802078 131.284678 
L 322.000208 150.385204 
L 323.198338 144.3751 
L 324.357818 141.10066 
L 325.555948 130.29854 
L 326.715429 104.238264 
L 327.913558 126.64992 
L 329.111688 143.667081 
L 330.19387 139.308875 
L 331.392 144.82247 
L 332.551481 128.639016 
L 333.74961 143.482799 
L 334.909091 124.019517 
L 336.107221 144.673285 
L 337.305351 92.065943 
L 338.464831 156.432654 
L 339.662961 147.88524 
L 340.822442 137.457585 
L 342.020571 129.956821 
L 343.218701 113.804765 
L 344.339532 106.791018 
L 345.537662 115.912141 
L 346.697143 96.371682 
L 347.895273 92.57657 
L 349.054753 112.445365 
L 350.252883 123.078221 
L 351.451013 119.873972 
L 352.610494 98.712205 
L 353.808623 104.763823 
L 354.968104 119.269631 
L 356.166234 105.505797 
L 357.364364 96.618902 
L 358.446545 65.855596 
L 359.644675 59.143679 
L 360.804156 97.173355 
L 362.002286 81.503463 
L 363.161766 109.890032 
L 364.359896 295.488 
L 365.558026 141.418931 
L 366.717506 117.3511 
L 367.915636 163.868593 
L 369.075117 121.875068 
L 370.273247 102.198896 
L 371.471377 142.915512 
L 372.553558 125.2796 
L 373.751688 159.402896 
L 374.911169 153.039935 
L 376.109299 141.077781 
L 377.268779 90.148837 
L 378.466909 107.245181 
L 379.665039 82.495973 
L 380.824519 124.315634 
L 382.022649 129.296449 
L 383.18213 117.014926 
L 384.38026 112.269912 
L 385.57839 126.080381 
L 386.660571 147.626232 
L 387.858701 141.415361 
L 389.018182 120.171346 
L 390.216312 108.96076 
L 391.375792 110.240764 
L 392.573922 103.48734 
L 393.772052 83.447959 
L 394.931532 94.80405 
L 396.129662 98.18152 
L 397.289143 98.275822 
L 398.487273 95.685304 
L 398.487273 95.685304 
" clip-path="url(#p99d8cbcf88)" style="fill: none; stroke: #000000; stroke-width: 2; stroke-linecap: square"/>
   </g>
   <g id="line2d_19">
    <path d="M 354.968104 130.942486 
L 356.166234 130.90498 
L 357.364364 130.502396 
L 358.446545 126.882197 
L 359.644675 129.891223 
L 360.804156 129.210447 
L 362.002286 124.49942 
L 363.161766 124.781332 
L 364.359896 124.943867 
L 365.558026 124.840361 
L 366.717506 124.665061 
L 367.915636 119.542116 
L 369.075117 119.542116 
L 370.273247 119.542116 
L 371.471377 119.542116 
L 372.553558 119.542116 
L 373.751688 119.542116 
L 374.911169 119.542116 
L 376.109299 119.542116 
L 377.268779 119.542116 
L 378.466909 119.542286 
L 379.665039 119.542121 
L 380.824519 119.542115 
L 382.022649 119.542125 
L 383.18213 119.542116 
L 384.38026 119.542113 
L 385.57839 119.54212 
L 386.660571 119.542117 
L 387.858701 119.542122 
L 389.018182 119.542123 
L 390.216312 119.542121 
L 391.375792 119.54211 
L 392.573922 119.542114 
L 393.772052 119.542108 
L 394.931532 119.542117 
L 396.129662 119.542118 
L 397.289143 119.542115 
L 398.487273 119.542115 
" clip-path="url(#p99d8cbcf88)" style="fill: none; stroke: #003dfd; stroke-width: 2; stroke-linecap: square"/>
   </g>
   <g id="legend_1">
    <g id="line2d_20">
     <path d="M 66.6 278.048062 
L 76.6 278.048062 
L 86.6 278.048062 
" style="fill: none; stroke: #000000; stroke-width: 2; stroke-linecap: square"/>
    </g>
    <g id="text_14">
     <!-- train -->
     <g transform="translate(94.6 281.548062) scale(0.1 -0.1)">
      <defs>
       <path id="DejaVuSans-74" d="M 1172 4494 
L 1172 3500 
L 2356 3500 
L 2356 3053 
L 1172 3053 
L 1172 1153 
Q 1172 725 1289 603 
Q 1406 481 1766 481 
L 2356 481 
L 2356 0 
L 1766 0 
Q 1100 0 847 248 
Q 594 497 594 1153 
L 594 3053 
L 172 3053 
L 172 3500 
L 594 3500 
L 594 4494 
L 1172 4494 
z
" transform="scale(0.015625)"/>
       <path id="DejaVuSans-72" d="M 2631 2963 
Q 2534 3019 2420 3045 
Q 2306 3072 2169 3072 
Q 1681 3072 1420 2755 
Q 1159 2438 1159 1844 
L 1159 0 
L 581 0 
L 581 3500 
L 1159 3500 
L 1159 2956 
Q 1341 3275 1631 3429 
Q 1922 3584 2338 3584 
Q 2397 3584 2469 3576 
Q 2541 3569 2628 3553 
L 2631 2963 
z
" transform="scale(0.015625)"/>
       <path id="DejaVuSans-61" d="M 2194 1759 
Q 1497 1759 1228 1600 
Q 959 1441 959 1056 
Q 959 750 1161 570 
Q 1363 391 1709 391 
Q 2188 391 2477 730 
Q 2766 1069 2766 1631 
L 2766 1759 
L 2194 1759 
z
M 3341 1997 
L 3341 0 
L 2766 0 
L 2766 531 
Q 2569 213 2275 61 
Q 1981 -91 1556 -91 
Q 1019 -91 701 211 
Q 384 513 384 1019 
Q 384 1609 779 1909 
Q 1175 2209 1959 2209 
L 2766 2209 
L 2766 2266 
Q 2766 2663 2505 2880 
Q 2244 3097 1772 3097 
Q 1472 3097 1187 3025 
Q 903 2953 641 2809 
L 641 3341 
Q 956 3463 1253 3523 
Q 1550 3584 1831 3584 
Q 2591 3584 2966 3190 
Q 3341 2797 3341 1997 
z
" transform="scale(0.015625)"/>
       <path id="DejaVuSans-69" d="M 603 3500 
L 1178 3500 
L 1178 0 
L 603 0 
L 603 3500 
z
M 603 4863 
L 1178 4863 
L 1178 4134 
L 603 4134 
L 603 4863 
z
" transform="scale(0.015625)"/>
       <path id="DejaVuSans-6e" d="M 3513 2113 
L 3513 0 
L 2938 0 
L 2938 2094 
Q 2938 2591 2744 2837 
Q 2550 3084 2163 3084 
Q 1697 3084 1428 2787 
Q 1159 2491 1159 1978 
L 1159 0 
L 581 0 
L 581 3500 
L 1159 3500 
L 1159 2956 
Q 1366 3272 1645 3428 
Q 1925 3584 2291 3584 
Q 2894 3584 3203 3211 
Q 3513 2838 3513 2113 
z
" transform="scale(0.015625)"/>
      </defs>
      <use xlink:href="#DejaVuSans-74"/>
      <use xlink:href="#DejaVuSans-72" transform="translate(39.208984 0)"/>
      <use xlink:href="#DejaVuSans-61" transform="translate(80.322266 0)"/>
      <use xlink:href="#DejaVuSans-69" transform="translate(141.601562 0)"/>
      <use xlink:href="#DejaVuSans-6e" transform="translate(169.384766 0)"/>
     </g>
    </g>
    <g id="line2d_21">
     <path d="M 66.6 292.726187 
L 76.6 292.726187 
L 86.6 292.726187 
" style="fill: none; stroke: #003dfd; stroke-width: 2; stroke-linecap: square"/>
    </g>
    <g id="text_15">
     <!-- train_forecast -->
     <g transform="translate(94.6 296.226187) scale(0.1 -0.1)">
      <defs>
       <path id="DejaVuSans-5f" d="M 3263 -1063 
L 3263 -1509 
L -63 -1509 
L -63 -1063 
L 3263 -1063 
z
" transform="scale(0.015625)"/>
       <path id="DejaVuSans-66" d="M 2375 4863 
L 2375 4384 
L 1825 4384 
Q 1516 4384 1395 4259 
Q 1275 4134 1275 3809 
L 1275 3500 
L 2222 3500 
L 2222 3053 
L 1275 3053 
L 1275 0 
L 697 0 
L 697 3053 
L 147 3053 
L 147 3500 
L 697 3500 
L 697 3744 
Q 697 4328 969 4595 
Q 1241 4863 1831 4863 
L 2375 4863 
z
" transform="scale(0.015625)"/>
       <path id="DejaVuSans-6f" d="M 1959 3097 
Q 1497 3097 1228 2736 
Q 959 2375 959 1747 
Q 959 1119 1226 758 
Q 1494 397 1959 397 
Q 2419 397 2687 759 
Q 2956 1122 2956 1747 
Q 2956 2369 2687 2733 
Q 2419 3097 1959 3097 
z
M 1959 3584 
Q 2709 3584 3137 3096 
Q 3566 2609 3566 1747 
Q 3566 888 3137 398 
Q 2709 -91 1959 -91 
Q 1206 -91 779 398 
Q 353 888 353 1747 
Q 353 2609 779 3096 
Q 1206 3584 1959 3584 
z
" transform="scale(0.015625)"/>
       <path id="DejaVuSans-65" d="M 3597 1894 
L 3597 1613 
L 953 1613 
Q 991 1019 1311 708 
Q 1631 397 2203 397 
Q 2534 397 2845 478 
Q 3156 559 3463 722 
L 3463 178 
Q 3153 47 2828 -22 
Q 2503 -91 2169 -91 
Q 1331 -91 842 396 
Q 353 884 353 1716 
Q 353 2575 817 3079 
Q 1281 3584 2069 3584 
Q 2775 3584 3186 3129 
Q 3597 2675 3597 1894 
z
M 3022 2063 
Q 3016 2534 2758 2815 
Q 2500 3097 2075 3097 
Q 1594 3097 1305 2825 
Q 1016 2553 972 2059 
L 3022 2063 
z
" transform="scale(0.015625)"/>
       <path id="DejaVuSans-63" d="M 3122 3366 
L 3122 2828 
Q 2878 2963 2633 3030 
Q 2388 3097 2138 3097 
Q 1578 3097 1268 2742 
Q 959 2388 959 1747 
Q 959 1106 1268 751 
Q 1578 397 2138 397 
Q 2388 397 2633 464 
Q 2878 531 3122 666 
L 3122 134 
Q 2881 22 2623 -34 
Q 2366 -91 2075 -91 
Q 1284 -91 818 406 
Q 353 903 353 1747 
Q 353 2603 823 3093 
Q 1294 3584 2113 3584 
Q 2378 3584 2631 3529 
Q 2884 3475 3122 3366 
z
" transform="scale(0.015625)"/>
       <path id="DejaVuSans-73" d="M 2834 3397 
L 2834 2853 
Q 2591 2978 2328 3040 
Q 2066 3103 1784 3103 
Q 1356 3103 1142 2972 
Q 928 2841 928 2578 
Q 928 2378 1081 2264 
Q 1234 2150 1697 2047 
L 1894 2003 
Q 2506 1872 2764 1633 
Q 3022 1394 3022 966 
Q 3022 478 2636 193 
Q 2250 -91 1575 -91 
Q 1294 -91 989 -36 
Q 684 19 347 128 
L 347 722 
Q 666 556 975 473 
Q 1284 391 1588 391 
Q 1994 391 2212 530 
Q 2431 669 2431 922 
Q 2431 1156 2273 1281 
Q 2116 1406 1581 1522 
L 1381 1569 
Q 847 1681 609 1914 
Q 372 2147 372 2553 
Q 372 3047 722 3315 
Q 1072 3584 1716 3584 
Q 2034 3584 2315 3537 
Q 2597 3491 2834 3397 
z
" transform="scale(0.015625)"/>
      </defs>
      <use xlink:href="#DejaVuSans-74"/>
      <use xlink:href="#DejaVuSans-72" transform="translate(39.208984 0)"/>
      <use xlink:href="#DejaVuSans-61" transform="translate(80.322266 0)"/>
      <use xlink:href="#DejaVuSans-69" transform="translate(141.601562 0)"/>
      <use xlink:href="#DejaVuSans-6e" transform="translate(169.384766 0)"/>
      <use xlink:href="#DejaVuSans-5f" transform="translate(232.763672 0)"/>
      <use xlink:href="#DejaVuSans-66" transform="translate(282.763672 0)"/>
      <use xlink:href="#DejaVuSans-6f" transform="translate(317.96875 0)"/>
      <use xlink:href="#DejaVuSans-72" transform="translate(379.150391 0)"/>
      <use xlink:href="#DejaVuSans-65" transform="translate(418.013672 0)"/>
      <use xlink:href="#DejaVuSans-63" transform="translate(479.537109 0)"/>
      <use xlink:href="#DejaVuSans-61" transform="translate(534.517578 0)"/>
      <use xlink:href="#DejaVuSans-73" transform="translate(595.796875 0)"/>
      <use xlink:href="#DejaVuSans-74" transform="translate(647.896484 0)"/>
     </g>
    </g>
   </g>
  </g>
 </g>
 <defs>
  <clipPath id="p99d8cbcf88">
   <rect x="57.6" y="41.472" width="357.12" height="266.112"/>
  </clipPath>
 </defs>
</svg>
