<?xml version="1.0" encoding="utf-8" standalone="no"?>
<!DOCTYPE svg PUBLIC "-//W3C//DTD SVG 1.1//EN"
  "http://www.w3.org/Graphics/SVG/1.1/DTD/svg11.dtd">
<svg xmlns:xlink="http://www.w3.org/1999/xlink" width="460.8pt" height="345.6pt" viewBox="0 0 460.8 345.6" xmlns="http://www.w3.org/2000/svg" version="1.1">
 <metadata>
  <rdf:RDF xmlns:dc="http://purl.org/dc/elements/1.1/" xmlns:cc="http://creativecommons.org/ns#" xmlns:rdf="http://www.w3.org/1999/02/22-rdf-syntax-ns#">
   <cc:Work>
    <dc:type rdf:resource="http://purl.org/dc/dcmitype/StillImage"/>
    <dc:date>2025-05-30T11:11:03.658206</dc:date>
    <dc:format>image/svg+xml</dc:format>
    <dc:creator>
     <cc:Agent>
      <dc:title>Matplotlib v3.10.3, https://matplotlib.org/</dc:title>
     </cc:Agent>
    </dc:creator>
   </cc:Work>
  </rdf:RDF>
 </metadata>
 <defs>
  <style type="text/css">*{stroke-linejoin: round; stroke-linecap: butt}</style>
 </defs>
 <g id="figure_1">
  <g id="patch_1">
   <path d="M 0 345.6 
L 460.8 345.6 
L 460.8 0 
L 0 0 
z
" style="fill: #ffffff"/>
  </g>
  <g id="axes_1">
   <g id="patch_2">
    <path d="M 57.6 307.584 
L 414.72 307.584 
L 414.72 41.472 
L 57.6 41.472 
z
" style="fill: #ffffff"/>
   </g>
   <g id="matplotlib.axis_1">
    <g id="xtick_1">
     <g id="line2d_1">
      <path d="M 59.687065 307.584 
L 59.687065 41.472 
" clip-path="url(#pdcf322be79)" style="fill: none; stroke: #dedede; stroke-width: 0.8; stroke-linecap: square"/>
     </g>
     <g id="text_1">
      <!-- 2000 -->
      <g style="fill: #333333" transform="translate(49.08714 320.913498) scale(0.0833 -0.0833)">
       <defs>
        <path id="DejaVuSans-32" d="M 1228 531 
L 3431 531 
L 3431 0 
L 469 0 
L 469 531 
Q 828 903 1448 1529 
Q 2069 2156 2228 2338 
Q 2531 2678 2651 2914 
Q 2772 3150 2772 3378 
Q 2772 3750 2511 3984 
Q 2250 4219 1831 4219 
Q 1534 4219 1204 4116 
Q 875 4013 500 3803 
L 500 4441 
Q 881 4594 1212 4672 
Q 1544 4750 1819 4750 
Q 2544 4750 2975 4387 
Q 3406 4025 3406 3419 
Q 3406 3131 3298 2873 
Q 3191 2616 2906 2266 
Q 2828 2175 2409 1742 
Q 1991 1309 1228 531 
z
" transform="scale(0.015625)"/>
        <path id="DejaVuSans-30" d="M 2034 4250 
Q 1547 4250 1301 3770 
Q 1056 3291 1056 2328 
Q 1056 1369 1301 889 
Q 1547 409 2034 409 
Q 2525 409 2770 889 
Q 3016 1369 3016 2328 
Q 3016 3291 2770 3770 
Q 2525 4250 2034 4250 
z
M 2034 4750 
Q 2819 4750 3233 4129 
Q 3647 3509 3647 2328 
Q 3647 1150 3233 529 
Q 2819 -91 2034 -91 
Q 1250 -91 836 529 
Q 422 1150 422 2328 
Q 422 3509 836 4129 
Q 1250 4750 2034 4750 
z
" transform="scale(0.015625)"/>
       </defs>
       <use xlink:href="#DejaVuSans-32"/>
       <use xlink:href="#DejaVuSans-30" transform="translate(63.623047 0)"/>
       <use xlink:href="#DejaVuSans-30" transform="translate(127.246094 0)"/>
       <use xlink:href="#DejaVuSans-30" transform="translate(190.869141 0)"/>
      </g>
     </g>
    </g>
    <g id="xtick_2">
     <g id="line2d_2">
      <path d="M 116.153766 307.584 
L 116.153766 41.472 
" clip-path="url(#pdcf322be79)" style="fill: none; stroke: #dedede; stroke-width: 0.8; stroke-linecap: square"/>
     </g>
     <g id="text_2">
      <!-- 2004 -->
      <g style="fill: #333333" transform="translate(105.553841 320.913498) scale(0.0833 -0.0833)">
       <defs>
        <path id="DejaVuSans-34" d="M 2419 4116 
L 825 1625 
L 2419 1625 
L 2419 4116 
z
M 2253 4666 
L 3047 4666 
L 3047 1625 
L 3713 1625 
L 3713 1100 
L 3047 1100 
L 3047 0 
L 2419 0 
L 2419 1100 
L 313 1100 
L 313 1709 
L 2253 4666 
z
" transform="scale(0.015625)"/>
       </defs>
       <use xlink:href="#DejaVuSans-32"/>
       <use xlink:href="#DejaVuSans-30" transform="translate(63.623047 0)"/>
       <use xlink:href="#DejaVuSans-30" transform="translate(127.246094 0)"/>
       <use xlink:href="#DejaVuSans-34" transform="translate(190.869141 0)"/>
      </g>
     </g>
    </g>
    <g id="xtick_3">
     <g id="line2d_3">
      <path d="M 172.620468 307.584 
L 172.620468 41.472 
" clip-path="url(#pdcf322be79)" style="fill: none; stroke: #dedede; stroke-width: 0.8; stroke-linecap: square"/>
     </g>
     <g id="text_3">
      <!-- 2008 -->
      <g style="fill: #333333" transform="translate(162.020543 320.913498) scale(0.0833 -0.0833)">
       <defs>
        <path id="DejaVuSans-38" d="M 2034 2216 
Q 1584 2216 1326 1975 
Q 1069 1734 1069 1313 
Q 1069 891 1326 650 
Q 1584 409 2034 409 
Q 2484 409 2743 651 
Q 3003 894 3003 1313 
Q 3003 1734 2745 1975 
Q 2488 2216 2034 2216 
z
M 1403 2484 
Q 997 2584 770 2862 
Q 544 3141 544 3541 
Q 544 4100 942 4425 
Q 1341 4750 2034 4750 
Q 2731 4750 3128 4425 
Q 3525 4100 3525 3541 
Q 3525 3141 3298 2862 
Q 3072 2584 2669 2484 
Q 3125 2378 3379 2068 
Q 3634 1759 3634 1313 
Q 3634 634 3220 271 
Q 2806 -91 2034 -91 
Q 1263 -91 848 271 
Q 434 634 434 1313 
Q 434 1759 690 2068 
Q 947 2378 1403 2484 
z
M 1172 3481 
Q 1172 3119 1398 2916 
Q 1625 2713 2034 2713 
Q 2441 2713 2670 2916 
Q 2900 3119 2900 3481 
Q 2900 3844 2670 4047 
Q 2441 4250 2034 4250 
Q 1625 4250 1398 4047 
Q 1172 3844 1172 3481 
z
" transform="scale(0.015625)"/>
       </defs>
       <use xlink:href="#DejaVuSans-32"/>
       <use xlink:href="#DejaVuSans-30" transform="translate(63.623047 0)"/>
       <use xlink:href="#DejaVuSans-30" transform="translate(127.246094 0)"/>
       <use xlink:href="#DejaVuSans-38" transform="translate(190.869141 0)"/>
      </g>
     </g>
    </g>
    <g id="xtick_4">
     <g id="line2d_4">
      <path d="M 229.087169 307.584 
L 229.087169 41.472 
" clip-path="url(#pdcf322be79)" style="fill: none; stroke: #dedede; stroke-width: 0.8; stroke-linecap: square"/>
     </g>
     <g id="text_4">
      <!-- 2012 -->
      <g style="fill: #333333" transform="translate(218.487244 320.913498) scale(0.0833 -0.0833)">
       <defs>
        <path id="DejaVuSans-31" d="M 794 531 
L 1825 531 
L 1825 4091 
L 703 3866 
L 703 4441 
L 1819 4666 
L 2450 4666 
L 2450 531 
L 3481 531 
L 3481 0 
L 794 0 
L 794 531 
z
" transform="scale(0.015625)"/>
       </defs>
       <use xlink:href="#DejaVuSans-32"/>
       <use xlink:href="#DejaVuSans-30" transform="translate(63.623047 0)"/>
       <use xlink:href="#DejaVuSans-31" transform="translate(127.246094 0)"/>
       <use xlink:href="#DejaVuSans-32" transform="translate(190.869141 0)"/>
      </g>
     </g>
    </g>
    <g id="xtick_5">
     <g id="line2d_5">
      <path d="M 285.55387 307.584 
L 285.55387 41.472 
" clip-path="url(#pdcf322be79)" style="fill: none; stroke: #dedede; stroke-width: 0.8; stroke-linecap: square"/>
     </g>
     <g id="text_5">
      <!-- 2016 -->
      <g style="fill: #333333" transform="translate(274.953945 320.913498) scale(0.0833 -0.0833)">
       <defs>
        <path id="DejaVuSans-36" d="M 2113 2584 
Q 1688 2584 1439 2293 
Q 1191 2003 1191 1497 
Q 1191 994 1439 701 
Q 1688 409 2113 409 
Q 2538 409 2786 701 
Q 3034 994 3034 1497 
Q 3034 2003 2786 2293 
Q 2538 2584 2113 2584 
z
M 3366 4563 
L 3366 3988 
Q 3128 4100 2886 4159 
Q 2644 4219 2406 4219 
Q 1781 4219 1451 3797 
Q 1122 3375 1075 2522 
Q 1259 2794 1537 2939 
Q 1816 3084 2150 3084 
Q 2853 3084 3261 2657 
Q 3669 2231 3669 1497 
Q 3669 778 3244 343 
Q 2819 -91 2113 -91 
Q 1303 -91 875 529 
Q 447 1150 447 2328 
Q 447 3434 972 4092 
Q 1497 4750 2381 4750 
Q 2619 4750 2861 4703 
Q 3103 4656 3366 4563 
z
" transform="scale(0.015625)"/>
       </defs>
       <use xlink:href="#DejaVuSans-32"/>
       <use xlink:href="#DejaVuSans-30" transform="translate(63.623047 0)"/>
       <use xlink:href="#DejaVuSans-31" transform="translate(127.246094 0)"/>
       <use xlink:href="#DejaVuSans-36" transform="translate(190.869141 0)"/>
      </g>
     </g>
    </g>
    <g id="xtick_6">
     <g id="line2d_6">
      <path d="M 342.020571 307.584 
L 342.020571 41.472 
" clip-path="url(#pdcf322be79)" style="fill: none; stroke: #dedede; stroke-width: 0.8; stroke-linecap: square"/>
     </g>
     <g id="text_6">
      <!-- 2020 -->
      <g style="fill: #333333" transform="translate(331.420646 320.913498) scale(0.0833 -0.0833)">
       <use xlink:href="#DejaVuSans-32"/>
       <use xlink:href="#DejaVuSans-30" transform="translate(63.623047 0)"/>
       <use xlink:href="#DejaVuSans-32" transform="translate(127.246094 0)"/>
       <use xlink:href="#DejaVuSans-30" transform="translate(190.869141 0)"/>
      </g>
     </g>
    </g>
    <g id="xtick_7">
     <g id="line2d_7">
      <path d="M 398.487273 307.584 
L 398.487273 41.472 
" clip-path="url(#pdcf322be79)" style="fill: none; stroke: #dedede; stroke-width: 0.8; stroke-linecap: square"/>
     </g>
     <g id="text_7">
      <!-- 2024 -->
      <g style="fill: #333333" transform="translate(387.887348 320.913498) scale(0.0833 -0.0833)">
       <use xlink:href="#DejaVuSans-32"/>
       <use xlink:href="#DejaVuSans-30" transform="translate(63.623047 0)"/>
       <use xlink:href="#DejaVuSans-32" transform="translate(127.246094 0)"/>
       <use xlink:href="#DejaVuSans-34" transform="translate(190.869141 0)"/>
      </g>
     </g>
    </g>
    <g id="text_8">
     <!-- time -->
     <g style="fill: #333333" transform="translate(223.454531 334.244316) scale(0.1 -0.1)">
      <defs>
       <path id="DejaVuSans-Bold-74" d="M 1759 4494 
L 1759 3500 
L 2913 3500 
L 2913 2700 
L 1759 2700 
L 1759 1216 
Q 1759 972 1856 886 
Q 1953 800 2241 800 
L 2816 800 
L 2816 0 
L 1856 0 
Q 1194 0 917 276 
Q 641 553 641 1216 
L 641 2700 
L 84 2700 
L 84 3500 
L 641 3500 
L 641 4494 
L 1759 4494 
z
" transform="scale(0.015625)"/>
       <path id="DejaVuSans-Bold-69" d="M 538 3500 
L 1656 3500 
L 1656 0 
L 538 0 
L 538 3500 
z
M 538 4863 
L 1656 4863 
L 1656 3950 
L 538 3950 
L 538 4863 
z
" transform="scale(0.015625)"/>
       <path id="DejaVuSans-Bold-6d" d="M 3781 2919 
Q 3994 3244 4286 3414 
Q 4578 3584 4928 3584 
Q 5531 3584 5847 3212 
Q 6163 2841 6163 2131 
L 6163 0 
L 5038 0 
L 5038 1825 
Q 5041 1866 5042 1909 
Q 5044 1953 5044 2034 
Q 5044 2406 4934 2573 
Q 4825 2741 4581 2741 
Q 4263 2741 4089 2478 
Q 3916 2216 3909 1719 
L 3909 0 
L 2784 0 
L 2784 1825 
Q 2784 2406 2684 2573 
Q 2584 2741 2328 2741 
Q 2006 2741 1831 2477 
Q 1656 2213 1656 1722 
L 1656 0 
L 531 0 
L 531 3500 
L 1656 3500 
L 1656 2988 
Q 1863 3284 2130 3434 
Q 2397 3584 2719 3584 
Q 3081 3584 3359 3409 
Q 3638 3234 3781 2919 
z
" transform="scale(0.015625)"/>
       <path id="DejaVuSans-Bold-65" d="M 4031 1759 
L 4031 1441 
L 1416 1441 
Q 1456 1047 1700 850 
Q 1944 653 2381 653 
Q 2734 653 3104 758 
Q 3475 863 3866 1075 
L 3866 213 
Q 3469 63 3072 -14 
Q 2675 -91 2278 -91 
Q 1328 -91 801 392 
Q 275 875 275 1747 
Q 275 2603 792 3093 
Q 1309 3584 2216 3584 
Q 3041 3584 3536 3087 
Q 4031 2591 4031 1759 
z
M 2881 2131 
Q 2881 2450 2695 2645 
Q 2509 2841 2209 2841 
Q 1884 2841 1681 2658 
Q 1478 2475 1428 2131 
L 2881 2131 
z
" transform="scale(0.015625)"/>
      </defs>
      <use xlink:href="#DejaVuSans-Bold-74"/>
      <use xlink:href="#DejaVuSans-Bold-69" transform="translate(47.802734 0)"/>
      <use xlink:href="#DejaVuSans-Bold-6d" transform="translate(82.080078 0)"/>
      <use xlink:href="#DejaVuSans-Bold-65" transform="translate(186.279297 0)"/>
     </g>
    </g>
   </g>
   <g id="matplotlib.axis_2">
    <g id="ytick_1">
     <g id="line2d_8">
      <path d="M 57.6 297.806143 
L 414.72 297.806143 
" clip-path="url(#pdcf322be79)" style="fill: none; stroke: #dedede; stroke-width: 0.8; stroke-linecap: square"/>
     </g>
     <g id="line2d_9">
      <defs>
       <path id="m757b7d2530" d="M 0 0 
L -3.5 0 
" style="stroke: #333333; stroke-width: 0.8"/>
      </defs>
      <g>
       <use xlink:href="#m757b7d2530" x="57.6" y="297.806143" style="fill: #333333; stroke: #333333; stroke-width: 0.8"/>
      </g>
     </g>
     <g id="text_9">
      <!-- −4 -->
      <g style="fill: #333333" transform="translate(38.319758 300.970892) scale(0.0833 -0.0833)">
       <defs>
        <path id="DejaVuSans-2212" d="M 678 2272 
L 4684 2272 
L 4684 1741 
L 678 1741 
L 678 2272 
z
" transform="scale(0.015625)"/>
       </defs>
       <use xlink:href="#DejaVuSans-2212"/>
       <use xlink:href="#DejaVuSans-34" transform="translate(83.789062 0)"/>
      </g>
     </g>
    </g>
    <g id="ytick_2">
     <g id="line2d_10">
      <path d="M 57.6 241.821661 
L 414.72 241.821661 
" clip-path="url(#pdcf322be79)" style="fill: none; stroke: #dedede; stroke-width: 0.8; stroke-linecap: square"/>
     </g>
     <g id="line2d_11">
      <g>
       <use xlink:href="#m757b7d2530" x="57.6" y="241.821661" style="fill: #333333; stroke: #333333; stroke-width: 0.8"/>
      </g>
     </g>
     <g id="text_10">
      <!-- −2 -->
      <g style="fill: #333333" transform="translate(38.319758 244.98641) scale(0.0833 -0.0833)">
       <use xlink:href="#DejaVuSans-2212"/>
       <use xlink:href="#DejaVuSans-32" transform="translate(83.789062 0)"/>
      </g>
     </g>
    </g>
    <g id="ytick_3">
     <g id="line2d_12">
      <path d="M 57.6 185.83718 
L 414.72 185.83718 
" clip-path="url(#pdcf322be79)" style="fill: none; stroke: #dedede; stroke-width: 0.8; stroke-linecap: square"/>
     </g>
     <g id="line2d_13">
      <g>
       <use xlink:href="#m757b7d2530" x="57.6" y="185.83718" style="fill: #333333; stroke: #333333; stroke-width: 0.8"/>
      </g>
     </g>
     <g id="text_11">
      <!-- 0 -->
      <g style="fill: #333333" transform="translate(45.300038 189.001929) scale(0.0833 -0.0833)">
       <use xlink:href="#DejaVuSans-30"/>
      </g>
     </g>
    </g>
    <g id="ytick_4">
     <g id="line2d_14">
      <path d="M 57.6 129.852698 
L 414.72 129.852698 
" clip-path="url(#pdcf322be79)" style="fill: none; stroke: #dedede; stroke-width: 0.8; stroke-linecap: square"/>
     </g>
     <g id="line2d_15">
      <g>
       <use xlink:href="#m757b7d2530" x="57.6" y="129.852698" style="fill: #333333; stroke: #333333; stroke-width: 0.8"/>
      </g>
     </g>
     <g id="text_12">
      <!-- 2 -->
      <g style="fill: #333333" transform="translate(45.300038 133.017447) scale(0.0833 -0.0833)">
       <use xlink:href="#DejaVuSans-32"/>
      </g>
     </g>
    </g>
    <g id="ytick_5">
     <g id="line2d_16">
      <path d="M 57.6 73.868216 
L 414.72 73.868216 
" clip-path="url(#pdcf322be79)" style="fill: none; stroke: #dedede; stroke-width: 0.8; stroke-linecap: square"/>
     </g>
     <g id="line2d_17">
      <g>
       <use xlink:href="#m757b7d2530" x="57.6" y="73.868216" style="fill: #333333; stroke: #333333; stroke-width: 0.8"/>
      </g>
     </g>
     <g id="text_13">
      <!-- 4 -->
      <g style="fill: #333333" transform="translate(45.300038 77.032966) scale(0.0833 -0.0833)">
       <use xlink:href="#DejaVuSans-34"/>
      </g>
     </g>
    </g>
   </g>
   <g id="line2d_18">
    <path d="M 73.832727 168.741312 
L 74.373818 153.009645 
L 75.030857 170.100227 
L 75.571948 180.332212 
L 76.113039 158.169165 
L 76.65413 179.541869 
L 77.311169 182.91345 
L 77.85226 192.289778 
L 78.470649 208.085071 
L 79.01174 195.847824 
L 79.668779 194.358075 
L 80.20987 225.14389 
L 80.82826 190.967728 
L 81.369351 186.190318 
L 82.02639 197.406258 
L 82.567481 286.813141 
L 83.224519 217.936691 
L 83.76561 199.926154 
L 84.384 186.636421 
L 84.925091 186.636421 
L 85.58213 174.207555 
L 86.123221 177.134312 
L 86.74161 174.807129 
L 87.282701 187.264429 
L 87.93974 176.396335 
L 88.480831 194.159435 
L 89.13787 206.243567 
L 89.678961 204.815368 
L 90.220052 178.001167 
L 90.761143 179.057374 
L 91.418182 181.427665 
L 91.959273 175.364747 
L 92.577662 189.318958 
L 93.118753 287.578909 
L 93.775792 277.14215 
L 94.316883 190.195638 
L 94.935273 177.983258 
L 95.476364 182.669653 
L 96.133403 186.295169 
L 96.674494 194.436061 
L 97.331532 213.253237 
L 97.872623 200.539848 
L 98.491013 199.588592 
L 99.032104 199.588592 
L 99.689143 184.76955 
L 100.230234 178.523198 
L 100.848623 179.361383 
L 101.389714 183.808363 
L 102.046753 153.91576 
L 102.587844 142.802947 
L 103.244883 176.689361 
L 103.785974 174.582869 
L 104.327065 178.162665 
L 104.868156 179.994065 
L 105.525195 181.395365 
L 106.066286 189.350508 
L 106.684675 196.231089 
L 107.225766 195.460228 
L 107.882805 188.867129 
L 108.423896 192.03672 
L 109.042286 192.065917 
L 109.583377 200.337577 
L 110.240416 208.032853 
L 110.781506 212.65308 
L 111.438545 224.784222 
L 111.979636 224.958404 
L 112.598026 229.91799 
L 113.139117 229.91799 
L 113.796156 199.272105 
L 114.337247 195.480529 
L 114.955636 202.681751 
L 115.496727 192.17398 
L 116.153766 164.606953 
L 116.694857 179.882977 
L 117.351896 160.345724 
L 117.892987 169.059624 
L 118.472727 182.103226 
L 119.013818 174.341621 
L 119.670857 182.461255 
L 120.211948 184.376357 
L 120.830338 205.501097 
L 121.371429 185.285829 
L 122.028468 181.987298 
L 122.569558 181.119429 
L 123.187948 201.78812 
L 123.729039 182.540454 
L 124.386078 197.761555 
L 124.927169 203.802968 
L 125.584208 200.430265 
L 126.125299 229.286561 
L 126.743688 210.79658 
L 127.284779 210.79658 
L 127.941818 190.118782 
L 128.482909 190.118782 
L 129.101299 193.024147 
L 129.64239 187.006031 
L 130.299429 163.767161 
L 130.840519 152.428251 
L 131.497558 170.390924 
L 132.038649 180.429111 
L 132.57974 166.69628 
L 133.120831 191.718848 
L 133.77787 194.702833 
L 134.318961 199.815603 
L 134.937351 295.488 
L 135.478442 226.048023 
L 136.135481 277.14215 
L 136.676571 198.205958 
L 137.294961 189.255845 
L 137.836052 267.036412 
L 138.493091 205.610377 
L 139.034182 207.065235 
L 139.691221 232.439246 
L 140.232312 232.904125 
L 140.850701 234.569144 
L 141.391792 234.569144 
L 142.048831 242.198377 
L 142.589922 224.48564 
L 143.208312 200.065477 
L 143.749403 184.325158 
L 144.406442 136.312435 
L 144.947532 151.717658 
L 145.604571 162.477503 
L 146.145662 138.730226 
L 146.686753 149.092955 
L 147.227844 149.147872 
L 147.884883 169.282986 
L 148.425974 179.305308 
L 149.044364 174.784103 
L 149.585455 177.663105 
L 150.242494 193.130687 
L 150.783584 53.568 
L 151.401974 174.171896 
L 151.943065 245.331028 
L 152.600104 199.182741 
L 153.141195 202.801678 
L 153.798234 226.431506 
L 154.339325 231.38604 
L 154.957714 226.138928 
L 155.498805 226.138928 
L 156.155844 228.761711 
L 156.696935 219.802187 
L 157.315325 231.428464 
L 158.513455 197.714123 
L 159.054545 192.092255 
L 159.711584 174.945179 
L 160.252675 193.413581 
L 160.793766 187.400373 
L 161.334857 190.45916 
L 162.532987 195.519746 
L 163.151377 191.321538 
L 163.692468 195.298729 
L 164.349506 258.343737 
L 164.890597 268.199361 
L 165.508987 264.449496 
L 166.050078 189.904781 
L 166.707117 274.925486 
L 167.248208 185.747448 
L 167.905247 224.461226 
L 168.446338 233.776216 
L 169.064727 219.032998 
L 169.605818 219.032998 
L 170.262857 206.604132 
L 170.803948 201.132973 
L 171.422338 248.676492 
L 171.963429 213.556367 
L 172.620468 202.04228 
L 173.161558 206.433313 
L 173.818597 205.080778 
L 174.359688 207.980736 
L 174.939429 203.162616 
L 175.480519 194.625819 
L 176.137558 208.430196 
L 176.678649 200.332398 
L 177.297039 203.789214 
L 177.83813 193.716045 
L 178.495169 179.338724 
L 179.03626 174.0135 
L 179.654649 172.137016 
L 180.19574 174.497834 
L 180.852779 176.766764 
L 181.39387 286.813141 
L 182.050909 190.611163 
L 182.592 184.809904 
L 183.21039 187.637711 
L 183.751481 187.637711 
L 184.408519 199.582588 
L 184.94961 199.582588 
L 185.568 217.022808 
L 186.109091 207.742425 
L 186.76613 187.281327 
L 187.307221 201.65296 
L 187.96426 191.83791 
L 188.505351 186.889046 
L 189.046442 195.281495 
L 189.587532 182.44884 
L 190.785662 171.553385 
L 191.404052 169.06706 
L 192.602182 151.238004 
L 193.143273 150.111738 
L 193.761662 152.111215 
L 194.302753 162.805351 
L 194.959792 236.714967 
L 195.500883 166.981335 
L 196.157922 172.523343 
L 196.699013 188.330569 
L 197.317403 177.204915 
L 197.858494 177.204915 
L 198.515532 175.273444 
L 199.056623 185.241531 
L 199.675013 202.229555 
L 200.216104 189.234709 
L 200.873143 167.223227 
L 201.414234 179.333883 
L 202.071273 169.648031 
L 202.612364 171.643598 
L 203.153455 185.042497 
L 203.694545 166.880395 
L 204.351584 173.223547 
L 204.892675 185.603745 
L 205.511065 184.183309 
L 206.052156 179.633385 
L 207.250286 159.543244 
L 207.868675 253.726003 
L 208.409766 182.120558 
L 209.066805 187.457958 
L 209.607896 179.158314 
L 210.264935 206.405706 
L 210.806026 189.654856 
L 211.424416 191.642871 
L 211.965506 191.642871 
L 212.622545 187.934918 
L 213.163636 168.639497 
L 213.782026 194.380733 
L 214.323117 188.071921 
L 214.980156 169.096608 
L 215.521247 173.61684 
L 216.178286 180.113127 
L 216.719377 180.945905 
L 217.260468 164.596801 
L 217.801558 163.715027 
L 218.458597 176.90571 
L 218.999688 177.916421 
L 219.618078 173.815113 
L 220.159169 162.417657 
L 220.816208 163.447283 
L 221.357299 178.793852 
L 221.975688 153.597001 
L 223.173818 209.29254 
L 223.714909 177.51103 
L 224.371948 194.90702 
L 224.913039 175.959793 
L 225.531429 189.478793 
L 226.072519 189.478793 
L 226.729558 201.242385 
L 227.270649 154.363039 
L 227.889039 219.477583 
L 228.43013 241.560188 
L 229.087169 216.544835 
L 229.62826 203.235644 
L 230.285299 197.781051 
L 230.82639 194.54407 
L 231.947221 165.330011 
L 233.145351 189.770403 
L 233.76374 187.962372 
L 235.502961 157.766761 
L 236.121351 163.803699 
L 237.319481 182.677605 
L 237.860571 181.290092 
L 238.51761 181.438054 
L 239.058701 189.687156 
L 239.677091 177.592511 
L 241.416312 177.521908 
L 242.034701 239.406485 
L 242.575792 231.32119 
L 243.232831 195.937641 
L 243.773922 217.221405 
L 244.430961 217.516154 
L 244.972052 219.156425 
L 245.513143 207.749171 
L 246.054234 203.314432 
L 246.711273 200.258377 
L 247.252364 184.376357 
L 247.870753 179.176859 
L 249.068883 159.474422 
L 249.609974 208.606455 
L 250.228364 154.307594 
L 250.769455 159.155487 
L 251.426494 178.446347 
L 251.967584 162.200983 
L 252.624623 180.372165 
L 253.165714 167.917173 
L 253.784104 171.810869 
L 254.982234 171.752779 
L 255.523325 171.061972 
L 256.141714 206.977608 
L 256.682805 193.20757 
L 257.339844 171.583683 
L 257.880935 170.774468 
L 258.537974 181.598912 
L 259.079065 181.398101 
L 259.620156 193.149716 
L 260.161247 191.137453 
L 261.359377 179.014611 
L 261.977766 164.932701 
L 262.518857 168.877593 
L 263.175896 159.022227 
L 263.716987 159.381745 
L 264.335377 156.439372 
L 264.876468 173.91644 
L 265.533506 166.883063 
L 266.074597 155.191952 
L 266.731636 170.230066 
L 267.272727 159.19626 
L 267.891117 171.197175 
L 268.432208 171.197175 
L 269.089247 163.451762 
L 269.630338 173.387549 
L 270.248727 174.936327 
L 270.789818 189.945302 
L 271.446857 194.225758 
L 271.987948 195.935917 
L 272.644987 192.290106 
L 273.186078 204.460071 
L 274.26826 200.310562 
L 274.925299 188.210597 
L 275.46639 234.085562 
L 276.084779 217.096681 
L 277.282909 170.617811 
L 277.824 172.689213 
L 278.44239 248.235057 
L 278.983481 148.076698 
L 279.640519 168.724144 
L 280.18161 171.53559 
L 280.838649 180.695162 
L 281.37974 176.993382 
L 281.99813 192.224266 
L 282.539221 192.224266 
L 283.19626 181.959478 
L 283.737351 170.157581 
L 284.896831 179.09261 
L 285.55387 182.436375 
L 286.094961 180.302873 
L 286.752 176.980058 
L 287.293091 204.686169 
L 287.872831 206.004988 
L 288.413922 202.313142 
L 289.070961 198.96639 
L 289.612052 194.001661 
L 290.230442 197.846073 
L 290.771532 169.458987 
L 291.428571 164.70697 
L 291.969662 162.708612 
L 292.588052 264.449496 
L 293.129143 143.81314 
L 293.786182 152.542006 
L 294.327273 176.283642 
L 294.984312 171.037558 
L 295.525403 151.412037 
L 296.143792 148.329003 
L 296.684883 148.329003 
L 297.341922 159.692486 
L 297.883013 159.692486 
L 298.501403 197.675301 
L 299.042494 218.20752 
L 299.699532 199.232208 
L 300.240623 193.67494 
L 300.897662 201.043318 
L 301.438753 193.478181 
L 301.979844 181.780229 
L 302.520935 183.41783 
L 303.177974 179.715782 
L 304.337455 157.665274 
L 304.878545 169.588185 
L 305.535584 165.934358 
L 306.076675 152.243517 
L 306.695065 258.732453 
L 307.236156 169.91128 
L 307.893195 193.627196 
L 308.434286 159.520109 
L 309.091325 192.129248 
L 309.632416 166.17299 
L 310.250805 183.535652 
L 310.791896 183.535652 
L 311.448935 170.331593 
L 311.990026 163.859144 
L 312.608416 154.684429 
L 313.149506 162.555175 
L 313.806545 145.065648 
L 314.347636 174.61813 
L 315.004675 181.405114 
L 315.545766 161.856796 
L 316.086857 176.063186 
L 316.627948 175.988904 
L 317.284987 177.325606 
L 317.826078 172.360877 
L 318.444468 158.892661 
L 318.985558 141.422866 
L 319.642597 213.89938 
L 320.183688 148.529054 
L 320.802078 170.845029 
L 321.343169 156.151617 
L 322.000208 160.713824 
L 322.541299 171.923186 
L 323.198338 182.148647 
L 323.739429 182.161331 
L 324.357818 191.287575 
L 324.898909 191.287575 
L 325.555948 163.742459 
L 326.097039 169.608487 
L 326.715429 202.520252 
L 327.256519 212.619676 
L 327.913558 162.152177 
L 328.454649 195.61292 
L 329.111688 206.211267 
L 329.652779 204.233973 
L 330.19387 197.897769 
L 330.734961 196.822197 
L 331.392 197.900501 
L 331.933091 192.289778 
L 332.551481 180.985641 
L 333.092571 163.806543 
L 333.74961 161.961498 
L 334.290701 195.557385 
L 334.909091 138.028556 
L 335.450182 139.000488 
L 336.107221 258.388051 
L 336.648312 152.963275 
L 337.305351 156.696501 
L 337.846442 163.395218 
L 338.464831 152.527961 
L 339.005922 152.527961 
L 339.662961 183.219165 
L 340.204052 162.211861 
L 340.822442 179.264484 
L 341.363532 173.08487 
L 342.020571 150.395095 
L 342.561662 174.359732 
L 343.218701 170.907719 
L 343.759792 175.551859 
L 344.880623 194.49662 
L 345.537662 191.343666 
L 346.078753 186.023641 
L 346.697143 191.547636 
L 347.238234 166.293618 
L 347.895273 158.570031 
L 348.436364 268.199361 
L 349.054753 264.449496 
L 349.595844 245.492527 
L 350.252883 166.721564 
L 350.793974 158.680318 
L 351.451013 177.691292 
L 351.992104 174.538607 
L 352.610494 163.574451 
L 353.151584 163.574451 
L 353.808623 143.348849 
L 354.349714 143.348849 
L 354.968104 199.193386 
L 355.509195 201.411688 
L 356.166234 175.718042 
L 356.707325 189.863578 
L 357.364364 189.641532 
L 357.905455 183.46528 
L 358.446545 196.315085 
L 358.987636 183.966925 
L 359.644675 181.589163 
L 360.185766 186.669634 
L 360.804156 184.861603 
L 361.345247 159.962881 
L 362.543377 155.86108 
L 363.161766 153.370903 
L 363.702857 148.367395 
L 364.359896 172.729304 
L 364.900987 144.210062 
L 365.558026 186.476804 
L 366.099117 183.970113 
L 366.717506 185.505933 
L 367.258597 185.505933 
L 367.915636 202.308275 
L 368.456727 180.29968 
L 369.616208 226.153241 
L 370.273247 207.985421 
L 370.814338 207.789899 
L 371.471377 215.125978 
L 372.012468 223.193884 
L 372.553558 213.627712 
L 373.094649 209.063775 
L 373.751688 205.717023 
L 374.292779 174.07276 
L 374.911169 188.285368 
L 375.45226 166.907312 
L 376.109299 154.984767 
L 376.65039 252.114121 
L 377.268779 246.167878 
L 377.80987 142.327355 
L 378.466909 136.844362 
L 379.008 141.206192 
L 379.665039 136.444603 
L 380.20613 136.10199 
L 380.824519 165.512432 
L 381.36561 165.512432 
L 382.022649 169.168805 
L 382.56374 164.085242 
L 383.18213 151.389862 
L 383.723221 174.312258 
L 384.38026 195.485445 
L 384.921351 201.71756 
L 385.57839 200.365025 
L 386.119481 210.467811 
L 386.660571 205.197496 
L 387.201662 172.339041 
L 387.858701 182.396655 
L 388.399792 180.015901 
L 389.018182 165.320297 
L 389.559273 144.717433 
L 390.216312 177.72374 
L 390.757403 103.083406 
L 391.375792 257.408166 
L 391.916883 121.267965 
L 393.115013 150.928395 
L 393.772052 151.270155 
L 394.313143 163.459817 
L 394.931532 143.58095 
L 395.472623 143.58095 
L 396.129662 150.984086 
L 396.670753 155.816524 
L 397.289143 151.842057 
L 397.830234 168.950511 
L 398.487273 143.80596 
L 398.487273 143.80596 
" clip-path="url(#pdcf322be79)" style="fill: none; stroke: #000000; stroke-width: 2; stroke-linecap: square"/>
   </g>
   <g id="line2d_19">
    <path d="M 383.723221 209.943483 
L 397.830234 199.321545 
" clip-path="url(#pdcf322be79)" style="fill: none; stroke: #003dfd; stroke-width: 2; stroke-linecap: square"/>
   </g>
   <g id="legend_1">
    <g id="line2d_20">
     <path d="M 289.316875 54.570438 
L 299.316875 54.570438 
L 309.316875 54.570438 
" style="fill: none; stroke: #000000; stroke-width: 2; stroke-linecap: square"/>
    </g>
    <g id="text_14">
     <!-- train -->
     <g transform="translate(317.316875 58.070438) scale(0.1 -0.1)">
      <defs>
       <path id="DejaVuSans-74" d="M 1172 4494 
L 1172 3500 
L 2356 3500 
L 2356 3053 
L 1172 3053 
L 1172 1153 
Q 1172 725 1289 603 
Q 1406 481 1766 481 
L 2356 481 
L 2356 0 
L 1766 0 
Q 1100 0 847 248 
Q 594 497 594 1153 
L 594 3053 
L 172 3053 
L 172 3500 
L 594 3500 
L 594 4494 
L 1172 4494 
z
" transform="scale(0.015625)"/>
       <path id="DejaVuSans-72" d="M 2631 2963 
Q 2534 3019 2420 3045 
Q 2306 3072 2169 3072 
Q 1681 3072 1420 2755 
Q 1159 2438 1159 1844 
L 1159 0 
L 581 0 
L 581 3500 
L 1159 3500 
L 1159 2956 
Q 1341 3275 1631 3429 
Q 1922 3584 2338 3584 
Q 2397 3584 2469 3576 
Q 2541 3569 2628 3553 
L 2631 2963 
z
" transform="scale(0.015625)"/>
       <path id="DejaVuSans-61" d="M 2194 1759 
Q 1497 1759 1228 1600 
Q 959 1441 959 1056 
Q 959 750 1161 570 
Q 1363 391 1709 391 
Q 2188 391 2477 730 
Q 2766 1069 2766 1631 
L 2766 1759 
L 2194 1759 
z
M 3341 1997 
L 3341 0 
L 2766 0 
L 2766 531 
Q 2569 213 2275 61 
Q 1981 -91 1556 -91 
Q 1019 -91 701 211 
Q 384 513 384 1019 
Q 384 1609 779 1909 
Q 1175 2209 1959 2209 
L 2766 2209 
L 2766 2266 
Q 2766 2663 2505 2880 
Q 2244 3097 1772 3097 
Q 1472 3097 1187 3025 
Q 903 2953 641 2809 
L 641 3341 
Q 956 3463 1253 3523 
Q 1550 3584 1831 3584 
Q 2591 3584 2966 3190 
Q 3341 2797 3341 1997 
z
" transform="scale(0.015625)"/>
       <path id="DejaVuSans-69" d="M 603 3500 
L 1178 3500 
L 1178 0 
L 603 0 
L 603 3500 
z
M 603 4863 
L 1178 4863 
L 1178 4134 
L 603 4134 
L 603 4863 
z
" transform="scale(0.015625)"/>
       <path id="DejaVuSans-6e" d="M 3513 2113 
L 3513 0 
L 2938 0 
L 2938 2094 
Q 2938 2591 2744 2837 
Q 2550 3084 2163 3084 
Q 1697 3084 1428 2787 
Q 1159 2491 1159 1978 
L 1159 0 
L 581 0 
L 581 3500 
L 1159 3500 
L 1159 2956 
Q 1366 3272 1645 3428 
Q 1925 3584 2291 3584 
Q 2894 3584 3203 3211 
Q 3513 2838 3513 2113 
z
" transform="scale(0.015625)"/>
      </defs>
      <use xlink:href="#DejaVuSans-74"/>
      <use xlink:href="#DejaVuSans-72" transform="translate(39.208984 0)"/>
      <use xlink:href="#DejaVuSans-61" transform="translate(80.322266 0)"/>
      <use xlink:href="#DejaVuSans-69" transform="translate(141.601562 0)"/>
      <use xlink:href="#DejaVuSans-6e" transform="translate(169.384766 0)"/>
     </g>
    </g>
    <g id="line2d_21">
     <path d="M 289.316875 69.248563 
L 299.316875 69.248563 
L 309.316875 69.248563 
" style="fill: none; stroke: #003dfd; stroke-width: 2; stroke-linecap: square"/>
    </g>
    <g id="text_15">
     <!-- backtest_forecast -->
     <g transform="translate(317.316875 72.748563) scale(0.1 -0.1)">
      <defs>
       <path id="DejaVuSans-62" d="M 3116 1747 
Q 3116 2381 2855 2742 
Q 2594 3103 2138 3103 
Q 1681 3103 1420 2742 
Q 1159 2381 1159 1747 
Q 1159 1113 1420 752 
Q 1681 391 2138 391 
Q 2594 391 2855 752 
Q 3116 1113 3116 1747 
z
M 1159 2969 
Q 1341 3281 1617 3432 
Q 1894 3584 2278 3584 
Q 2916 3584 3314 3078 
Q 3713 2572 3713 1747 
Q 3713 922 3314 415 
Q 2916 -91 2278 -91 
Q 1894 -91 1617 61 
Q 1341 213 1159 525 
L 1159 0 
L 581 0 
L 581 4863 
L 1159 4863 
L 1159 2969 
z
" transform="scale(0.015625)"/>
       <path id="DejaVuSans-63" d="M 3122 3366 
L 3122 2828 
Q 2878 2963 2633 3030 
Q 2388 3097 2138 3097 
Q 1578 3097 1268 2742 
Q 959 2388 959 1747 
Q 959 1106 1268 751 
Q 1578 397 2138 397 
Q 2388 397 2633 464 
Q 2878 531 3122 666 
L 3122 134 
Q 2881 22 2623 -34 
Q 2366 -91 2075 -91 
Q 1284 -91 818 406 
Q 353 903 353 1747 
Q 353 2603 823 3093 
Q 1294 3584 2113 3584 
Q 2378 3584 2631 3529 
Q 2884 3475 3122 3366 
z
" transform="scale(0.015625)"/>
       <path id="DejaVuSans-6b" d="M 581 4863 
L 1159 4863 
L 1159 1991 
L 2875 3500 
L 3609 3500 
L 1753 1863 
L 3688 0 
L 2938 0 
L 1159 1709 
L 1159 0 
L 581 0 
L 581 4863 
z
" transform="scale(0.015625)"/>
       <path id="DejaVuSans-65" d="M 3597 1894 
L 3597 1613 
L 953 1613 
Q 991 1019 1311 708 
Q 1631 397 2203 397 
Q 2534 397 2845 478 
Q 3156 559 3463 722 
L 3463 178 
Q 3153 47 2828 -22 
Q 2503 -91 2169 -91 
Q 1331 -91 842 396 
Q 353 884 353 1716 
Q 353 2575 817 3079 
Q 1281 3584 2069 3584 
Q 2775 3584 3186 3129 
Q 3597 2675 3597 1894 
z
M 3022 2063 
Q 3016 2534 2758 2815 
Q 2500 3097 2075 3097 
Q 1594 3097 1305 2825 
Q 1016 2553 972 2059 
L 3022 2063 
z
" transform="scale(0.015625)"/>
       <path id="DejaVuSans-73" d="M 2834 3397 
L 2834 2853 
Q 2591 2978 2328 3040 
Q 2066 3103 1784 3103 
Q 1356 3103 1142 2972 
Q 928 2841 928 2578 
Q 928 2378 1081 2264 
Q 1234 2150 1697 2047 
L 1894 2003 
Q 2506 1872 2764 1633 
Q 3022 1394 3022 966 
Q 3022 478 2636 193 
Q 2250 -91 1575 -91 
Q 1294 -91 989 -36 
Q 684 19 347 128 
L 347 722 
Q 666 556 975 473 
Q 1284 391 1588 391 
Q 1994 391 2212 530 
Q 2431 669 2431 922 
Q 2431 1156 2273 1281 
Q 2116 1406 1581 1522 
L 1381 1569 
Q 847 1681 609 1914 
Q 372 2147 372 2553 
Q 372 3047 722 3315 
Q 1072 3584 1716 3584 
Q 2034 3584 2315 3537 
Q 2597 3491 2834 3397 
z
" transform="scale(0.015625)"/>
       <path id="DejaVuSans-5f" d="M 3263 -1063 
L 3263 -1509 
L -63 -1509 
L -63 -1063 
L 3263 -1063 
z
" transform="scale(0.015625)"/>
       <path id="DejaVuSans-66" d="M 2375 4863 
L 2375 4384 
L 1825 4384 
Q 1516 4384 1395 4259 
Q 1275 4134 1275 3809 
L 1275 3500 
L 2222 3500 
L 2222 3053 
L 1275 3053 
L 1275 0 
L 697 0 
L 697 3053 
L 147 3053 
L 147 3500 
L 697 3500 
L 697 3744 
Q 697 4328 969 4595 
Q 1241 4863 1831 4863 
L 2375 4863 
z
" transform="scale(0.015625)"/>
       <path id="DejaVuSans-6f" d="M 1959 3097 
Q 1497 3097 1228 2736 
Q 959 2375 959 1747 
Q 959 1119 1226 758 
Q 1494 397 1959 397 
Q 2419 397 2687 759 
Q 2956 1122 2956 1747 
Q 2956 2369 2687 2733 
Q 2419 3097 1959 3097 
z
M 1959 3584 
Q 2709 3584 3137 3096 
Q 3566 2609 3566 1747 
Q 3566 888 3137 398 
Q 2709 -91 1959 -91 
Q 1206 -91 779 398 
Q 353 888 353 1747 
Q 353 2609 779 3096 
Q 1206 3584 1959 3584 
z
" transform="scale(0.015625)"/>
      </defs>
      <use xlink:href="#DejaVuSans-62"/>
      <use xlink:href="#DejaVuSans-61" transform="translate(63.476562 0)"/>
      <use xlink:href="#DejaVuSans-63" transform="translate(124.755859 0)"/>
      <use xlink:href="#DejaVuSans-6b" transform="translate(179.736328 0)"/>
      <use xlink:href="#DejaVuSans-74" transform="translate(237.646484 0)"/>
      <use xlink:href="#DejaVuSans-65" transform="translate(276.855469 0)"/>
      <use xlink:href="#DejaVuSans-73" transform="translate(338.378906 0)"/>
      <use xlink:href="#DejaVuSans-74" transform="translate(390.478516 0)"/>
      <use xlink:href="#DejaVuSans-5f" transform="translate(429.6875 0)"/>
      <use xlink:href="#DejaVuSans-66" transform="translate(479.6875 0)"/>
      <use xlink:href="#DejaVuSans-6f" transform="translate(514.892578 0)"/>
      <use xlink:href="#DejaVuSans-72" transform="translate(576.074219 0)"/>
      <use xlink:href="#DejaVuSans-65" transform="translate(614.9375 0)"/>
      <use xlink:href="#DejaVuSans-63" transform="translate(676.460938 0)"/>
      <use xlink:href="#DejaVuSans-61" transform="translate(731.441406 0)"/>
      <use xlink:href="#DejaVuSans-73" transform="translate(792.720703 0)"/>
      <use xlink:href="#DejaVuSans-74" transform="translate(844.820312 0)"/>
     </g>
    </g>
   </g>
  </g>
 </g>
 <defs>
  <clipPath id="pdcf322be79">
   <rect x="57.6" y="41.472" width="357.12" height="266.112"/>
  </clipPath>
 </defs>
</svg>
