<?xml version="1.0" encoding="utf-8" standalone="no"?>
<!DOCTYPE svg PUBLIC "-//W3C//DTD SVG 1.1//EN"
  "http://www.w3.org/Graphics/SVG/1.1/DTD/svg11.dtd">
<svg xmlns:xlink="http://www.w3.org/1999/xlink" width="460.8pt" height="345.6pt" viewBox="0 0 460.8 345.6" xmlns="http://www.w3.org/2000/svg" version="1.1">
 <metadata>
  <rdf:RDF xmlns:dc="http://purl.org/dc/elements/1.1/" xmlns:cc="http://creativecommons.org/ns#" xmlns:rdf="http://www.w3.org/1999/02/22-rdf-syntax-ns#">
   <cc:Work>
    <dc:type rdf:resource="http://purl.org/dc/dcmitype/StillImage"/>
    <dc:date>2025-05-30T11:11:03.747811</dc:date>
    <dc:format>image/svg+xml</dc:format>
    <dc:creator>
     <cc:Agent>
      <dc:title>Matplotlib v3.10.3, https://matplotlib.org/</dc:title>
     </cc:Agent>
    </dc:creator>
   </cc:Work>
  </rdf:RDF>
 </metadata>
 <defs>
  <style type="text/css">*{stroke-linejoin: round; stroke-linecap: butt}</style>
 </defs>
 <g id="figure_1">
  <g id="patch_1">
   <path d="M 0 345.6 
L 460.8 345.6 
L 460.8 0 
L 0 0 
z
" style="fill: #ffffff"/>
  </g>
  <g id="axes_1">
   <g id="patch_2">
    <path d="M 57.6 307.584 
L 414.72 307.584 
L 414.72 41.472 
L 57.6 41.472 
z
" style="fill: #ffffff"/>
   </g>
   <g id="matplotlib.axis_1">
    <g id="xtick_1">
     <g id="line2d_1">
      <path d="M 60.251339 307.584 
L 60.251339 41.472 
" clip-path="url(#p1f4c2c502d)" style="fill: none; stroke: #dedede; stroke-width: 0.8; stroke-linecap: square"/>
     </g>
     <g id="text_1">
      <!-- 2000 -->
      <g style="fill: #333333" transform="translate(49.651414 320.913498) scale(0.0833 -0.0833)">
       <defs>
        <path id="DejaVuSans-32" d="M 1228 531 
L 3431 531 
L 3431 0 
L 469 0 
L 469 531 
Q 828 903 1448 1529 
Q 2069 2156 2228 2338 
Q 2531 2678 2651 2914 
Q 2772 3150 2772 3378 
Q 2772 3750 2511 3984 
Q 2250 4219 1831 4219 
Q 1534 4219 1204 4116 
Q 875 4013 500 3803 
L 500 4441 
Q 881 4594 1212 4672 
Q 1544 4750 1819 4750 
Q 2544 4750 2975 4387 
Q 3406 4025 3406 3419 
Q 3406 3131 3298 2873 
Q 3191 2616 2906 2266 
Q 2828 2175 2409 1742 
Q 1991 1309 1228 531 
z
" transform="scale(0.015625)"/>
        <path id="DejaVuSans-30" d="M 2034 4250 
Q 1547 4250 1301 3770 
Q 1056 3291 1056 2328 
Q 1056 1369 1301 889 
Q 1547 409 2034 409 
Q 2525 409 2770 889 
Q 3016 1369 3016 2328 
Q 3016 3291 2770 3770 
Q 2525 4250 2034 4250 
z
M 2034 4750 
Q 2819 4750 3233 4129 
Q 3647 3509 3647 2328 
Q 3647 1150 3233 529 
Q 2819 -91 2034 -91 
Q 1250 -91 836 529 
Q 422 1150 422 2328 
Q 422 3509 836 4129 
Q 1250 4750 2034 4750 
z
" transform="scale(0.015625)"/>
       </defs>
       <use xlink:href="#DejaVuSans-32"/>
       <use xlink:href="#DejaVuSans-30" transform="translate(63.623047 0)"/>
       <use xlink:href="#DejaVuSans-30" transform="translate(127.246094 0)"/>
       <use xlink:href="#DejaVuSans-30" transform="translate(190.869141 0)"/>
      </g>
     </g>
    </g>
    <g id="xtick_2">
     <g id="line2d_2">
      <path d="M 114.465568 307.584 
L 114.465568 41.472 
" clip-path="url(#p1f4c2c502d)" style="fill: none; stroke: #dedede; stroke-width: 0.8; stroke-linecap: square"/>
     </g>
     <g id="text_2">
      <!-- 2004 -->
      <g style="fill: #333333" transform="translate(103.865643 320.913498) scale(0.0833 -0.0833)">
       <defs>
        <path id="DejaVuSans-34" d="M 2419 4116 
L 825 1625 
L 2419 1625 
L 2419 4116 
z
M 2253 4666 
L 3047 4666 
L 3047 1625 
L 3713 1625 
L 3713 1100 
L 3047 1100 
L 3047 0 
L 2419 0 
L 2419 1100 
L 313 1100 
L 313 1709 
L 2253 4666 
z
" transform="scale(0.015625)"/>
       </defs>
       <use xlink:href="#DejaVuSans-32"/>
       <use xlink:href="#DejaVuSans-30" transform="translate(63.623047 0)"/>
       <use xlink:href="#DejaVuSans-30" transform="translate(127.246094 0)"/>
       <use xlink:href="#DejaVuSans-34" transform="translate(190.869141 0)"/>
      </g>
     </g>
    </g>
    <g id="xtick_3">
     <g id="line2d_3">
      <path d="M 168.679798 307.584 
L 168.679798 41.472 
" clip-path="url(#p1f4c2c502d)" style="fill: none; stroke: #dedede; stroke-width: 0.8; stroke-linecap: square"/>
     </g>
     <g id="text_3">
      <!-- 2008 -->
      <g style="fill: #333333" transform="translate(158.079873 320.913498) scale(0.0833 -0.0833)">
       <defs>
        <path id="DejaVuSans-38" d="M 2034 2216 
Q 1584 2216 1326 1975 
Q 1069 1734 1069 1313 
Q 1069 891 1326 650 
Q 1584 409 2034 409 
Q 2484 409 2743 651 
Q 3003 894 3003 1313 
Q 3003 1734 2745 1975 
Q 2488 2216 2034 2216 
z
M 1403 2484 
Q 997 2584 770 2862 
Q 544 3141 544 3541 
Q 544 4100 942 4425 
Q 1341 4750 2034 4750 
Q 2731 4750 3128 4425 
Q 3525 4100 3525 3541 
Q 3525 3141 3298 2862 
Q 3072 2584 2669 2484 
Q 3125 2378 3379 2068 
Q 3634 1759 3634 1313 
Q 3634 634 3220 271 
Q 2806 -91 2034 -91 
Q 1263 -91 848 271 
Q 434 634 434 1313 
Q 434 1759 690 2068 
Q 947 2378 1403 2484 
z
M 1172 3481 
Q 1172 3119 1398 2916 
Q 1625 2713 2034 2713 
Q 2441 2713 2670 2916 
Q 2900 3119 2900 3481 
Q 2900 3844 2670 4047 
Q 2441 4250 2034 4250 
Q 1625 4250 1398 4047 
Q 1172 3844 1172 3481 
z
" transform="scale(0.015625)"/>
       </defs>
       <use xlink:href="#DejaVuSans-32"/>
       <use xlink:href="#DejaVuSans-30" transform="translate(63.623047 0)"/>
       <use xlink:href="#DejaVuSans-30" transform="translate(127.246094 0)"/>
       <use xlink:href="#DejaVuSans-38" transform="translate(190.869141 0)"/>
      </g>
     </g>
    </g>
    <g id="xtick_4">
     <g id="line2d_4">
      <path d="M 222.894027 307.584 
L 222.894027 41.472 
" clip-path="url(#p1f4c2c502d)" style="fill: none; stroke: #dedede; stroke-width: 0.8; stroke-linecap: square"/>
     </g>
     <g id="text_4">
      <!-- 2012 -->
      <g style="fill: #333333" transform="translate(212.294102 320.913498) scale(0.0833 -0.0833)">
       <defs>
        <path id="DejaVuSans-31" d="M 794 531 
L 1825 531 
L 1825 4091 
L 703 3866 
L 703 4441 
L 1819 4666 
L 2450 4666 
L 2450 531 
L 3481 531 
L 3481 0 
L 794 0 
L 794 531 
z
" transform="scale(0.015625)"/>
       </defs>
       <use xlink:href="#DejaVuSans-32"/>
       <use xlink:href="#DejaVuSans-30" transform="translate(63.623047 0)"/>
       <use xlink:href="#DejaVuSans-31" transform="translate(127.246094 0)"/>
       <use xlink:href="#DejaVuSans-32" transform="translate(190.869141 0)"/>
      </g>
     </g>
    </g>
    <g id="xtick_5">
     <g id="line2d_5">
      <path d="M 277.108256 307.584 
L 277.108256 41.472 
" clip-path="url(#p1f4c2c502d)" style="fill: none; stroke: #dedede; stroke-width: 0.8; stroke-linecap: square"/>
     </g>
     <g id="text_5">
      <!-- 2016 -->
      <g style="fill: #333333" transform="translate(266.508331 320.913498) scale(0.0833 -0.0833)">
       <defs>
        <path id="DejaVuSans-36" d="M 2113 2584 
Q 1688 2584 1439 2293 
Q 1191 2003 1191 1497 
Q 1191 994 1439 701 
Q 1688 409 2113 409 
Q 2538 409 2786 701 
Q 3034 994 3034 1497 
Q 3034 2003 2786 2293 
Q 2538 2584 2113 2584 
z
M 3366 4563 
L 3366 3988 
Q 3128 4100 2886 4159 
Q 2644 4219 2406 4219 
Q 1781 4219 1451 3797 
Q 1122 3375 1075 2522 
Q 1259 2794 1537 2939 
Q 1816 3084 2150 3084 
Q 2853 3084 3261 2657 
Q 3669 2231 3669 1497 
Q 3669 778 3244 343 
Q 2819 -91 2113 -91 
Q 1303 -91 875 529 
Q 447 1150 447 2328 
Q 447 3434 972 4092 
Q 1497 4750 2381 4750 
Q 2619 4750 2861 4703 
Q 3103 4656 3366 4563 
z
" transform="scale(0.015625)"/>
       </defs>
       <use xlink:href="#DejaVuSans-32"/>
       <use xlink:href="#DejaVuSans-30" transform="translate(63.623047 0)"/>
       <use xlink:href="#DejaVuSans-31" transform="translate(127.246094 0)"/>
       <use xlink:href="#DejaVuSans-36" transform="translate(190.869141 0)"/>
      </g>
     </g>
    </g>
    <g id="xtick_6">
     <g id="line2d_6">
      <path d="M 331.322485 307.584 
L 331.322485 41.472 
" clip-path="url(#p1f4c2c502d)" style="fill: none; stroke: #dedede; stroke-width: 0.8; stroke-linecap: square"/>
     </g>
     <g id="text_6">
      <!-- 2020 -->
      <g style="fill: #333333" transform="translate(320.72256 320.913498) scale(0.0833 -0.0833)">
       <use xlink:href="#DejaVuSans-32"/>
       <use xlink:href="#DejaVuSans-30" transform="translate(63.623047 0)"/>
       <use xlink:href="#DejaVuSans-32" transform="translate(127.246094 0)"/>
       <use xlink:href="#DejaVuSans-30" transform="translate(190.869141 0)"/>
      </g>
     </g>
    </g>
    <g id="xtick_7">
     <g id="line2d_7">
      <path d="M 385.536714 307.584 
L 385.536714 41.472 
" clip-path="url(#p1f4c2c502d)" style="fill: none; stroke: #dedede; stroke-width: 0.8; stroke-linecap: square"/>
     </g>
     <g id="text_7">
      <!-- 2024 -->
      <g style="fill: #333333" transform="translate(374.936789 320.913498) scale(0.0833 -0.0833)">
       <use xlink:href="#DejaVuSans-32"/>
       <use xlink:href="#DejaVuSans-30" transform="translate(63.623047 0)"/>
       <use xlink:href="#DejaVuSans-32" transform="translate(127.246094 0)"/>
       <use xlink:href="#DejaVuSans-34" transform="translate(190.869141 0)"/>
      </g>
     </g>
    </g>
    <g id="text_8">
     <!-- Dates -->
     <g style="fill: #333333" transform="translate(219.877969 334.244316) scale(0.1 -0.1)">
      <defs>
       <path id="DejaVuSans-Bold-44" d="M 1791 3756 
L 1791 909 
L 2222 909 
Q 2959 909 3348 1275 
Q 3738 1641 3738 2338 
Q 3738 3031 3350 3393 
Q 2963 3756 2222 3756 
L 1791 3756 
z
M 588 4666 
L 1856 4666 
Q 2919 4666 3439 4514 
Q 3959 4363 4331 4000 
Q 4659 3684 4818 3271 
Q 4978 2859 4978 2338 
Q 4978 1809 4818 1395 
Q 4659 981 4331 666 
Q 3956 303 3431 151 
Q 2906 0 1856 0 
L 588 0 
L 588 4666 
z
" transform="scale(0.015625)"/>
       <path id="DejaVuSans-Bold-61" d="M 2106 1575 
Q 1756 1575 1579 1456 
Q 1403 1338 1403 1106 
Q 1403 894 1545 773 
Q 1688 653 1941 653 
Q 2256 653 2472 879 
Q 2688 1106 2688 1447 
L 2688 1575 
L 2106 1575 
z
M 3816 1997 
L 3816 0 
L 2688 0 
L 2688 519 
Q 2463 200 2181 54 
Q 1900 -91 1497 -91 
Q 953 -91 614 226 
Q 275 544 275 1050 
Q 275 1666 698 1953 
Q 1122 2241 2028 2241 
L 2688 2241 
L 2688 2328 
Q 2688 2594 2478 2717 
Q 2269 2841 1825 2841 
Q 1466 2841 1156 2769 
Q 847 2697 581 2553 
L 581 3406 
Q 941 3494 1303 3539 
Q 1666 3584 2028 3584 
Q 2975 3584 3395 3211 
Q 3816 2838 3816 1997 
z
" transform="scale(0.015625)"/>
       <path id="DejaVuSans-Bold-74" d="M 1759 4494 
L 1759 3500 
L 2913 3500 
L 2913 2700 
L 1759 2700 
L 1759 1216 
Q 1759 972 1856 886 
Q 1953 800 2241 800 
L 2816 800 
L 2816 0 
L 1856 0 
Q 1194 0 917 276 
Q 641 553 641 1216 
L 641 2700 
L 84 2700 
L 84 3500 
L 641 3500 
L 641 4494 
L 1759 4494 
z
" transform="scale(0.015625)"/>
       <path id="DejaVuSans-Bold-65" d="M 4031 1759 
L 4031 1441 
L 1416 1441 
Q 1456 1047 1700 850 
Q 1944 653 2381 653 
Q 2734 653 3104 758 
Q 3475 863 3866 1075 
L 3866 213 
Q 3469 63 3072 -14 
Q 2675 -91 2278 -91 
Q 1328 -91 801 392 
Q 275 875 275 1747 
Q 275 2603 792 3093 
Q 1309 3584 2216 3584 
Q 3041 3584 3536 3087 
Q 4031 2591 4031 1759 
z
M 2881 2131 
Q 2881 2450 2695 2645 
Q 2509 2841 2209 2841 
Q 1884 2841 1681 2658 
Q 1478 2475 1428 2131 
L 2881 2131 
z
" transform="scale(0.015625)"/>
       <path id="DejaVuSans-Bold-73" d="M 3272 3391 
L 3272 2541 
Q 2913 2691 2578 2766 
Q 2244 2841 1947 2841 
Q 1628 2841 1473 2761 
Q 1319 2681 1319 2516 
Q 1319 2381 1436 2309 
Q 1553 2238 1856 2203 
L 2053 2175 
Q 2913 2066 3209 1816 
Q 3506 1566 3506 1031 
Q 3506 472 3093 190 
Q 2681 -91 1863 -91 
Q 1516 -91 1145 -36 
Q 775 19 384 128 
L 384 978 
Q 719 816 1070 734 
Q 1422 653 1784 653 
Q 2113 653 2278 743 
Q 2444 834 2444 1013 
Q 2444 1163 2330 1236 
Q 2216 1309 1875 1350 
L 1678 1375 
Q 931 1469 631 1722 
Q 331 1975 331 2491 
Q 331 3047 712 3315 
Q 1094 3584 1881 3584 
Q 2191 3584 2531 3537 
Q 2872 3491 3272 3391 
z
" transform="scale(0.015625)"/>
      </defs>
      <use xlink:href="#DejaVuSans-Bold-44"/>
      <use xlink:href="#DejaVuSans-Bold-61" transform="translate(83.007812 0)"/>
      <use xlink:href="#DejaVuSans-Bold-74" transform="translate(150.488281 0)"/>
      <use xlink:href="#DejaVuSans-Bold-65" transform="translate(198.291016 0)"/>
      <use xlink:href="#DejaVuSans-Bold-73" transform="translate(266.113281 0)"/>
     </g>
    </g>
   </g>
   <g id="matplotlib.axis_2">
    <g id="ytick_1">
     <g id="line2d_8">
      <path d="M 57.6 297.806143 
L 414.72 297.806143 
" clip-path="url(#p1f4c2c502d)" style="fill: none; stroke: #dedede; stroke-width: 0.8; stroke-linecap: square"/>
     </g>
     <g id="line2d_9">
      <defs>
       <path id="mb719dff6f0" d="M 0 0 
L -3.5 0 
" style="stroke: #333333; stroke-width: 0.8"/>
      </defs>
      <g>
       <use xlink:href="#mb719dff6f0" x="57.6" y="297.806143" style="fill: #333333; stroke: #333333; stroke-width: 0.8"/>
      </g>
     </g>
     <g id="text_9">
      <!-- −4 -->
      <g style="fill: #333333" transform="translate(38.319758 300.970892) scale(0.0833 -0.0833)">
       <defs>
        <path id="DejaVuSans-2212" d="M 678 2272 
L 4684 2272 
L 4684 1741 
L 678 1741 
L 678 2272 
z
" transform="scale(0.015625)"/>
       </defs>
       <use xlink:href="#DejaVuSans-2212"/>
       <use xlink:href="#DejaVuSans-34" transform="translate(83.789062 0)"/>
      </g>
     </g>
    </g>
    <g id="ytick_2">
     <g id="line2d_10">
      <path d="M 57.6 241.821661 
L 414.72 241.821661 
" clip-path="url(#p1f4c2c502d)" style="fill: none; stroke: #dedede; stroke-width: 0.8; stroke-linecap: square"/>
     </g>
     <g id="line2d_11">
      <g>
       <use xlink:href="#mb719dff6f0" x="57.6" y="241.821661" style="fill: #333333; stroke: #333333; stroke-width: 0.8"/>
      </g>
     </g>
     <g id="text_10">
      <!-- −2 -->
      <g style="fill: #333333" transform="translate(38.319758 244.98641) scale(0.0833 -0.0833)">
       <use xlink:href="#DejaVuSans-2212"/>
       <use xlink:href="#DejaVuSans-32" transform="translate(83.789062 0)"/>
      </g>
     </g>
    </g>
    <g id="ytick_3">
     <g id="line2d_12">
      <path d="M 57.6 185.83718 
L 414.72 185.83718 
" clip-path="url(#p1f4c2c502d)" style="fill: none; stroke: #dedede; stroke-width: 0.8; stroke-linecap: square"/>
     </g>
     <g id="line2d_13">
      <g>
       <use xlink:href="#mb719dff6f0" x="57.6" y="185.83718" style="fill: #333333; stroke: #333333; stroke-width: 0.8"/>
      </g>
     </g>
     <g id="text_11">
      <!-- 0 -->
      <g style="fill: #333333" transform="translate(45.300038 189.001929) scale(0.0833 -0.0833)">
       <use xlink:href="#DejaVuSans-30"/>
      </g>
     </g>
    </g>
    <g id="ytick_4">
     <g id="line2d_14">
      <path d="M 57.6 129.852698 
L 414.72 129.852698 
" clip-path="url(#p1f4c2c502d)" style="fill: none; stroke: #dedede; stroke-width: 0.8; stroke-linecap: square"/>
     </g>
     <g id="line2d_15">
      <g>
       <use xlink:href="#mb719dff6f0" x="57.6" y="129.852698" style="fill: #333333; stroke: #333333; stroke-width: 0.8"/>
      </g>
     </g>
     <g id="text_12">
      <!-- 2 -->
      <g style="fill: #333333" transform="translate(45.300038 133.017447) scale(0.0833 -0.0833)">
       <use xlink:href="#DejaVuSans-32"/>
      </g>
     </g>
    </g>
    <g id="ytick_5">
     <g id="line2d_16">
      <path d="M 57.6 73.868216 
L 414.72 73.868216 
" clip-path="url(#p1f4c2c502d)" style="fill: none; stroke: #dedede; stroke-width: 0.8; stroke-linecap: square"/>
     </g>
     <g id="line2d_17">
      <g>
       <use xlink:href="#mb719dff6f0" x="57.6" y="73.868216" style="fill: #333333; stroke: #333333; stroke-width: 0.8"/>
      </g>
     </g>
     <g id="text_13">
      <!-- 4 -->
      <g style="fill: #333333" transform="translate(45.300038 77.032966) scale(0.0833 -0.0833)">
       <use xlink:href="#DejaVuSans-34"/>
      </g>
     </g>
    </g>
   </g>
   <g id="line2d_18">
    <path d="M 73.832727 168.741312 
L 74.352234 153.009645 
L 74.983063 170.100227 
L 75.50257 180.332212 
L 76.022077 158.169165 
L 76.541583 179.541869 
L 77.172413 182.91345 
L 77.691919 192.289778 
L 78.285641 208.085071 
L 78.805148 195.847824 
L 79.435978 194.358075 
L 79.955484 225.14389 
L 80.549206 190.967728 
L 81.068713 186.190318 
L 81.699542 197.406258 
L 82.219049 286.813141 
L 82.849878 217.936691 
L 83.369385 199.926154 
L 83.963107 186.636421 
L 84.482613 186.636421 
L 85.113443 174.207555 
L 85.63295 177.134312 
L 86.226672 174.807129 
L 86.746178 187.264429 
L 87.377008 176.396335 
L 87.896514 194.159435 
L 88.527344 206.243567 
L 89.04685 204.815368 
L 89.566357 178.001167 
L 90.085864 179.057374 
L 90.716693 181.427665 
L 91.2362 175.364747 
L 91.829922 189.318958 
L 92.349428 287.578909 
L 92.980258 277.14215 
L 93.499765 190.195638 
L 94.093486 177.983258 
L 94.612993 182.669653 
L 95.243823 186.295169 
L 95.763329 194.436061 
L 96.394159 213.253237 
L 96.913665 200.539848 
L 97.507387 199.588592 
L 98.026894 199.588592 
L 98.657723 184.76955 
L 99.17723 178.523198 
L 99.770952 179.361383 
L 100.290459 183.808363 
L 100.921288 153.91576 
L 101.440795 142.802947 
L 102.071624 176.689361 
L 102.591131 174.582869 
L 103.110637 178.162665 
L 103.630144 179.994065 
L 104.260974 181.395365 
L 104.78048 189.350508 
L 105.374202 196.231089 
L 105.893709 195.460228 
L 106.524538 188.867129 
L 107.044045 192.03672 
L 107.637767 192.065917 
L 108.157273 200.337577 
L 108.788103 208.032853 
L 109.30761 212.65308 
L 109.938439 224.784222 
L 110.457946 224.958404 
L 111.051668 229.91799 
L 111.571174 229.91799 
L 112.202004 199.272105 
L 112.72151 195.480529 
L 113.315232 202.681751 
L 113.834739 192.17398 
L 114.465568 164.606953 
L 114.985075 179.882977 
L 115.615905 160.345724 
L 116.135411 169.059624 
L 116.692025 182.103226 
L 117.211532 174.341621 
L 117.842362 182.461255 
L 118.361868 184.376357 
L 118.95559 205.501097 
L 119.475097 185.285829 
L 120.105926 181.987298 
L 120.625433 181.119429 
L 121.219155 201.78812 
L 121.738661 182.540454 
L 122.369491 197.761555 
L 122.888998 203.802968 
L 123.519827 200.430265 
L 124.039334 229.286561 
L 124.633056 210.79658 
L 125.152562 210.79658 
L 125.783392 190.118782 
L 126.302898 190.118782 
L 126.89662 193.024147 
L 127.416127 187.006031 
L 128.046956 163.767161 
L 128.566463 152.428251 
L 129.197293 170.390924 
L 129.716799 180.429111 
L 130.236306 166.69628 
L 130.755813 191.718848 
L 131.386642 194.702833 
L 131.906149 199.815603 
L 132.499871 295.488 
L 133.019377 226.048023 
L 133.650207 277.14215 
L 134.169713 198.205958 
L 134.763435 189.255845 
L 135.282942 267.036412 
L 135.913771 205.610377 
L 136.433278 207.065235 
L 137.064107 232.439246 
L 137.583614 232.904125 
L 138.177336 234.569144 
L 138.696843 234.569144 
L 139.327672 242.198377 
L 139.847179 224.48564 
L 140.440901 200.065477 
L 140.960407 184.325158 
L 141.591237 136.312435 
L 142.110743 151.717658 
L 142.741573 162.477503 
L 143.26108 138.730226 
L 143.780586 149.092955 
L 144.300093 149.147872 
L 144.930922 169.282986 
L 145.450429 179.305308 
L 146.044151 174.784103 
L 146.563658 177.663105 
L 147.194487 193.130687 
L 147.713994 53.568 
L 148.307716 174.171896 
L 148.827222 245.331028 
L 149.458052 199.182741 
L 149.977558 202.801678 
L 150.608388 226.431506 
L 151.127895 231.38604 
L 151.721616 226.138928 
L 152.241123 226.138928 
L 152.871953 228.761711 
L 153.391459 219.802187 
L 153.985181 231.428464 
L 155.135517 197.714123 
L 155.655024 192.092255 
L 156.285853 174.945179 
L 156.80536 193.413581 
L 157.324867 187.400373 
L 157.844373 190.45916 
L 158.994709 195.519746 
L 159.588431 191.321538 
L 160.107938 195.298729 
L 160.738767 258.343737 
L 161.258274 268.199361 
L 161.851996 264.449496 
L 162.371503 189.904781 
L 163.002332 274.925486 
L 163.521839 185.747448 
L 164.152668 224.461226 
L 164.672175 233.776216 
L 165.265897 219.032998 
L 165.785403 219.032998 
L 166.416233 206.604132 
L 166.93574 201.132973 
L 167.529461 248.676492 
L 168.048968 213.556367 
L 168.679798 202.04228 
L 169.199304 206.433313 
L 169.830134 205.080778 
L 170.34964 207.980736 
L 170.906255 203.162616 
L 171.425761 194.625819 
L 172.056591 208.430196 
L 172.576097 200.332398 
L 173.169819 203.789214 
L 174.320155 179.338724 
L 174.839662 174.0135 
L 175.433384 172.137016 
L 175.952891 174.497834 
L 176.58372 176.766764 
L 177.103227 286.813141 
L 177.734056 190.611163 
L 178.253563 184.809904 
L 178.847285 187.637711 
L 179.366791 187.637711 
L 179.997621 199.582588 
L 180.517128 199.582588 
L 181.110849 217.022808 
L 181.630356 207.742425 
L 182.261186 187.281327 
L 182.780692 201.65296 
L 183.411522 191.83791 
L 183.931028 186.889046 
L 184.450535 195.281495 
L 184.970042 182.44884 
L 186.120378 171.553385 
L 186.7141 169.06706 
L 187.864436 151.238004 
L 188.383942 150.111738 
L 188.977664 152.111215 
L 189.497171 162.805351 
L 190.128 236.714967 
L 190.647507 166.981335 
L 191.278337 172.523343 
L 191.797843 188.330569 
L 192.391565 177.204915 
L 192.911072 177.204915 
L 193.541901 175.273444 
L 194.061408 185.241531 
L 194.65513 202.229555 
L 195.174636 189.234709 
L 195.805466 167.223227 
L 196.324973 179.333883 
L 196.955802 169.648031 
L 197.475309 171.643598 
L 197.994815 185.042497 
L 198.514322 166.880395 
L 199.145152 173.223547 
L 199.664658 185.603745 
L 200.25838 184.183309 
L 200.777887 179.633385 
L 201.928223 159.543244 
L 202.521945 253.726003 
L 203.041451 182.120558 
L 203.672281 187.457958 
L 204.191788 179.158314 
L 204.822617 206.405706 
L 205.342124 189.654856 
L 205.935846 191.642871 
L 206.455352 191.642871 
L 207.086182 187.934918 
L 207.605688 168.639497 
L 208.19941 194.380733 
L 208.718917 188.071921 
L 209.349746 169.096608 
L 209.869253 173.61684 
L 210.500083 180.113127 
L 211.019589 180.945905 
L 211.539096 164.596801 
L 212.058602 163.715027 
L 212.689432 176.90571 
L 213.208939 177.916421 
L 213.80266 173.815113 
L 214.322167 162.417657 
L 214.952997 163.447283 
L 215.472503 178.793852 
L 216.066225 153.597001 
L 217.216561 209.29254 
L 217.736068 177.51103 
L 218.366897 194.90702 
L 218.886404 175.959793 
L 219.480126 189.478793 
L 219.999633 189.478793 
L 220.630462 201.242385 
L 221.149969 154.363039 
L 221.743691 219.477583 
L 222.263197 241.560188 
L 222.894027 216.544835 
L 223.413533 203.235644 
L 224.044363 197.781051 
L 224.56387 194.54407 
L 225.63999 165.330011 
L 226.790327 189.770403 
L 227.384048 187.962372 
L 229.053891 157.766761 
L 229.647613 163.803699 
L 230.797949 182.677605 
L 231.317456 181.290092 
L 231.948285 181.438054 
L 232.467792 189.687156 
L 233.061514 177.592511 
L 234.731357 177.521908 
L 235.325079 239.406485 
L 235.844585 231.32119 
L 236.475415 195.937641 
L 236.994921 217.221405 
L 237.625751 217.516154 
L 238.145258 219.156425 
L 238.664764 207.749171 
L 239.184271 203.314432 
L 239.8151 200.258377 
L 240.334607 184.376357 
L 240.928329 179.176859 
L 242.078665 159.474422 
L 242.598172 208.606455 
L 243.191894 154.307594 
L 243.7114 159.155487 
L 244.34223 178.446347 
L 244.861736 162.200983 
L 245.492566 180.372165 
L 246.012072 167.917173 
L 246.605794 171.810869 
L 247.75613 171.752779 
L 248.275637 171.061972 
L 248.869359 206.977608 
L 249.388866 193.20757 
L 250.019695 171.583683 
L 250.539202 170.774468 
L 251.170031 181.598912 
L 251.689538 181.398101 
L 252.209045 193.149716 
L 252.728551 191.137453 
L 253.878887 179.014611 
L 254.472609 164.932701 
L 254.992116 168.877593 
L 255.622945 159.022227 
L 256.142452 159.381745 
L 256.736174 156.439372 
L 257.255681 173.91644 
L 257.88651 166.883063 
L 258.406017 155.191952 
L 259.036846 170.230066 
L 259.556353 159.19626 
L 260.150075 171.197175 
L 260.669581 171.197175 
L 261.300411 163.451762 
L 261.819917 173.387549 
L 262.413639 174.936327 
L 262.933146 189.945302 
L 263.563976 194.225758 
L 264.083482 195.935917 
L 264.714312 192.290106 
L 265.233818 204.460071 
L 266.272832 200.310562 
L 266.903661 188.210597 
L 267.423168 234.085562 
L 268.01689 217.096681 
L 269.167226 170.617811 
L 269.686732 172.689213 
L 270.280454 248.235057 
L 270.799961 148.076698 
L 271.43079 168.724144 
L 271.950297 171.53559 
L 272.581127 180.695162 
L 273.100633 176.993382 
L 273.694355 192.224266 
L 274.213862 192.224266 
L 274.844691 181.959478 
L 275.364198 170.157581 
L 276.477426 179.09261 
L 277.108256 182.436375 
L 277.627763 180.302873 
L 278.258592 176.980058 
L 278.778099 204.686169 
L 279.334713 206.004988 
L 279.85422 202.313142 
L 280.485049 198.96639 
L 281.004556 194.001661 
L 281.598278 197.846073 
L 282.117784 169.458987 
L 282.748614 164.70697 
L 283.26812 162.708612 
L 283.861842 264.449496 
L 284.381349 143.81314 
L 285.012178 152.542006 
L 285.531685 176.283642 
L 286.162515 171.037558 
L 286.682021 151.412037 
L 287.275743 148.329003 
L 287.79525 148.329003 
L 288.426079 159.692486 
L 288.945586 159.692486 
L 289.539308 197.675301 
L 290.058814 218.20752 
L 290.689644 199.232208 
L 291.209151 193.67494 
L 291.83998 201.043318 
L 292.359487 193.478181 
L 292.878993 181.780229 
L 293.3985 183.41783 
L 294.029329 179.715782 
L 295.142558 157.665274 
L 295.662065 169.588185 
L 296.292894 165.934358 
L 296.812401 152.243517 
L 297.406123 258.732453 
L 297.925629 169.91128 
L 298.556459 193.627196 
L 299.075965 159.520109 
L 299.706795 192.129248 
L 300.226302 166.17299 
L 300.820023 183.535652 
L 301.33953 183.535652 
L 301.97036 170.331593 
L 302.489866 163.859144 
L 303.083588 154.684429 
L 303.603095 162.555175 
L 304.233924 145.065648 
L 304.753431 174.61813 
L 305.38426 181.405114 
L 305.903767 161.856796 
L 306.423274 176.063186 
L 306.94278 175.988904 
L 307.57361 177.325606 
L 308.093117 172.360877 
L 308.686838 158.892661 
L 309.206345 141.422866 
L 309.837175 213.89938 
L 310.356681 148.529054 
L 310.950403 170.845029 
L 311.46991 156.151617 
L 312.100739 160.713824 
L 312.620246 171.923186 
L 313.251075 182.148647 
L 313.770582 182.161331 
L 314.364304 191.287575 
L 314.883811 191.287575 
L 315.51464 163.742459 
L 316.034147 169.608487 
L 316.627869 202.520252 
L 317.147375 212.619676 
L 317.778205 162.152177 
L 318.297711 195.61292 
L 318.928541 206.211267 
L 319.448047 204.233973 
L 319.967554 197.897769 
L 320.487061 196.822197 
L 321.11789 197.900501 
L 321.637397 192.289778 
L 322.231119 180.985641 
L 322.750625 163.806543 
L 323.381455 161.961498 
L 323.900962 195.557385 
L 324.494683 138.028556 
L 325.01419 139.000488 
L 325.64502 258.388051 
L 326.164526 152.963275 
L 326.795356 156.696501 
L 327.314862 163.395218 
L 327.908584 152.527961 
L 328.428091 152.527961 
L 329.05892 183.219165 
L 329.578427 162.211861 
L 330.172149 179.264484 
L 330.691656 173.08487 
L 331.322485 150.395095 
L 331.841992 174.359732 
L 332.472821 170.907719 
L 332.992328 175.551859 
L 334.068449 194.49662 
L 334.699278 191.343666 
L 335.218785 186.023641 
L 335.812507 191.547636 
L 336.332013 166.293618 
L 336.962843 158.570031 
L 337.48235 268.199361 
L 338.076071 264.449496 
L 338.595578 245.492527 
L 339.226408 166.721564 
L 339.745914 158.680318 
L 340.376744 177.691292 
L 340.89625 174.538607 
L 341.489972 163.574451 
L 342.009479 163.574451 
L 342.640308 143.348849 
L 343.159815 143.348849 
L 343.753537 199.193386 
L 344.273044 201.411688 
L 344.903873 175.718042 
L 345.42338 189.863578 
L 346.054209 189.641532 
L 346.573716 183.46528 
L 347.093222 196.315085 
L 347.612729 183.966925 
L 348.243559 181.589163 
L 348.763065 186.669634 
L 349.356787 184.861603 
L 349.876294 159.962881 
L 351.02663 155.86108 
L 351.620352 153.370903 
L 352.139858 148.367395 
L 352.770688 172.729304 
L 353.290195 144.210062 
L 353.921024 186.476804 
L 354.440531 183.970113 
L 355.034253 185.505933 
L 355.553759 185.505933 
L 356.184589 202.308275 
L 356.704095 180.29968 
L 357.817324 226.153241 
L 358.448153 207.985421 
L 358.96766 207.789899 
L 359.59849 215.125978 
L 360.117996 223.193884 
L 360.637503 213.627712 
L 361.15701 209.063775 
L 361.787839 205.717023 
L 362.307346 174.07276 
L 362.901068 188.285368 
L 363.420574 166.907312 
L 364.051404 154.984767 
L 364.57091 252.114121 
L 365.164632 246.167878 
L 365.684139 142.327355 
L 366.314968 136.844362 
L 366.834475 141.206192 
L 367.465305 136.444603 
L 367.984811 136.10199 
L 368.578533 165.512432 
L 369.09804 165.512432 
L 369.728869 169.168805 
L 370.248376 164.085242 
L 370.842098 151.389862 
L 371.361604 174.312258 
L 371.992434 195.485445 
L 372.51194 201.71756 
L 373.14277 200.365025 
L 373.662277 210.467811 
L 374.181783 205.197496 
L 374.70129 172.339041 
L 375.332119 182.396655 
L 375.851626 180.015901 
L 376.445348 165.320297 
L 376.964855 144.717433 
L 377.595684 177.72374 
L 378.115191 103.083406 
L 378.708913 257.408166 
L 379.228419 121.267965 
L 380.378755 150.928395 
L 381.009585 151.270155 
L 381.529092 163.459817 
L 382.122813 143.58095 
L 382.64232 143.58095 
L 383.792656 155.816524 
L 384.386378 151.842057 
L 384.905885 168.950511 
L 385.536714 143.80596 
L 385.536714 143.80596 
" clip-path="url(#p1f4c2c502d)" style="fill: none; stroke: #000000; stroke-width: 2; stroke-linecap: square"/>
   </g>
   <g id="line2d_19">
    <path d="M 386.056221 148.810687 
L 386.68705 159.538232 
L 387.206557 172.354191 
L 387.763171 165.533491 
L 388.282678 173.857126 
L 388.913507 157.073708 
L 389.433014 151.236887 
L 390.026736 173.976611 
L 390.546243 149.530085 
L 391.177072 154.435673 
L 391.696579 250.499137 
L 392.290301 134.475591 
L 392.809807 148.625792 
L 393.440637 154.867582 
L 393.960143 158.131223 
L 394.590973 176.8515 
L 395.11048 163.104521 
L 395.704201 151.591271 
L 396.223708 151.591271 
L 396.854538 142.056862 
L 397.374044 142.056862 
L 397.967766 199.677881 
L 398.487273 170.662394 
" clip-path="url(#p1f4c2c502d)" style="fill: none; stroke: #003dfd; stroke-width: 2; stroke-linecap: square"/>
   </g>
   <g id="line2d_20">
    <path d="M 386.056221 145.580584 
L 386.68705 161.412014 
L 387.206557 163.978499 
L 387.763171 178.224158 
L 388.282678 178.258087 
L 388.913507 191.573815 
L 389.433014 214.595768 
L 390.026736 210.993469 
L 390.546243 176.567772 
L 391.177072 219.083665 
L 391.696579 196.720965 
L 392.290301 211.528163 
L 392.809807 207.629694 
L 393.440637 201.628968 
L 393.960143 204.014196 
L 394.590973 210.628524 
L 395.11048 215.149816 
L 395.704201 215.071254 
L 396.223708 192.322423 
L 396.854538 204.987568 
L 397.374044 195.913762 
L 397.967766 192.882648 
L 398.487273 193.857746 
" clip-path="url(#p1f4c2c502d)" style="fill: none; stroke: #b512b8; stroke-width: 2; stroke-linecap: square"/>
   </g>
   <g id="legend_1">
    <g id="line2d_21">
     <path d="M 313.0825 54.570438 
L 323.0825 54.570438 
L 333.0825 54.570438 
" style="fill: none; stroke: #000000; stroke-width: 2; stroke-linecap: square"/>
    </g>
    <g id="text_14">
     <!-- train -->
     <g transform="translate(341.0825 58.070438) scale(0.1 -0.1)">
      <defs>
       <path id="DejaVuSans-74" d="M 1172 4494 
L 1172 3500 
L 2356 3500 
L 2356 3053 
L 1172 3053 
L 1172 1153 
Q 1172 725 1289 603 
Q 1406 481 1766 481 
L 2356 481 
L 2356 0 
L 1766 0 
Q 1100 0 847 248 
Q 594 497 594 1153 
L 594 3053 
L 172 3053 
L 172 3500 
L 594 3500 
L 594 4494 
L 1172 4494 
z
" transform="scale(0.015625)"/>
       <path id="DejaVuSans-72" d="M 2631 2963 
Q 2534 3019 2420 3045 
Q 2306 3072 2169 3072 
Q 1681 3072 1420 2755 
Q 1159 2438 1159 1844 
L 1159 0 
L 581 0 
L 581 3500 
L 1159 3500 
L 1159 2956 
Q 1341 3275 1631 3429 
Q 1922 3584 2338 3584 
Q 2397 3584 2469 3576 
Q 2541 3569 2628 3553 
L 2631 2963 
z
" transform="scale(0.015625)"/>
       <path id="DejaVuSans-61" d="M 2194 1759 
Q 1497 1759 1228 1600 
Q 959 1441 959 1056 
Q 959 750 1161 570 
Q 1363 391 1709 391 
Q 2188 391 2477 730 
Q 2766 1069 2766 1631 
L 2766 1759 
L 2194 1759 
z
M 3341 1997 
L 3341 0 
L 2766 0 
L 2766 531 
Q 2569 213 2275 61 
Q 1981 -91 1556 -91 
Q 1019 -91 701 211 
Q 384 513 384 1019 
Q 384 1609 779 1909 
Q 1175 2209 1959 2209 
L 2766 2209 
L 2766 2266 
Q 2766 2663 2505 2880 
Q 2244 3097 1772 3097 
Q 1472 3097 1187 3025 
Q 903 2953 641 2809 
L 641 3341 
Q 956 3463 1253 3523 
Q 1550 3584 1831 3584 
Q 2591 3584 2966 3190 
Q 3341 2797 3341 1997 
z
" transform="scale(0.015625)"/>
       <path id="DejaVuSans-69" d="M 603 3500 
L 1178 3500 
L 1178 0 
L 603 0 
L 603 3500 
z
M 603 4863 
L 1178 4863 
L 1178 4134 
L 603 4134 
L 603 4863 
z
" transform="scale(0.015625)"/>
       <path id="DejaVuSans-6e" d="M 3513 2113 
L 3513 0 
L 2938 0 
L 2938 2094 
Q 2938 2591 2744 2837 
Q 2550 3084 2163 3084 
Q 1697 3084 1428 2787 
Q 1159 2491 1159 1978 
L 1159 0 
L 581 0 
L 581 3500 
L 1159 3500 
L 1159 2956 
Q 1366 3272 1645 3428 
Q 1925 3584 2291 3584 
Q 2894 3584 3203 3211 
Q 3513 2838 3513 2113 
z
" transform="scale(0.015625)"/>
      </defs>
      <use xlink:href="#DejaVuSans-74"/>
      <use xlink:href="#DejaVuSans-72" transform="translate(39.208984 0)"/>
      <use xlink:href="#DejaVuSans-61" transform="translate(80.322266 0)"/>
      <use xlink:href="#DejaVuSans-69" transform="translate(141.601562 0)"/>
      <use xlink:href="#DejaVuSans-6e" transform="translate(169.384766 0)"/>
     </g>
    </g>
    <g id="line2d_22">
     <path d="M 313.0825 69.248563 
L 323.0825 69.248563 
L 333.0825 69.248563 
" style="fill: none; stroke: #003dfd; stroke-width: 2; stroke-linecap: square"/>
    </g>
    <g id="text_15">
     <!-- test -->
     <g transform="translate(341.0825 72.748563) scale(0.1 -0.1)">
      <defs>
       <path id="DejaVuSans-65" d="M 3597 1894 
L 3597 1613 
L 953 1613 
Q 991 1019 1311 708 
Q 1631 397 2203 397 
Q 2534 397 2845 478 
Q 3156 559 3463 722 
L 3463 178 
Q 3153 47 2828 -22 
Q 2503 -91 2169 -91 
Q 1331 -91 842 396 
Q 353 884 353 1716 
Q 353 2575 817 3079 
Q 1281 3584 2069 3584 
Q 2775 3584 3186 3129 
Q 3597 2675 3597 1894 
z
M 3022 2063 
Q 3016 2534 2758 2815 
Q 2500 3097 2075 3097 
Q 1594 3097 1305 2825 
Q 1016 2553 972 2059 
L 3022 2063 
z
" transform="scale(0.015625)"/>
       <path id="DejaVuSans-73" d="M 2834 3397 
L 2834 2853 
Q 2591 2978 2328 3040 
Q 2066 3103 1784 3103 
Q 1356 3103 1142 2972 
Q 928 2841 928 2578 
Q 928 2378 1081 2264 
Q 1234 2150 1697 2047 
L 1894 2003 
Q 2506 1872 2764 1633 
Q 3022 1394 3022 966 
Q 3022 478 2636 193 
Q 2250 -91 1575 -91 
Q 1294 -91 989 -36 
Q 684 19 347 128 
L 347 722 
Q 666 556 975 473 
Q 1284 391 1588 391 
Q 1994 391 2212 530 
Q 2431 669 2431 922 
Q 2431 1156 2273 1281 
Q 2116 1406 1581 1522 
L 1381 1569 
Q 847 1681 609 1914 
Q 372 2147 372 2553 
Q 372 3047 722 3315 
Q 1072 3584 1716 3584 
Q 2034 3584 2315 3537 
Q 2597 3491 2834 3397 
z
" transform="scale(0.015625)"/>
      </defs>
      <use xlink:href="#DejaVuSans-74"/>
      <use xlink:href="#DejaVuSans-65" transform="translate(39.208984 0)"/>
      <use xlink:href="#DejaVuSans-73" transform="translate(100.732422 0)"/>
      <use xlink:href="#DejaVuSans-74" transform="translate(152.832031 0)"/>
     </g>
    </g>
    <g id="line2d_23">
     <path d="M 313.0825 83.926688 
L 323.0825 83.926688 
L 333.0825 83.926688 
" style="fill: none; stroke: #b512b8; stroke-width: 2; stroke-linecap: square"/>
    </g>
    <g id="text_16">
     <!-- test_forecast -->
     <g transform="translate(341.0825 87.426688) scale(0.1 -0.1)">
      <defs>
       <path id="DejaVuSans-5f" d="M 3263 -1063 
L 3263 -1509 
L -63 -1509 
L -63 -1063 
L 3263 -1063 
z
" transform="scale(0.015625)"/>
       <path id="DejaVuSans-66" d="M 2375 4863 
L 2375 4384 
L 1825 4384 
Q 1516 4384 1395 4259 
Q 1275 4134 1275 3809 
L 1275 3500 
L 2222 3500 
L 2222 3053 
L 1275 3053 
L 1275 0 
L 697 0 
L 697 3053 
L 147 3053 
L 147 3500 
L 697 3500 
L 697 3744 
Q 697 4328 969 4595 
Q 1241 4863 1831 4863 
L 2375 4863 
z
" transform="scale(0.015625)"/>
       <path id="DejaVuSans-6f" d="M 1959 3097 
Q 1497 3097 1228 2736 
Q 959 2375 959 1747 
Q 959 1119 1226 758 
Q 1494 397 1959 397 
Q 2419 397 2687 759 
Q 2956 1122 2956 1747 
Q 2956 2369 2687 2733 
Q 2419 3097 1959 3097 
z
M 1959 3584 
Q 2709 3584 3137 3096 
Q 3566 2609 3566 1747 
Q 3566 888 3137 398 
Q 2709 -91 1959 -91 
Q 1206 -91 779 398 
Q 353 888 353 1747 
Q 353 2609 779 3096 
Q 1206 3584 1959 3584 
z
" transform="scale(0.015625)"/>
       <path id="DejaVuSans-63" d="M 3122 3366 
L 3122 2828 
Q 2878 2963 2633 3030 
Q 2388 3097 2138 3097 
Q 1578 3097 1268 2742 
Q 959 2388 959 1747 
Q 959 1106 1268 751 
Q 1578 397 2138 397 
Q 2388 397 2633 464 
Q 2878 531 3122 666 
L 3122 134 
Q 2881 22 2623 -34 
Q 2366 -91 2075 -91 
Q 1284 -91 818 406 
Q 353 903 353 1747 
Q 353 2603 823 3093 
Q 1294 3584 2113 3584 
Q 2378 3584 2631 3529 
Q 2884 3475 3122 3366 
z
" transform="scale(0.015625)"/>
      </defs>
      <use xlink:href="#DejaVuSans-74"/>
      <use xlink:href="#DejaVuSans-65" transform="translate(39.208984 0)"/>
      <use xlink:href="#DejaVuSans-73" transform="translate(100.732422 0)"/>
      <use xlink:href="#DejaVuSans-74" transform="translate(152.832031 0)"/>
      <use xlink:href="#DejaVuSans-5f" transform="translate(192.041016 0)"/>
      <use xlink:href="#DejaVuSans-66" transform="translate(242.041016 0)"/>
      <use xlink:href="#DejaVuSans-6f" transform="translate(277.246094 0)"/>
      <use xlink:href="#DejaVuSans-72" transform="translate(338.427734 0)"/>
      <use xlink:href="#DejaVuSans-65" transform="translate(377.291016 0)"/>
      <use xlink:href="#DejaVuSans-63" transform="translate(438.814453 0)"/>
      <use xlink:href="#DejaVuSans-61" transform="translate(493.794922 0)"/>
      <use xlink:href="#DejaVuSans-73" transform="translate(555.074219 0)"/>
      <use xlink:href="#DejaVuSans-74" transform="translate(607.173828 0)"/>
     </g>
    </g>
   </g>
  </g>
 </g>
 <defs>
  <clipPath id="p1f4c2c502d">
   <rect x="57.6" y="41.472" width="357.12" height="266.112"/>
  </clipPath>
 </defs>
</svg>
